G75*
G70*
%OFA0B0*%
%FSLAX24Y24*%
%IPPOS*%
%LPD*%
%AMOC8*
5,1,8,0,0,1.08239X$1,22.5*
%
%ADD10C,0.0000*%
%ADD11R,0.0394X0.0787*%
D10*
X014712Y012689D02*
X014712Y014461D01*
X014716Y014461D01*
X014716Y021941D01*
X014711Y021926D01*
X014711Y023658D01*
X020059Y023657D01*
X020058Y023657D02*
X020115Y023661D01*
X020172Y023660D01*
X020229Y023656D01*
X020285Y023648D01*
X020341Y023637D01*
X020396Y023622D01*
X020450Y023603D01*
X020502Y023581D01*
X020553Y023555D01*
X020602Y023526D01*
X020649Y023494D01*
X020694Y023459D01*
X020736Y023421D01*
X020776Y023381D01*
X020814Y023338D01*
X020848Y023292D01*
X020879Y023245D01*
X020907Y023195D01*
X020932Y023144D01*
X020954Y023091D01*
X020971Y023037D01*
X020986Y022982D01*
X020996Y022926D01*
X021003Y022870D01*
X021003Y021953D01*
X022464Y021961D01*
X022526Y021959D01*
X022587Y021953D01*
X022648Y021944D01*
X022709Y021930D01*
X022768Y021913D01*
X022826Y021892D01*
X022883Y021867D01*
X022938Y021839D01*
X022991Y021808D01*
X023042Y021773D01*
X023091Y021735D01*
X023138Y021694D01*
X023181Y021651D01*
X023222Y021604D01*
X023260Y021555D01*
X023295Y021504D01*
X023326Y021451D01*
X023354Y021396D01*
X023379Y021339D01*
X023400Y021281D01*
X023417Y021222D01*
X023431Y021161D01*
X023440Y021100D01*
X023446Y021039D01*
X023448Y020977D01*
X023448Y015446D01*
X023449Y015446D02*
X023447Y015385D01*
X023441Y015325D01*
X023432Y015265D01*
X023419Y015206D01*
X023402Y015148D01*
X023381Y015091D01*
X023357Y015035D01*
X023330Y014981D01*
X023299Y014929D01*
X023265Y014879D01*
X023228Y014831D01*
X023187Y014785D01*
X023145Y014743D01*
X023099Y014702D01*
X023051Y014665D01*
X023001Y014631D01*
X022949Y014600D01*
X022895Y014573D01*
X022839Y014549D01*
X022782Y014528D01*
X022724Y014511D01*
X022665Y014498D01*
X022605Y014489D01*
X022545Y014483D01*
X022484Y014481D01*
X021019Y014472D01*
X021019Y013661D01*
X021020Y013661D02*
X021018Y013600D01*
X021012Y013540D01*
X021003Y013480D01*
X020990Y013421D01*
X020973Y013363D01*
X020952Y013306D01*
X020928Y013250D01*
X020901Y013196D01*
X020870Y013144D01*
X020836Y013094D01*
X020799Y013046D01*
X020758Y013000D01*
X020716Y012958D01*
X020670Y012917D01*
X020622Y012880D01*
X020572Y012846D01*
X020520Y012815D01*
X020466Y012788D01*
X020410Y012764D01*
X020353Y012743D01*
X020295Y012726D01*
X020236Y012713D01*
X020176Y012704D01*
X020116Y012698D01*
X020055Y012696D01*
X020055Y012697D02*
X014712Y012689D01*
D11*
X016452Y013016D03*
X017452Y014316D03*
X018452Y013016D03*
X019452Y014316D03*
X020452Y013016D03*
X015452Y014316D03*
X015480Y022038D03*
X016480Y023338D03*
X017480Y022038D03*
X018480Y023338D03*
X019480Y022038D03*
X020480Y023338D03*
M02*
