G75*
G70*
%OFA0B0*%
%FSLAX24Y24*%
%IPPOS*%
%LPD*%
%AMOC8*
5,1,8,0,0,1.08239X$1,22.5*
%
%ADD10C,0.0000*%
%ADD11R,0.0394X0.0787*%
%ADD12C,0.0640*%
%ADD13C,0.0740*%
%ADD14C,0.0080*%
%ADD15R,0.0500X0.0250*%
%ADD16C,0.0100*%
D10*
X014712Y012689D02*
X014712Y014461D01*
X014716Y014461D01*
X014716Y021941D01*
X014711Y021926D01*
X014711Y023658D01*
X020059Y023657D01*
X020058Y023657D02*
X020115Y023661D01*
X020172Y023660D01*
X020229Y023656D01*
X020285Y023648D01*
X020341Y023637D01*
X020396Y023622D01*
X020450Y023603D01*
X020502Y023581D01*
X020553Y023555D01*
X020602Y023526D01*
X020649Y023494D01*
X020694Y023459D01*
X020736Y023421D01*
X020776Y023381D01*
X020814Y023338D01*
X020848Y023292D01*
X020879Y023245D01*
X020907Y023195D01*
X020932Y023144D01*
X020954Y023091D01*
X020971Y023037D01*
X020986Y022982D01*
X020996Y022926D01*
X021003Y022870D01*
X021003Y021953D01*
X022464Y021961D01*
X022526Y021959D01*
X022587Y021953D01*
X022648Y021944D01*
X022709Y021930D01*
X022768Y021913D01*
X022826Y021892D01*
X022883Y021867D01*
X022938Y021839D01*
X022991Y021808D01*
X023042Y021773D01*
X023091Y021735D01*
X023138Y021694D01*
X023181Y021651D01*
X023222Y021604D01*
X023260Y021555D01*
X023295Y021504D01*
X023326Y021451D01*
X023354Y021396D01*
X023379Y021339D01*
X023400Y021281D01*
X023417Y021222D01*
X023431Y021161D01*
X023440Y021100D01*
X023446Y021039D01*
X023448Y020977D01*
X023448Y015446D01*
X023449Y015446D02*
X023447Y015385D01*
X023441Y015325D01*
X023432Y015265D01*
X023419Y015206D01*
X023402Y015148D01*
X023381Y015091D01*
X023357Y015035D01*
X023330Y014981D01*
X023299Y014929D01*
X023265Y014879D01*
X023228Y014831D01*
X023187Y014785D01*
X023145Y014743D01*
X023099Y014702D01*
X023051Y014665D01*
X023001Y014631D01*
X022949Y014600D01*
X022895Y014573D01*
X022839Y014549D01*
X022782Y014528D01*
X022724Y014511D01*
X022665Y014498D01*
X022605Y014489D01*
X022545Y014483D01*
X022484Y014481D01*
X021019Y014472D01*
X021019Y013661D01*
X021020Y013661D02*
X021018Y013600D01*
X021012Y013540D01*
X021003Y013480D01*
X020990Y013421D01*
X020973Y013363D01*
X020952Y013306D01*
X020928Y013250D01*
X020901Y013196D01*
X020870Y013144D01*
X020836Y013094D01*
X020799Y013046D01*
X020758Y013000D01*
X020716Y012958D01*
X020670Y012917D01*
X020622Y012880D01*
X020572Y012846D01*
X020520Y012815D01*
X020466Y012788D01*
X020410Y012764D01*
X020353Y012743D01*
X020295Y012726D01*
X020236Y012713D01*
X020176Y012704D01*
X020116Y012698D01*
X020055Y012696D01*
X020055Y012697D02*
X014712Y012689D01*
D11*
X016452Y013016D03*
X017452Y014316D03*
X018452Y013016D03*
X019452Y014316D03*
X020452Y013016D03*
X015452Y014316D03*
X015480Y022038D03*
X016480Y023338D03*
X017480Y022038D03*
X018480Y023338D03*
X019480Y022038D03*
X020480Y023338D03*
D12*
X020474Y022957D02*
X020474Y022317D01*
X019474Y022417D02*
X019474Y023057D01*
X018474Y022957D02*
X018474Y022317D01*
X017474Y022417D02*
X017474Y023057D01*
X016474Y022957D02*
X016474Y022317D01*
X015474Y022417D02*
X015474Y023057D01*
X015457Y014080D02*
X015457Y013440D01*
X016457Y013340D02*
X016457Y013980D01*
X017457Y014080D02*
X017457Y013440D01*
X018457Y013340D02*
X018457Y013980D01*
X019457Y014080D02*
X019457Y013440D01*
X020457Y013340D02*
X020457Y013980D01*
D13*
X020471Y015185D03*
X021471Y015185D03*
X022471Y015185D03*
X022467Y016199D03*
X021467Y016199D03*
X020467Y016199D03*
X019467Y016199D03*
X018467Y016199D03*
X017467Y016199D03*
X016467Y016199D03*
X015467Y016199D03*
X015467Y017194D03*
X016467Y017194D03*
X017467Y017194D03*
X018467Y017194D03*
X019467Y017194D03*
X020467Y017194D03*
X021467Y017194D03*
X022467Y017194D03*
X022467Y018195D03*
X021467Y018195D03*
X020467Y018195D03*
X019467Y018195D03*
X018467Y018195D03*
X017467Y018195D03*
X016467Y018195D03*
X015467Y018195D03*
X015467Y019196D03*
X016467Y019196D03*
X017467Y019196D03*
X018467Y019196D03*
X019467Y019196D03*
X020467Y019196D03*
X021467Y019196D03*
X022467Y019196D03*
X022468Y020182D03*
X021468Y020182D03*
X020468Y020182D03*
X019468Y020182D03*
X018468Y020182D03*
X017468Y020182D03*
X016468Y020182D03*
X015468Y020182D03*
X015470Y021189D03*
X016470Y021189D03*
X017470Y021189D03*
X018470Y021189D03*
X019470Y021189D03*
X020470Y021189D03*
X021470Y021189D03*
X022470Y021189D03*
X019471Y015185D03*
X018471Y015185D03*
X017471Y015185D03*
X016471Y015185D03*
X015471Y015185D03*
D14*
X015456Y014862D02*
X015456Y014562D01*
X016465Y014573D02*
X016465Y014873D01*
X017469Y014879D02*
X017469Y014579D01*
X018474Y014569D02*
X018474Y014869D01*
X019446Y014863D02*
X019446Y014563D01*
X020468Y014563D02*
X020468Y014863D01*
X020472Y021486D02*
X020472Y021786D01*
X019474Y021780D02*
X019474Y021480D01*
X018470Y021486D02*
X018470Y021786D01*
X017483Y021786D02*
X017483Y021486D01*
X016477Y021486D02*
X016477Y021786D01*
X015470Y021779D02*
X015470Y021479D01*
D15*
X015470Y021429D03*
X015470Y021829D03*
X016477Y021836D03*
X016477Y021436D03*
X017483Y021436D03*
X017483Y021836D03*
X018470Y021836D03*
X018470Y021436D03*
X019474Y021430D03*
X019474Y021830D03*
X020472Y021836D03*
X020472Y021436D03*
X020468Y014913D03*
X020468Y014513D03*
X019446Y014513D03*
X019446Y014913D03*
X018474Y014919D03*
X018474Y014519D03*
X017469Y014529D03*
X017469Y014929D03*
X016465Y014923D03*
X016465Y014523D03*
X015456Y014512D03*
X015456Y014912D03*
D16*
X015471Y014927D01*
X015471Y015185D01*
X015971Y014982D02*
X015928Y014880D01*
X015876Y014827D01*
X015876Y014716D01*
X015871Y014711D01*
X015876Y014707D01*
X015876Y014351D01*
X015947Y014178D01*
X015947Y013343D01*
X015872Y013163D01*
X015735Y013025D01*
X015554Y012950D01*
X015360Y012950D01*
X015179Y013025D01*
X015042Y013163D01*
X014967Y013343D01*
X014967Y014178D01*
X015036Y014343D01*
X015036Y014707D01*
X015040Y014711D01*
X015036Y014716D01*
X015036Y014857D01*
X015013Y014880D01*
X014931Y015078D01*
X014931Y015293D01*
X015013Y015491D01*
X015165Y015643D01*
X015280Y015691D01*
X015161Y015741D01*
X015009Y015893D01*
X014927Y016091D01*
X014927Y016306D01*
X015009Y016504D01*
X015161Y016656D01*
X015257Y016696D01*
X015161Y016736D01*
X015009Y016888D01*
X014927Y017086D01*
X014927Y017301D01*
X015009Y017499D01*
X015161Y017651D01*
X015264Y017694D01*
X015161Y017737D01*
X015009Y017889D01*
X014927Y018087D01*
X014927Y018302D01*
X015009Y018500D01*
X015161Y018652D01*
X015265Y018695D01*
X015161Y018738D01*
X015009Y018890D01*
X014927Y019089D01*
X014927Y019303D01*
X015009Y019502D01*
X015161Y019654D01*
X015246Y019689D01*
X015162Y019724D01*
X015010Y019876D01*
X014928Y020075D01*
X014928Y020289D01*
X015010Y020488D01*
X015162Y020640D01*
X015273Y020686D01*
X015164Y020731D01*
X015012Y020883D01*
X014930Y021081D01*
X014930Y021296D01*
X015012Y021494D01*
X015050Y021532D01*
X015050Y021625D01*
X015054Y021629D01*
X015050Y021634D01*
X015050Y022025D01*
X015111Y022086D01*
X015059Y022139D01*
X014984Y022319D01*
X014984Y023154D01*
X015059Y023334D01*
X015196Y023472D01*
X015236Y023488D01*
X014881Y023488D01*
X014881Y022016D01*
X014886Y022011D01*
X014886Y021983D01*
X014899Y021958D01*
X014886Y021915D01*
X014886Y014390D01*
X014882Y014386D01*
X014882Y012859D01*
X016085Y012861D01*
X016085Y013020D01*
X016042Y013063D01*
X015967Y013243D01*
X015967Y014078D01*
X016042Y014258D01*
X016078Y014294D01*
X016045Y014328D01*
X016045Y014718D01*
X016049Y014723D01*
X016045Y014728D01*
X016045Y014848D01*
X016013Y014880D01*
X015971Y014982D01*
X015963Y014964D02*
X015978Y014964D01*
X016027Y014865D02*
X015914Y014865D01*
X015876Y014767D02*
X016045Y014767D01*
X016045Y014668D02*
X015876Y014668D01*
X015876Y014570D02*
X016045Y014570D01*
X016045Y014471D02*
X015876Y014471D01*
X015876Y014373D02*
X016045Y014373D01*
X016058Y014274D02*
X015907Y014274D01*
X015947Y014176D02*
X016007Y014176D01*
X015967Y014077D02*
X015947Y014077D01*
X015947Y013979D02*
X015967Y013979D01*
X015967Y013880D02*
X015947Y013880D01*
X015947Y013782D02*
X015967Y013782D01*
X015967Y013683D02*
X015947Y013683D01*
X015947Y013585D02*
X015967Y013585D01*
X015967Y013486D02*
X015947Y013486D01*
X015947Y013388D02*
X015967Y013388D01*
X015967Y013289D02*
X015925Y013289D01*
X015884Y013191D02*
X015989Y013191D01*
X016030Y013092D02*
X015801Y013092D01*
X015658Y012994D02*
X016085Y012994D01*
X016085Y012895D02*
X014882Y012895D01*
X014882Y012994D02*
X015256Y012994D01*
X015113Y013092D02*
X014882Y013092D01*
X014882Y013191D02*
X015030Y013191D01*
X014989Y013289D02*
X014882Y013289D01*
X014882Y013388D02*
X014967Y013388D01*
X014967Y013486D02*
X014882Y013486D01*
X014882Y013585D02*
X014967Y013585D01*
X014967Y013683D02*
X014882Y013683D01*
X014882Y013782D02*
X014967Y013782D01*
X014967Y013880D02*
X014882Y013880D01*
X014882Y013979D02*
X014967Y013979D01*
X014967Y014077D02*
X014882Y014077D01*
X014882Y014176D02*
X014967Y014176D01*
X015007Y014274D02*
X014882Y014274D01*
X014882Y014373D02*
X015036Y014373D01*
X015036Y014471D02*
X014886Y014471D01*
X014886Y014570D02*
X015036Y014570D01*
X015036Y014668D02*
X014886Y014668D01*
X014886Y014767D02*
X015036Y014767D01*
X015027Y014865D02*
X014886Y014865D01*
X014886Y014964D02*
X014978Y014964D01*
X014937Y015062D02*
X014886Y015062D01*
X014886Y015161D02*
X014931Y015161D01*
X014931Y015259D02*
X014886Y015259D01*
X014886Y015358D02*
X014957Y015358D01*
X014998Y015456D02*
X014886Y015456D01*
X014886Y015555D02*
X015076Y015555D01*
X015188Y015653D02*
X014886Y015653D01*
X014886Y015752D02*
X015150Y015752D01*
X015052Y015850D02*
X014886Y015850D01*
X014886Y015949D02*
X014986Y015949D01*
X014945Y016047D02*
X014886Y016047D01*
X014886Y016146D02*
X014927Y016146D01*
X014927Y016244D02*
X014886Y016244D01*
X014886Y016343D02*
X014942Y016343D01*
X014983Y016441D02*
X014886Y016441D01*
X014886Y016540D02*
X015044Y016540D01*
X015143Y016638D02*
X014886Y016638D01*
X014886Y016737D02*
X015160Y016737D01*
X015061Y016835D02*
X014886Y016835D01*
X014886Y016934D02*
X014990Y016934D01*
X014949Y017032D02*
X014886Y017032D01*
X014886Y017131D02*
X014927Y017131D01*
X014927Y017229D02*
X014886Y017229D01*
X014886Y017328D02*
X014938Y017328D01*
X014978Y017426D02*
X014886Y017426D01*
X014886Y017525D02*
X015034Y017525D01*
X015132Y017623D02*
X014886Y017623D01*
X014886Y017722D02*
X015198Y017722D01*
X015078Y017820D02*
X014886Y017820D01*
X014886Y017919D02*
X014997Y017919D01*
X014956Y018017D02*
X014886Y018017D01*
X014886Y018116D02*
X014927Y018116D01*
X014927Y018214D02*
X014886Y018214D01*
X014886Y018313D02*
X014931Y018313D01*
X014972Y018411D02*
X014886Y018411D01*
X014886Y018510D02*
X015018Y018510D01*
X015117Y018608D02*
X014886Y018608D01*
X014886Y018707D02*
X015237Y018707D01*
X015094Y018805D02*
X014886Y018805D01*
X014886Y018904D02*
X015003Y018904D01*
X014962Y019002D02*
X014886Y019002D01*
X014886Y019101D02*
X014927Y019101D01*
X014927Y019199D02*
X014886Y019199D01*
X014886Y019298D02*
X014927Y019298D01*
X014965Y019396D02*
X014886Y019396D01*
X014886Y019495D02*
X015006Y019495D01*
X015100Y019593D02*
X014886Y019593D01*
X014886Y019692D02*
X015241Y019692D01*
X015096Y019790D02*
X014886Y019790D01*
X014886Y019889D02*
X015005Y019889D01*
X014964Y019987D02*
X014886Y019987D01*
X014886Y020086D02*
X014928Y020086D01*
X014928Y020184D02*
X014886Y020184D01*
X014886Y020283D02*
X014928Y020283D01*
X014966Y020381D02*
X014886Y020381D01*
X014886Y020480D02*
X015007Y020480D01*
X015100Y020578D02*
X014886Y020578D01*
X014886Y020677D02*
X015251Y020677D01*
X015119Y020775D02*
X014886Y020775D01*
X014886Y020874D02*
X015021Y020874D01*
X014975Y020972D02*
X014886Y020972D01*
X014886Y021071D02*
X014934Y021071D01*
X014930Y021169D02*
X014886Y021169D01*
X014886Y021268D02*
X014930Y021268D01*
X014959Y021366D02*
X014886Y021366D01*
X014886Y021465D02*
X014999Y021465D01*
X015050Y021563D02*
X014886Y021563D01*
X014886Y021662D02*
X015050Y021662D01*
X015050Y021760D02*
X014886Y021760D01*
X014886Y021859D02*
X015050Y021859D01*
X015050Y021957D02*
X014899Y021957D01*
X014881Y022056D02*
X015080Y022056D01*
X015052Y022154D02*
X014881Y022154D01*
X014881Y022253D02*
X015012Y022253D01*
X014984Y022351D02*
X014881Y022351D01*
X014881Y022450D02*
X014984Y022450D01*
X014984Y022548D02*
X014881Y022548D01*
X014881Y022647D02*
X014984Y022647D01*
X014984Y022745D02*
X014881Y022745D01*
X014881Y022844D02*
X014984Y022844D01*
X014984Y022942D02*
X014881Y022942D01*
X014881Y023041D02*
X014984Y023041D01*
X014984Y023139D02*
X014881Y023139D01*
X014881Y023238D02*
X015019Y023238D01*
X015061Y023336D02*
X014881Y023336D01*
X014881Y023435D02*
X015159Y023435D01*
X015712Y023488D02*
X016113Y023488D01*
X016113Y023288D01*
X016059Y023234D01*
X015984Y023054D01*
X015984Y022219D01*
X016059Y022039D01*
X016061Y022036D01*
X016057Y022031D01*
X016057Y021641D01*
X016061Y021636D01*
X016057Y021631D01*
X016057Y021539D01*
X016012Y021494D01*
X015970Y021392D01*
X015927Y021494D01*
X015890Y021532D01*
X015890Y021625D01*
X015885Y021629D01*
X015890Y021634D01*
X015890Y022025D01*
X015846Y022068D01*
X015846Y022096D01*
X015889Y022139D01*
X015964Y022319D01*
X015964Y023154D01*
X015889Y023334D01*
X015752Y023472D01*
X015712Y023488D01*
X015789Y023435D02*
X016113Y023435D01*
X016113Y023336D02*
X015887Y023336D01*
X015929Y023238D02*
X016062Y023238D01*
X016019Y023139D02*
X015964Y023139D01*
X015964Y023041D02*
X015984Y023041D01*
X015984Y022942D02*
X015964Y022942D01*
X015964Y022844D02*
X015984Y022844D01*
X015984Y022745D02*
X015964Y022745D01*
X015964Y022647D02*
X015984Y022647D01*
X015984Y022548D02*
X015964Y022548D01*
X015964Y022450D02*
X015984Y022450D01*
X015984Y022351D02*
X015964Y022351D01*
X015984Y022253D02*
X015936Y022253D01*
X015896Y022154D02*
X016011Y022154D01*
X016052Y022056D02*
X015859Y022056D01*
X015890Y021957D02*
X016057Y021957D01*
X016057Y021859D02*
X015890Y021859D01*
X015890Y021760D02*
X016057Y021760D01*
X016057Y021662D02*
X015890Y021662D01*
X015890Y021563D02*
X016057Y021563D01*
X015999Y021465D02*
X015940Y021465D01*
X016477Y021436D02*
X016477Y021196D01*
X016470Y021189D01*
X016970Y021392D02*
X016927Y021494D01*
X016897Y021525D01*
X016897Y021631D01*
X016892Y021636D01*
X016897Y021641D01*
X016897Y022031D01*
X016889Y022039D01*
X016889Y022039D01*
X016964Y022219D01*
X016964Y023054D01*
X016889Y023234D01*
X016846Y023277D01*
X016846Y023488D01*
X017235Y023488D01*
X017196Y023472D01*
X017059Y023334D01*
X016984Y023154D01*
X016984Y022319D01*
X017059Y022139D01*
X017113Y022085D01*
X017113Y022082D01*
X017063Y022031D01*
X017063Y021641D01*
X017067Y021636D01*
X017063Y021631D01*
X017063Y021545D01*
X017012Y021494D01*
X016970Y021392D01*
X016940Y021465D02*
X016999Y021465D01*
X017063Y021563D02*
X016897Y021563D01*
X016897Y021662D02*
X017063Y021662D01*
X017063Y021760D02*
X016897Y021760D01*
X016897Y021859D02*
X017063Y021859D01*
X017063Y021957D02*
X016897Y021957D01*
X016896Y022056D02*
X017087Y022056D01*
X017052Y022154D02*
X016937Y022154D01*
X016964Y022253D02*
X017012Y022253D01*
X016984Y022351D02*
X016964Y022351D01*
X016964Y022450D02*
X016984Y022450D01*
X016984Y022548D02*
X016964Y022548D01*
X016964Y022647D02*
X016984Y022647D01*
X016984Y022745D02*
X016964Y022745D01*
X016964Y022844D02*
X016984Y022844D01*
X016984Y022942D02*
X016964Y022942D01*
X016964Y023041D02*
X016984Y023041D01*
X016984Y023139D02*
X016929Y023139D01*
X016886Y023238D02*
X017019Y023238D01*
X017061Y023336D02*
X016846Y023336D01*
X016846Y023435D02*
X017159Y023435D01*
X017713Y023488D02*
X018113Y023488D01*
X018113Y023288D01*
X018059Y023234D01*
X017984Y023054D01*
X017984Y022219D01*
X018058Y022040D01*
X018050Y022031D01*
X018050Y021641D01*
X018054Y021636D01*
X018050Y021631D01*
X018050Y021532D01*
X018012Y021494D01*
X017970Y021392D01*
X017927Y021494D01*
X017903Y021519D01*
X017903Y021631D01*
X017898Y021636D01*
X017903Y021641D01*
X017903Y022031D01*
X017846Y022088D01*
X017846Y022096D01*
X017889Y022139D01*
X017964Y022319D01*
X017964Y023154D01*
X017889Y023334D01*
X017752Y023472D01*
X017713Y023488D01*
X017789Y023435D02*
X018113Y023435D01*
X018113Y023336D02*
X017887Y023336D01*
X017929Y023238D02*
X018062Y023238D01*
X018019Y023139D02*
X017964Y023139D01*
X017964Y023041D02*
X017984Y023041D01*
X017984Y022942D02*
X017964Y022942D01*
X017964Y022844D02*
X017984Y022844D01*
X017984Y022745D02*
X017964Y022745D01*
X017964Y022647D02*
X017984Y022647D01*
X017984Y022548D02*
X017964Y022548D01*
X017964Y022450D02*
X017984Y022450D01*
X017984Y022351D02*
X017964Y022351D01*
X017984Y022253D02*
X017936Y022253D01*
X017896Y022154D02*
X018011Y022154D01*
X018052Y022056D02*
X017878Y022056D01*
X017903Y021957D02*
X018050Y021957D01*
X018050Y021859D02*
X017903Y021859D01*
X017903Y021760D02*
X018050Y021760D01*
X018050Y021662D02*
X017903Y021662D01*
X017903Y021563D02*
X018050Y021563D01*
X017999Y021465D02*
X017940Y021465D01*
X017483Y021436D02*
X017483Y021202D01*
X017470Y021189D01*
X017970Y020985D02*
X017927Y020883D01*
X017775Y020731D01*
X017665Y020685D01*
X017774Y020640D01*
X017926Y020488D01*
X017968Y020386D01*
X018010Y020488D01*
X018162Y020640D01*
X018273Y020686D01*
X018164Y020731D01*
X018012Y020883D01*
X017970Y020985D01*
X017975Y020972D02*
X017964Y020972D01*
X017918Y020874D02*
X018021Y020874D01*
X018119Y020775D02*
X017820Y020775D01*
X017685Y020677D02*
X018251Y020677D01*
X018100Y020578D02*
X017836Y020578D01*
X017929Y020480D02*
X018007Y020480D01*
X017968Y019978D02*
X017926Y019876D01*
X017774Y019724D01*
X017688Y019689D01*
X017772Y019654D01*
X017924Y019502D01*
X017967Y019400D01*
X018009Y019502D01*
X018161Y019654D01*
X018246Y019689D01*
X018162Y019724D01*
X018010Y019876D01*
X017968Y019978D01*
X017931Y019889D02*
X018005Y019889D01*
X018096Y019790D02*
X017840Y019790D01*
X017695Y019692D02*
X018241Y019692D01*
X018100Y019593D02*
X017833Y019593D01*
X017927Y019495D02*
X018006Y019495D01*
X017967Y018992D02*
X017924Y018890D01*
X017772Y018738D01*
X017669Y018695D01*
X017773Y018652D01*
X017925Y018500D01*
X017967Y018398D01*
X018009Y018500D01*
X018161Y018652D01*
X018265Y018695D01*
X018161Y018738D01*
X018009Y018890D01*
X017967Y018992D01*
X017930Y018904D02*
X018003Y018904D01*
X018094Y018805D02*
X017839Y018805D01*
X017696Y018707D02*
X018237Y018707D01*
X018117Y018608D02*
X017817Y018608D01*
X017916Y018510D02*
X018018Y018510D01*
X017972Y018411D02*
X017962Y018411D01*
X017967Y017991D02*
X018009Y017889D01*
X018161Y017737D01*
X018264Y017694D01*
X018161Y017651D01*
X018009Y017499D01*
X017967Y017397D01*
X017924Y017499D01*
X017772Y017651D01*
X017670Y017694D01*
X017773Y017737D01*
X017925Y017889D01*
X017967Y017991D01*
X017937Y017919D02*
X017997Y017919D01*
X018078Y017820D02*
X017856Y017820D01*
X017736Y017722D02*
X018198Y017722D01*
X018132Y017623D02*
X017801Y017623D01*
X017899Y017525D02*
X018034Y017525D01*
X017978Y017426D02*
X017955Y017426D01*
X017967Y016990D02*
X017924Y016888D01*
X017772Y016736D01*
X017677Y016696D01*
X017773Y016656D01*
X017925Y016504D01*
X017967Y016402D01*
X018009Y016504D01*
X018161Y016656D01*
X018257Y016696D01*
X018161Y016736D01*
X018009Y016888D01*
X017967Y016990D01*
X017943Y016934D02*
X017990Y016934D01*
X018061Y016835D02*
X017872Y016835D01*
X017773Y016737D02*
X018160Y016737D01*
X018143Y016638D02*
X017791Y016638D01*
X017890Y016540D02*
X018044Y016540D01*
X017983Y016441D02*
X017951Y016441D01*
X017967Y015995D02*
X017925Y015893D01*
X017773Y015741D01*
X017657Y015693D01*
X017776Y015643D01*
X017928Y015491D01*
X017971Y015389D01*
X018013Y015491D01*
X018165Y015643D01*
X018280Y015691D01*
X018161Y015741D01*
X018009Y015893D01*
X017967Y015995D01*
X017948Y015949D02*
X017986Y015949D01*
X018052Y015850D02*
X017882Y015850D01*
X017784Y015752D02*
X018150Y015752D01*
X018188Y015653D02*
X017753Y015653D01*
X017865Y015555D02*
X018076Y015555D01*
X017998Y015456D02*
X017943Y015456D01*
X017471Y015185D02*
X017469Y015183D01*
X017469Y014929D01*
X017469Y014529D02*
X017452Y014512D01*
X017452Y014316D01*
X017457Y014240D01*
X017457Y013760D01*
X017377Y013749D01*
X016967Y013782D02*
X016947Y013782D01*
X016947Y013880D02*
X016967Y013880D01*
X016967Y013979D02*
X016947Y013979D01*
X016947Y014077D02*
X016967Y014077D01*
X016947Y014078D02*
X016872Y014258D01*
X016844Y014287D01*
X016885Y014328D01*
X016885Y014718D01*
X016880Y014723D01*
X016885Y014728D01*
X016885Y014836D01*
X016928Y014880D01*
X016971Y014982D01*
X017013Y014880D01*
X017049Y014844D01*
X017049Y014734D01*
X017053Y014729D01*
X017049Y014724D01*
X017049Y014365D01*
X017042Y014358D01*
X016967Y014178D01*
X016967Y013343D01*
X017042Y013163D01*
X017179Y013025D01*
X017360Y012950D01*
X017554Y012950D01*
X017735Y013025D01*
X017872Y013163D01*
X017947Y013343D01*
X017947Y014178D01*
X017884Y014329D01*
X017889Y014334D01*
X017889Y014724D01*
X017884Y014729D01*
X017889Y014734D01*
X017889Y014840D01*
X017928Y014880D01*
X017971Y014982D01*
X018013Y014880D01*
X018054Y014839D01*
X018054Y014723D01*
X018058Y014718D01*
X018054Y014714D01*
X018054Y014323D01*
X018080Y014297D01*
X018042Y014258D01*
X017967Y014078D01*
X017967Y013243D01*
X018042Y013063D01*
X018085Y013020D01*
X018085Y012864D01*
X016818Y012862D01*
X016818Y013009D01*
X016872Y013063D01*
X016947Y013243D01*
X016947Y014078D01*
X016967Y014176D02*
X016907Y014176D01*
X016856Y014274D02*
X017007Y014274D01*
X017049Y014373D02*
X016885Y014373D01*
X016885Y014471D02*
X017049Y014471D01*
X017049Y014570D02*
X016885Y014570D01*
X016885Y014668D02*
X017049Y014668D01*
X017049Y014767D02*
X016885Y014767D01*
X016914Y014865D02*
X017027Y014865D01*
X016978Y014964D02*
X016963Y014964D01*
X016971Y015389D02*
X016928Y015491D01*
X016776Y015643D01*
X016657Y015693D01*
X016773Y015741D01*
X016925Y015893D01*
X016967Y015995D01*
X017009Y015893D01*
X017161Y015741D01*
X017280Y015691D01*
X017165Y015643D01*
X017013Y015491D01*
X016971Y015389D01*
X016943Y015456D02*
X016998Y015456D01*
X017076Y015555D02*
X016865Y015555D01*
X016753Y015653D02*
X017188Y015653D01*
X017150Y015752D02*
X016784Y015752D01*
X016882Y015850D02*
X017052Y015850D01*
X016986Y015949D02*
X016948Y015949D01*
X016967Y016402D02*
X016925Y016504D01*
X016773Y016656D01*
X016677Y016696D01*
X016772Y016736D01*
X016924Y016888D01*
X016967Y016990D01*
X017009Y016888D01*
X017161Y016736D01*
X017257Y016696D01*
X017161Y016656D01*
X017009Y016504D01*
X016967Y016402D01*
X016951Y016441D02*
X016983Y016441D01*
X017044Y016540D02*
X016890Y016540D01*
X016791Y016638D02*
X017143Y016638D01*
X017160Y016737D02*
X016773Y016737D01*
X016872Y016835D02*
X017061Y016835D01*
X016990Y016934D02*
X016943Y016934D01*
X016967Y017397D02*
X016924Y017499D01*
X016772Y017651D01*
X016670Y017694D01*
X016773Y017737D01*
X016925Y017889D01*
X016967Y017991D01*
X017009Y017889D01*
X017161Y017737D01*
X017264Y017694D01*
X017161Y017651D01*
X017009Y017499D01*
X016967Y017397D01*
X016955Y017426D02*
X016978Y017426D01*
X017034Y017525D02*
X016899Y017525D01*
X016801Y017623D02*
X017132Y017623D01*
X017198Y017722D02*
X016736Y017722D01*
X016856Y017820D02*
X017078Y017820D01*
X016997Y017919D02*
X016937Y017919D01*
X016967Y018398D02*
X016925Y018500D01*
X016773Y018652D01*
X016669Y018695D01*
X016772Y018738D01*
X016924Y018890D01*
X016967Y018992D01*
X017009Y018890D01*
X017161Y018738D01*
X017265Y018695D01*
X017161Y018652D01*
X017009Y018500D01*
X016967Y018398D01*
X016962Y018411D02*
X016972Y018411D01*
X017018Y018510D02*
X016916Y018510D01*
X016817Y018608D02*
X017117Y018608D01*
X017237Y018707D02*
X016696Y018707D01*
X016839Y018805D02*
X017094Y018805D01*
X017003Y018904D02*
X016930Y018904D01*
X016967Y019400D02*
X016924Y019502D01*
X016772Y019654D01*
X016688Y019689D01*
X016774Y019724D01*
X016926Y019876D01*
X016968Y019978D01*
X017010Y019876D01*
X017162Y019724D01*
X017246Y019689D01*
X017161Y019654D01*
X017009Y019502D01*
X016967Y019400D01*
X017006Y019495D02*
X016927Y019495D01*
X016833Y019593D02*
X017100Y019593D01*
X017241Y019692D02*
X016695Y019692D01*
X016840Y019790D02*
X017096Y019790D01*
X017005Y019889D02*
X016931Y019889D01*
X016968Y020386D02*
X016926Y020488D01*
X016774Y020640D01*
X016665Y020685D01*
X016775Y020731D01*
X016927Y020883D01*
X016970Y020985D01*
X017012Y020883D01*
X017164Y020731D01*
X017273Y020686D01*
X017162Y020640D01*
X017010Y020488D01*
X016968Y020386D01*
X016929Y020480D02*
X017007Y020480D01*
X017100Y020578D02*
X016836Y020578D01*
X016685Y020677D02*
X017251Y020677D01*
X017119Y020775D02*
X016820Y020775D01*
X016918Y020874D02*
X017021Y020874D01*
X016975Y020972D02*
X016964Y020972D01*
X016273Y020686D02*
X016162Y020640D01*
X016010Y020488D01*
X015968Y020386D01*
X015926Y020488D01*
X015774Y020640D01*
X015665Y020685D01*
X015775Y020731D01*
X015927Y020883D01*
X015970Y020985D01*
X016012Y020883D01*
X016164Y020731D01*
X016273Y020686D01*
X016251Y020677D02*
X015685Y020677D01*
X015820Y020775D02*
X016119Y020775D01*
X016021Y020874D02*
X015918Y020874D01*
X015964Y020972D02*
X015975Y020972D01*
X016100Y020578D02*
X015836Y020578D01*
X015929Y020480D02*
X016007Y020480D01*
X015968Y019978D02*
X015926Y019876D01*
X015774Y019724D01*
X015688Y019689D01*
X015772Y019654D01*
X015924Y019502D01*
X015967Y019400D01*
X016009Y019502D01*
X016161Y019654D01*
X016246Y019689D01*
X016162Y019724D01*
X016010Y019876D01*
X015968Y019978D01*
X015931Y019889D02*
X016005Y019889D01*
X016096Y019790D02*
X015840Y019790D01*
X015695Y019692D02*
X016241Y019692D01*
X016100Y019593D02*
X015833Y019593D01*
X015927Y019495D02*
X016006Y019495D01*
X015967Y018992D02*
X015924Y018890D01*
X015772Y018738D01*
X015669Y018695D01*
X015773Y018652D01*
X015925Y018500D01*
X015967Y018398D01*
X016009Y018500D01*
X016161Y018652D01*
X016265Y018695D01*
X016161Y018738D01*
X016009Y018890D01*
X015967Y018992D01*
X015930Y018904D02*
X016003Y018904D01*
X016094Y018805D02*
X015839Y018805D01*
X015696Y018707D02*
X016237Y018707D01*
X016117Y018608D02*
X015817Y018608D01*
X015916Y018510D02*
X016018Y018510D01*
X015972Y018411D02*
X015962Y018411D01*
X015967Y017991D02*
X016009Y017889D01*
X016161Y017737D01*
X016264Y017694D01*
X016161Y017651D01*
X016009Y017499D01*
X015967Y017397D01*
X015924Y017499D01*
X015772Y017651D01*
X015670Y017694D01*
X015773Y017737D01*
X015925Y017889D01*
X015967Y017991D01*
X015937Y017919D02*
X015997Y017919D01*
X016078Y017820D02*
X015856Y017820D01*
X015736Y017722D02*
X016198Y017722D01*
X016132Y017623D02*
X015801Y017623D01*
X015899Y017525D02*
X016034Y017525D01*
X015978Y017426D02*
X015955Y017426D01*
X015967Y016990D02*
X015924Y016888D01*
X015772Y016736D01*
X015677Y016696D01*
X015773Y016656D01*
X015925Y016504D01*
X015967Y016402D01*
X016009Y016504D01*
X016161Y016656D01*
X016257Y016696D01*
X016161Y016736D01*
X016009Y016888D01*
X015967Y016990D01*
X015943Y016934D02*
X015990Y016934D01*
X016061Y016835D02*
X015872Y016835D01*
X015773Y016737D02*
X016160Y016737D01*
X016143Y016638D02*
X015791Y016638D01*
X015890Y016540D02*
X016044Y016540D01*
X015983Y016441D02*
X015951Y016441D01*
X015967Y015995D02*
X015925Y015893D01*
X015773Y015741D01*
X015657Y015693D01*
X015776Y015643D01*
X015928Y015491D01*
X015971Y015389D01*
X016013Y015491D01*
X016165Y015643D01*
X016280Y015691D01*
X016161Y015741D01*
X016009Y015893D01*
X015967Y015995D01*
X015948Y015949D02*
X015986Y015949D01*
X016052Y015850D02*
X015882Y015850D01*
X015784Y015752D02*
X016150Y015752D01*
X016188Y015653D02*
X015753Y015653D01*
X015865Y015555D02*
X016076Y015555D01*
X015998Y015456D02*
X015943Y015456D01*
X016471Y015185D02*
X016471Y014929D01*
X016465Y014923D01*
X016465Y014523D02*
X016457Y014515D01*
X016457Y013660D01*
X016377Y013634D01*
X016452Y013016D01*
X016818Y012994D02*
X017256Y012994D01*
X017113Y013092D02*
X016884Y013092D01*
X016925Y013191D02*
X017030Y013191D01*
X016989Y013289D02*
X016947Y013289D01*
X016947Y013388D02*
X016967Y013388D01*
X016967Y013486D02*
X016947Y013486D01*
X016947Y013585D02*
X016967Y013585D01*
X016967Y013683D02*
X016947Y013683D01*
X017947Y013683D02*
X017967Y013683D01*
X017967Y013585D02*
X017947Y013585D01*
X017947Y013486D02*
X017967Y013486D01*
X017967Y013388D02*
X017947Y013388D01*
X017925Y013289D02*
X017967Y013289D01*
X017989Y013191D02*
X017884Y013191D01*
X017801Y013092D02*
X018030Y013092D01*
X018085Y012994D02*
X017658Y012994D01*
X018085Y012895D02*
X016818Y012895D01*
X017947Y013782D02*
X017967Y013782D01*
X017967Y013880D02*
X017947Y013880D01*
X017947Y013979D02*
X017967Y013979D01*
X017967Y014077D02*
X017947Y014077D01*
X017947Y014176D02*
X018007Y014176D01*
X018058Y014274D02*
X017907Y014274D01*
X017889Y014373D02*
X018054Y014373D01*
X018054Y014471D02*
X017889Y014471D01*
X017889Y014570D02*
X018054Y014570D01*
X018054Y014668D02*
X017889Y014668D01*
X017889Y014767D02*
X018054Y014767D01*
X018027Y014865D02*
X017914Y014865D01*
X017963Y014964D02*
X017978Y014964D01*
X018474Y014919D02*
X018474Y015183D01*
X018471Y015185D01*
X018971Y014982D02*
X019013Y014880D01*
X019026Y014867D01*
X019026Y014718D01*
X019030Y014713D01*
X019026Y014708D01*
X019026Y014319D01*
X018967Y014178D01*
X018967Y013343D01*
X019042Y013163D01*
X019179Y013025D01*
X019360Y012950D01*
X019554Y012950D01*
X019735Y013025D01*
X019872Y013163D01*
X019947Y013343D01*
X019947Y014178D01*
X019872Y014358D01*
X019866Y014365D01*
X019866Y014708D01*
X019861Y014713D01*
X019866Y014718D01*
X019866Y014817D01*
X019928Y014880D01*
X019971Y014982D01*
X020013Y014880D01*
X020048Y014844D01*
X020048Y014718D01*
X020053Y014713D01*
X020048Y014708D01*
X020048Y014318D01*
X020075Y014291D01*
X020042Y014258D01*
X019967Y014078D01*
X019967Y013243D01*
X020042Y013063D01*
X020085Y013020D01*
X020085Y012869D01*
X020055Y012867D01*
X019984Y012867D01*
X019984Y012867D01*
X018818Y012865D01*
X018818Y013009D01*
X018872Y013063D01*
X018947Y013243D01*
X018947Y014078D01*
X018872Y014258D01*
X018850Y014280D01*
X018894Y014323D01*
X018894Y014714D01*
X018889Y014718D01*
X018894Y014723D01*
X018894Y014845D01*
X018928Y014880D01*
X018971Y014982D01*
X018963Y014964D02*
X018978Y014964D01*
X019026Y014865D02*
X018914Y014865D01*
X018894Y014767D02*
X019026Y014767D01*
X019026Y014668D02*
X018894Y014668D01*
X018894Y014570D02*
X019026Y014570D01*
X019026Y014471D02*
X018894Y014471D01*
X018894Y014373D02*
X019026Y014373D01*
X019007Y014274D02*
X018856Y014274D01*
X018907Y014176D02*
X018967Y014176D01*
X018967Y014077D02*
X018947Y014077D01*
X018947Y013979D02*
X018967Y013979D01*
X018967Y013880D02*
X018947Y013880D01*
X018947Y013782D02*
X018967Y013782D01*
X018967Y013683D02*
X018947Y013683D01*
X018947Y013585D02*
X018967Y013585D01*
X018967Y013486D02*
X018947Y013486D01*
X018947Y013388D02*
X018967Y013388D01*
X018947Y013289D02*
X018989Y013289D01*
X019030Y013191D02*
X018925Y013191D01*
X018884Y013092D02*
X019113Y013092D01*
X019256Y012994D02*
X018818Y012994D01*
X018818Y012895D02*
X020085Y012895D01*
X020085Y012994D02*
X019658Y012994D01*
X019801Y013092D02*
X020030Y013092D01*
X019989Y013191D02*
X019884Y013191D01*
X019925Y013289D02*
X019967Y013289D01*
X019967Y013388D02*
X019947Y013388D01*
X019947Y013486D02*
X019967Y013486D01*
X019967Y013585D02*
X019947Y013585D01*
X019947Y013683D02*
X019967Y013683D01*
X019967Y013782D02*
X019947Y013782D01*
X019947Y013880D02*
X019967Y013880D01*
X019967Y013979D02*
X019947Y013979D01*
X019947Y014077D02*
X019967Y014077D01*
X019947Y014176D02*
X020007Y014176D01*
X020058Y014274D02*
X019907Y014274D01*
X019866Y014373D02*
X020048Y014373D01*
X020048Y014471D02*
X019866Y014471D01*
X019866Y014570D02*
X020048Y014570D01*
X020048Y014668D02*
X019866Y014668D01*
X019866Y014767D02*
X020048Y014767D01*
X020027Y014865D02*
X019914Y014865D01*
X019963Y014964D02*
X019978Y014964D01*
X019446Y014913D02*
X019446Y015161D01*
X019471Y015185D01*
X019971Y015389D02*
X019928Y015491D01*
X019776Y015643D01*
X019657Y015693D01*
X019773Y015741D01*
X019925Y015893D01*
X019967Y015995D01*
X020009Y015893D01*
X020161Y015741D01*
X020280Y015691D01*
X020165Y015643D01*
X020013Y015491D01*
X019971Y015389D01*
X019943Y015456D02*
X019998Y015456D01*
X020076Y015555D02*
X019865Y015555D01*
X019753Y015653D02*
X020188Y015653D01*
X020150Y015752D02*
X019784Y015752D01*
X019882Y015850D02*
X020052Y015850D01*
X019986Y015949D02*
X019948Y015949D01*
X019967Y016402D02*
X019925Y016504D01*
X019773Y016656D01*
X019677Y016696D01*
X019772Y016736D01*
X019924Y016888D01*
X019967Y016990D01*
X020009Y016888D01*
X020161Y016736D01*
X020257Y016696D01*
X020161Y016656D01*
X020009Y016504D01*
X019967Y016402D01*
X019951Y016441D02*
X019983Y016441D01*
X020044Y016540D02*
X019890Y016540D01*
X019791Y016638D02*
X020143Y016638D01*
X020160Y016737D02*
X019773Y016737D01*
X019872Y016835D02*
X020061Y016835D01*
X019990Y016934D02*
X019943Y016934D01*
X019967Y017397D02*
X019924Y017499D01*
X019772Y017651D01*
X019670Y017694D01*
X019773Y017737D01*
X019925Y017889D01*
X019967Y017991D01*
X020009Y017889D01*
X020161Y017737D01*
X020264Y017694D01*
X020161Y017651D01*
X020009Y017499D01*
X019967Y017397D01*
X019955Y017426D02*
X019978Y017426D01*
X020034Y017525D02*
X019899Y017525D01*
X019801Y017623D02*
X020132Y017623D01*
X020198Y017722D02*
X019736Y017722D01*
X019856Y017820D02*
X020078Y017820D01*
X019997Y017919D02*
X019937Y017919D01*
X019967Y018398D02*
X019925Y018500D01*
X019773Y018652D01*
X019669Y018695D01*
X019772Y018738D01*
X019924Y018890D01*
X019967Y018992D01*
X020009Y018890D01*
X020161Y018738D01*
X020265Y018695D01*
X020161Y018652D01*
X020009Y018500D01*
X019967Y018398D01*
X019962Y018411D02*
X019972Y018411D01*
X020018Y018510D02*
X019916Y018510D01*
X019817Y018608D02*
X020117Y018608D01*
X020237Y018707D02*
X019696Y018707D01*
X019839Y018805D02*
X020094Y018805D01*
X020003Y018904D02*
X019930Y018904D01*
X019967Y019400D02*
X019924Y019502D01*
X019772Y019654D01*
X019688Y019689D01*
X019774Y019724D01*
X019926Y019876D01*
X019968Y019978D01*
X020010Y019876D01*
X020162Y019724D01*
X020246Y019689D01*
X020161Y019654D01*
X020009Y019502D01*
X019967Y019400D01*
X020006Y019495D02*
X019927Y019495D01*
X019833Y019593D02*
X020100Y019593D01*
X020241Y019692D02*
X019695Y019692D01*
X019840Y019790D02*
X020096Y019790D01*
X020005Y019889D02*
X019931Y019889D01*
X019968Y020386D02*
X019926Y020488D01*
X019774Y020640D01*
X019665Y020685D01*
X019775Y020731D01*
X019927Y020883D01*
X019970Y020985D01*
X020012Y020883D01*
X020164Y020731D01*
X020273Y020686D01*
X020162Y020640D01*
X020010Y020488D01*
X019968Y020386D01*
X019929Y020480D02*
X020007Y020480D01*
X020100Y020578D02*
X019836Y020578D01*
X019685Y020677D02*
X020251Y020677D01*
X020119Y020775D02*
X019820Y020775D01*
X019918Y020874D02*
X020021Y020874D01*
X019975Y020972D02*
X019964Y020972D01*
X019970Y021392D02*
X019927Y021494D01*
X019894Y021528D01*
X019894Y021626D01*
X019889Y021630D01*
X019894Y021635D01*
X019894Y022026D01*
X019846Y022073D01*
X019846Y022096D01*
X019889Y022139D01*
X019964Y022319D01*
X019964Y023154D01*
X019889Y023334D01*
X019752Y023472D01*
X019714Y023488D01*
X019997Y023487D01*
X020004Y023482D01*
X020066Y023487D01*
X020113Y023487D01*
X020113Y023288D01*
X020059Y023234D01*
X019984Y023054D01*
X019984Y022219D01*
X020059Y022039D01*
X020059Y022038D01*
X020052Y022031D01*
X020052Y021640D01*
X020057Y021635D01*
X020052Y021631D01*
X020052Y021535D01*
X020012Y021494D01*
X019970Y021392D01*
X019940Y021465D02*
X019999Y021465D01*
X020052Y021563D02*
X019894Y021563D01*
X019894Y021662D02*
X020052Y021662D01*
X020052Y021760D02*
X019894Y021760D01*
X019894Y021859D02*
X020052Y021859D01*
X020052Y021957D02*
X019894Y021957D01*
X019864Y022056D02*
X020052Y022056D01*
X020011Y022154D02*
X019896Y022154D01*
X019936Y022253D02*
X019984Y022253D01*
X019984Y022351D02*
X019964Y022351D01*
X019964Y022450D02*
X019984Y022450D01*
X019984Y022548D02*
X019964Y022548D01*
X019964Y022647D02*
X019984Y022647D01*
X019984Y022745D02*
X019964Y022745D01*
X019964Y022844D02*
X019984Y022844D01*
X019984Y022942D02*
X019964Y022942D01*
X019964Y023041D02*
X019984Y023041D01*
X019964Y023139D02*
X020019Y023139D01*
X020062Y023238D02*
X019929Y023238D01*
X019887Y023336D02*
X020113Y023336D01*
X020113Y023435D02*
X019789Y023435D01*
X019234Y023488D02*
X019196Y023472D01*
X019059Y023334D01*
X018984Y023154D01*
X018984Y022319D01*
X019059Y022139D01*
X019113Y022085D01*
X019054Y022026D01*
X019054Y021635D01*
X019058Y021630D01*
X019054Y021626D01*
X019054Y021536D01*
X019012Y021494D01*
X018970Y021392D01*
X018927Y021494D01*
X018890Y021532D01*
X018890Y021631D01*
X018885Y021636D01*
X018890Y021641D01*
X018890Y022031D01*
X018886Y022035D01*
X018889Y022039D01*
X018964Y022219D01*
X018964Y023054D01*
X018889Y023234D01*
X018846Y023277D01*
X018846Y023488D01*
X019234Y023488D01*
X019159Y023435D02*
X018846Y023435D01*
X018846Y023336D02*
X019061Y023336D01*
X019019Y023238D02*
X018886Y023238D01*
X018929Y023139D02*
X018984Y023139D01*
X018984Y023041D02*
X018964Y023041D01*
X018964Y022942D02*
X018984Y022942D01*
X018984Y022844D02*
X018964Y022844D01*
X018964Y022745D02*
X018984Y022745D01*
X018984Y022647D02*
X018964Y022647D01*
X018964Y022548D02*
X018984Y022548D01*
X018984Y022450D02*
X018964Y022450D01*
X018964Y022351D02*
X018984Y022351D01*
X018964Y022253D02*
X019012Y022253D01*
X019052Y022154D02*
X018937Y022154D01*
X018896Y022056D02*
X019083Y022056D01*
X019054Y021957D02*
X018890Y021957D01*
X018890Y021859D02*
X019054Y021859D01*
X019054Y021760D02*
X018890Y021760D01*
X018890Y021662D02*
X019054Y021662D01*
X019054Y021563D02*
X018890Y021563D01*
X018940Y021465D02*
X018999Y021465D01*
X019474Y021430D02*
X019474Y021193D01*
X019470Y021189D01*
X018970Y020985D02*
X019012Y020883D01*
X019164Y020731D01*
X019273Y020686D01*
X019162Y020640D01*
X019010Y020488D01*
X018968Y020386D01*
X018926Y020488D01*
X018774Y020640D01*
X018665Y020685D01*
X018775Y020731D01*
X018927Y020883D01*
X018970Y020985D01*
X018975Y020972D02*
X018964Y020972D01*
X018918Y020874D02*
X019021Y020874D01*
X019119Y020775D02*
X018820Y020775D01*
X018685Y020677D02*
X019251Y020677D01*
X019100Y020578D02*
X018836Y020578D01*
X018929Y020480D02*
X019007Y020480D01*
X018968Y019978D02*
X019010Y019876D01*
X019162Y019724D01*
X019246Y019689D01*
X019161Y019654D01*
X019009Y019502D01*
X018967Y019400D01*
X018924Y019502D01*
X018772Y019654D01*
X018688Y019689D01*
X018774Y019724D01*
X018926Y019876D01*
X018968Y019978D01*
X018931Y019889D02*
X019005Y019889D01*
X019096Y019790D02*
X018840Y019790D01*
X018695Y019692D02*
X019241Y019692D01*
X019100Y019593D02*
X018833Y019593D01*
X018927Y019495D02*
X019006Y019495D01*
X018967Y018992D02*
X019009Y018890D01*
X019161Y018738D01*
X019265Y018695D01*
X019161Y018652D01*
X019009Y018500D01*
X018967Y018398D01*
X018925Y018500D01*
X018773Y018652D01*
X018669Y018695D01*
X018772Y018738D01*
X018924Y018890D01*
X018967Y018992D01*
X018930Y018904D02*
X019003Y018904D01*
X019094Y018805D02*
X018839Y018805D01*
X018696Y018707D02*
X019237Y018707D01*
X019117Y018608D02*
X018817Y018608D01*
X018916Y018510D02*
X019018Y018510D01*
X018972Y018411D02*
X018962Y018411D01*
X018967Y017991D02*
X019009Y017889D01*
X019161Y017737D01*
X019264Y017694D01*
X019161Y017651D01*
X019009Y017499D01*
X018967Y017397D01*
X018924Y017499D01*
X018772Y017651D01*
X018670Y017694D01*
X018773Y017737D01*
X018925Y017889D01*
X018967Y017991D01*
X018937Y017919D02*
X018997Y017919D01*
X019078Y017820D02*
X018856Y017820D01*
X018736Y017722D02*
X019198Y017722D01*
X019132Y017623D02*
X018801Y017623D01*
X018899Y017525D02*
X019034Y017525D01*
X018978Y017426D02*
X018955Y017426D01*
X018967Y016990D02*
X019009Y016888D01*
X019161Y016736D01*
X019257Y016696D01*
X019161Y016656D01*
X019009Y016504D01*
X018967Y016402D01*
X018925Y016504D01*
X018773Y016656D01*
X018677Y016696D01*
X018772Y016736D01*
X018924Y016888D01*
X018967Y016990D01*
X018943Y016934D02*
X018990Y016934D01*
X019061Y016835D02*
X018872Y016835D01*
X018773Y016737D02*
X019160Y016737D01*
X019143Y016638D02*
X018791Y016638D01*
X018890Y016540D02*
X019044Y016540D01*
X018983Y016441D02*
X018951Y016441D01*
X018967Y015995D02*
X019009Y015893D01*
X019161Y015741D01*
X019280Y015691D01*
X019165Y015643D01*
X019013Y015491D01*
X018971Y015389D01*
X018928Y015491D01*
X018776Y015643D01*
X018657Y015693D01*
X018773Y015741D01*
X018925Y015893D01*
X018967Y015995D01*
X018948Y015949D02*
X018986Y015949D01*
X019052Y015850D02*
X018882Y015850D01*
X018784Y015752D02*
X019150Y015752D01*
X019188Y015653D02*
X018753Y015653D01*
X018865Y015555D02*
X019076Y015555D01*
X018998Y015456D02*
X018943Y015456D01*
X018474Y014519D02*
X018457Y014502D01*
X018457Y013660D01*
X018377Y013634D01*
X018452Y013016D01*
X019377Y013749D02*
X019457Y013760D01*
X019457Y014502D01*
X019446Y014513D01*
X019452Y014316D02*
X019377Y013749D01*
X020377Y013634D02*
X020452Y013016D01*
X020377Y013634D02*
X020457Y013660D01*
X020457Y014502D01*
X020468Y014513D01*
X020468Y014913D02*
X020468Y015183D01*
X020471Y015185D01*
X020971Y014982D02*
X021013Y014880D01*
X021165Y014728D01*
X021363Y014645D01*
X021535Y014645D01*
X021019Y014642D01*
X020949Y014642D01*
X020948Y014642D01*
X020899Y014592D01*
X020888Y014582D01*
X020888Y014708D01*
X020883Y014713D01*
X020888Y014718D01*
X020888Y014839D01*
X020928Y014880D01*
X020971Y014982D01*
X020963Y014964D02*
X020978Y014964D01*
X021027Y014865D02*
X020914Y014865D01*
X020888Y014767D02*
X021126Y014767D01*
X021309Y014668D02*
X020888Y014668D01*
X020948Y014642D02*
X020948Y014642D01*
X021579Y014646D02*
X022351Y014650D01*
X022165Y014728D01*
X022013Y014880D01*
X021971Y014982D01*
X021928Y014880D01*
X021776Y014728D01*
X021579Y014646D01*
X021632Y014668D02*
X022309Y014668D01*
X022126Y014767D02*
X021815Y014767D01*
X021914Y014865D02*
X022027Y014865D01*
X021978Y014964D02*
X021963Y014964D01*
X021971Y015389D02*
X021928Y015491D01*
X021776Y015643D01*
X021657Y015693D01*
X021773Y015741D01*
X021925Y015893D01*
X021967Y015995D01*
X022009Y015893D01*
X022161Y015741D01*
X022280Y015691D01*
X022165Y015643D01*
X022013Y015491D01*
X021971Y015389D01*
X021943Y015456D02*
X021998Y015456D01*
X022076Y015555D02*
X021865Y015555D01*
X021753Y015653D02*
X022188Y015653D01*
X022150Y015752D02*
X021784Y015752D01*
X021882Y015850D02*
X022052Y015850D01*
X021986Y015949D02*
X021948Y015949D01*
X021967Y016402D02*
X021925Y016504D01*
X021773Y016656D01*
X021677Y016696D01*
X021772Y016736D01*
X021924Y016888D01*
X021967Y016990D01*
X022009Y016888D01*
X022161Y016736D01*
X022257Y016696D01*
X022161Y016656D01*
X022009Y016504D01*
X021967Y016402D01*
X021951Y016441D02*
X021983Y016441D01*
X022044Y016540D02*
X021890Y016540D01*
X021791Y016638D02*
X022143Y016638D01*
X022160Y016737D02*
X021773Y016737D01*
X021872Y016835D02*
X022061Y016835D01*
X021990Y016934D02*
X021943Y016934D01*
X021967Y017397D02*
X021924Y017499D01*
X021772Y017651D01*
X021670Y017694D01*
X021773Y017737D01*
X021925Y017889D01*
X021967Y017991D01*
X022009Y017889D01*
X022161Y017737D01*
X022264Y017694D01*
X022161Y017651D01*
X022009Y017499D01*
X021967Y017397D01*
X021955Y017426D02*
X021978Y017426D01*
X022034Y017525D02*
X021899Y017525D01*
X021801Y017623D02*
X022132Y017623D01*
X022198Y017722D02*
X021736Y017722D01*
X021856Y017820D02*
X022078Y017820D01*
X021997Y017919D02*
X021937Y017919D01*
X021967Y018398D02*
X021925Y018500D01*
X021773Y018652D01*
X021669Y018695D01*
X021772Y018738D01*
X021924Y018890D01*
X021967Y018992D01*
X022009Y018890D01*
X022161Y018738D01*
X022265Y018695D01*
X022161Y018652D01*
X022009Y018500D01*
X021967Y018398D01*
X021962Y018411D02*
X021972Y018411D01*
X022018Y018510D02*
X021916Y018510D01*
X021817Y018608D02*
X022117Y018608D01*
X022237Y018707D02*
X021696Y018707D01*
X021839Y018805D02*
X022094Y018805D01*
X022003Y018904D02*
X021930Y018904D01*
X021967Y019400D02*
X021924Y019502D01*
X021772Y019654D01*
X021688Y019689D01*
X021774Y019724D01*
X021926Y019876D01*
X021968Y019978D01*
X022010Y019876D01*
X022162Y019724D01*
X022246Y019689D01*
X022161Y019654D01*
X022009Y019502D01*
X021967Y019400D01*
X022006Y019495D02*
X021927Y019495D01*
X021833Y019593D02*
X022100Y019593D01*
X022241Y019692D02*
X021695Y019692D01*
X021840Y019790D02*
X022096Y019790D01*
X022005Y019889D02*
X021931Y019889D01*
X021968Y020386D02*
X021926Y020488D01*
X021774Y020640D01*
X021665Y020685D01*
X021775Y020731D01*
X021927Y020883D01*
X021970Y020985D01*
X022012Y020883D01*
X022164Y020731D01*
X022273Y020686D01*
X022162Y020640D01*
X022010Y020488D01*
X021968Y020386D01*
X021929Y020480D02*
X022007Y020480D01*
X022100Y020578D02*
X021836Y020578D01*
X021685Y020677D02*
X022251Y020677D01*
X022119Y020775D02*
X021820Y020775D01*
X021918Y020874D02*
X022021Y020874D01*
X021975Y020972D02*
X021964Y020972D01*
X021970Y021392D02*
X021927Y021494D01*
X021775Y021646D01*
X021577Y021728D01*
X021362Y021728D01*
X021164Y021646D01*
X021012Y021494D01*
X020970Y021392D01*
X020927Y021494D01*
X020892Y021530D01*
X020892Y021631D01*
X020887Y021635D01*
X020892Y021640D01*
X020892Y021824D01*
X020933Y021783D01*
X020934Y021783D01*
X020934Y021782D01*
X021004Y021783D01*
X021074Y021783D01*
X021074Y021783D01*
X022464Y021791D01*
X022591Y021781D01*
X022834Y021703D01*
X023040Y021553D01*
X023189Y021347D01*
X023268Y021105D01*
X023278Y020977D01*
X023278Y015446D01*
X023268Y015321D01*
X023192Y015085D01*
X023045Y014884D01*
X022844Y014738D01*
X022641Y014672D01*
X022776Y014728D01*
X022928Y014880D01*
X023011Y015078D01*
X023011Y015293D01*
X022928Y015491D01*
X022776Y015643D01*
X022657Y015693D01*
X022773Y015741D01*
X022925Y015893D01*
X023007Y016091D01*
X023007Y016306D01*
X022925Y016504D01*
X022773Y016656D01*
X022677Y016696D01*
X022772Y016736D01*
X022924Y016888D01*
X023007Y017086D01*
X023007Y017301D01*
X022924Y017499D01*
X022772Y017651D01*
X022670Y017694D01*
X022773Y017737D01*
X022925Y017889D01*
X023007Y018087D01*
X023007Y018302D01*
X022925Y018500D01*
X022773Y018652D01*
X022669Y018695D01*
X022772Y018738D01*
X022924Y018890D01*
X023007Y019089D01*
X023007Y019303D01*
X022924Y019502D01*
X022772Y019654D01*
X022688Y019689D01*
X022774Y019724D01*
X022926Y019876D01*
X023008Y020075D01*
X023008Y020289D01*
X022926Y020488D01*
X022774Y020640D01*
X022665Y020685D01*
X022775Y020731D01*
X022927Y020883D01*
X023010Y021081D01*
X023010Y021296D01*
X022927Y021494D01*
X022775Y021646D01*
X022577Y021728D01*
X022362Y021728D01*
X022164Y021646D01*
X022012Y021494D01*
X021970Y021392D01*
X021940Y021465D02*
X021999Y021465D01*
X022080Y021563D02*
X021859Y021563D01*
X021739Y021662D02*
X022200Y021662D01*
X022657Y021760D02*
X020892Y021760D01*
X020892Y021662D02*
X021200Y021662D01*
X021080Y021563D02*
X020892Y021563D01*
X020940Y021465D02*
X020999Y021465D01*
X020472Y021436D02*
X020472Y021191D01*
X020470Y021189D01*
X020970Y020985D02*
X021012Y020883D01*
X021164Y020731D01*
X021273Y020686D01*
X021162Y020640D01*
X021010Y020488D01*
X020968Y020386D01*
X020926Y020488D01*
X020774Y020640D01*
X020665Y020685D01*
X020775Y020731D01*
X020927Y020883D01*
X020970Y020985D01*
X020975Y020972D02*
X020964Y020972D01*
X020918Y020874D02*
X021021Y020874D01*
X021119Y020775D02*
X020820Y020775D01*
X020685Y020677D02*
X021251Y020677D01*
X021100Y020578D02*
X020836Y020578D01*
X020929Y020480D02*
X021007Y020480D01*
X020968Y019978D02*
X021010Y019876D01*
X021162Y019724D01*
X021246Y019689D01*
X021161Y019654D01*
X021009Y019502D01*
X020967Y019400D01*
X020924Y019502D01*
X020772Y019654D01*
X020688Y019689D01*
X020774Y019724D01*
X020926Y019876D01*
X020968Y019978D01*
X020931Y019889D02*
X021005Y019889D01*
X021096Y019790D02*
X020840Y019790D01*
X020695Y019692D02*
X021241Y019692D01*
X021100Y019593D02*
X020833Y019593D01*
X020927Y019495D02*
X021006Y019495D01*
X020967Y018992D02*
X021009Y018890D01*
X021161Y018738D01*
X021265Y018695D01*
X021161Y018652D01*
X021009Y018500D01*
X020967Y018398D01*
X020925Y018500D01*
X020773Y018652D01*
X020669Y018695D01*
X020772Y018738D01*
X020924Y018890D01*
X020967Y018992D01*
X020930Y018904D02*
X021003Y018904D01*
X021094Y018805D02*
X020839Y018805D01*
X020696Y018707D02*
X021237Y018707D01*
X021117Y018608D02*
X020817Y018608D01*
X020916Y018510D02*
X021018Y018510D01*
X020972Y018411D02*
X020962Y018411D01*
X020967Y017991D02*
X021009Y017889D01*
X021161Y017737D01*
X021264Y017694D01*
X021161Y017651D01*
X021009Y017499D01*
X020967Y017397D01*
X020924Y017499D01*
X020772Y017651D01*
X020670Y017694D01*
X020773Y017737D01*
X020925Y017889D01*
X020967Y017991D01*
X020937Y017919D02*
X020997Y017919D01*
X021078Y017820D02*
X020856Y017820D01*
X020736Y017722D02*
X021198Y017722D01*
X021132Y017623D02*
X020801Y017623D01*
X020899Y017525D02*
X021034Y017525D01*
X020978Y017426D02*
X020955Y017426D01*
X020967Y016990D02*
X021009Y016888D01*
X021161Y016736D01*
X021257Y016696D01*
X021161Y016656D01*
X021009Y016504D01*
X020967Y016402D01*
X020925Y016504D01*
X020773Y016656D01*
X020677Y016696D01*
X020772Y016736D01*
X020924Y016888D01*
X020967Y016990D01*
X020943Y016934D02*
X020990Y016934D01*
X021061Y016835D02*
X020872Y016835D01*
X020773Y016737D02*
X021160Y016737D01*
X021143Y016638D02*
X020791Y016638D01*
X020890Y016540D02*
X021044Y016540D01*
X020983Y016441D02*
X020951Y016441D01*
X020967Y015995D02*
X021009Y015893D01*
X021161Y015741D01*
X021280Y015691D01*
X021165Y015643D01*
X021013Y015491D01*
X020971Y015389D01*
X020928Y015491D01*
X020776Y015643D01*
X020657Y015693D01*
X020773Y015741D01*
X020925Y015893D01*
X020967Y015995D01*
X020948Y015949D02*
X020986Y015949D01*
X021052Y015850D02*
X020882Y015850D01*
X020784Y015752D02*
X021150Y015752D01*
X021188Y015653D02*
X020753Y015653D01*
X020865Y015555D02*
X021076Y015555D01*
X020998Y015456D02*
X020943Y015456D01*
X022753Y015653D02*
X023278Y015653D01*
X023278Y015555D02*
X022865Y015555D01*
X022943Y015456D02*
X023278Y015456D01*
X023271Y015358D02*
X022984Y015358D01*
X023011Y015259D02*
X023248Y015259D01*
X023216Y015161D02*
X023011Y015161D01*
X023004Y015062D02*
X023175Y015062D01*
X023103Y014964D02*
X022963Y014964D01*
X022914Y014865D02*
X023020Y014865D01*
X022884Y014767D02*
X022815Y014767D01*
X022784Y015752D02*
X023278Y015752D01*
X023278Y015850D02*
X022882Y015850D01*
X022948Y015949D02*
X023278Y015949D01*
X023278Y016047D02*
X022989Y016047D01*
X023007Y016146D02*
X023278Y016146D01*
X023278Y016244D02*
X023007Y016244D01*
X022992Y016343D02*
X023278Y016343D01*
X023278Y016441D02*
X022951Y016441D01*
X022890Y016540D02*
X023278Y016540D01*
X023278Y016638D02*
X022791Y016638D01*
X022773Y016737D02*
X023278Y016737D01*
X023278Y016835D02*
X022872Y016835D01*
X022943Y016934D02*
X023278Y016934D01*
X023278Y017032D02*
X022984Y017032D01*
X023007Y017131D02*
X023278Y017131D01*
X023278Y017229D02*
X023007Y017229D01*
X022995Y017328D02*
X023278Y017328D01*
X023278Y017426D02*
X022955Y017426D01*
X022899Y017525D02*
X023278Y017525D01*
X023278Y017623D02*
X022801Y017623D01*
X022736Y017722D02*
X023278Y017722D01*
X023278Y017820D02*
X022856Y017820D01*
X022937Y017919D02*
X023278Y017919D01*
X023278Y018017D02*
X022978Y018017D01*
X023007Y018116D02*
X023278Y018116D01*
X023278Y018214D02*
X023007Y018214D01*
X023003Y018313D02*
X023278Y018313D01*
X023278Y018411D02*
X022962Y018411D01*
X022916Y018510D02*
X023278Y018510D01*
X023278Y018608D02*
X022817Y018608D01*
X022696Y018707D02*
X023278Y018707D01*
X023278Y018805D02*
X022839Y018805D01*
X022930Y018904D02*
X023278Y018904D01*
X023278Y019002D02*
X022971Y019002D01*
X023007Y019101D02*
X023278Y019101D01*
X023278Y019199D02*
X023007Y019199D01*
X023007Y019298D02*
X023278Y019298D01*
X023278Y019396D02*
X022968Y019396D01*
X022927Y019495D02*
X023278Y019495D01*
X023278Y019593D02*
X022833Y019593D01*
X022695Y019692D02*
X023278Y019692D01*
X023278Y019790D02*
X022840Y019790D01*
X022931Y019889D02*
X023278Y019889D01*
X023278Y019987D02*
X022972Y019987D01*
X023008Y020086D02*
X023278Y020086D01*
X023278Y020184D02*
X023008Y020184D01*
X023008Y020283D02*
X023278Y020283D01*
X023278Y020381D02*
X022970Y020381D01*
X022929Y020480D02*
X023278Y020480D01*
X023278Y020578D02*
X022836Y020578D01*
X022685Y020677D02*
X023278Y020677D01*
X023278Y020775D02*
X022820Y020775D01*
X022918Y020874D02*
X023278Y020874D01*
X023278Y020972D02*
X022964Y020972D01*
X023005Y021071D02*
X023271Y021071D01*
X023247Y021169D02*
X023010Y021169D01*
X023010Y021268D02*
X023215Y021268D01*
X023176Y021366D02*
X022980Y021366D01*
X022940Y021465D02*
X023104Y021465D01*
X023026Y021563D02*
X022859Y021563D01*
X022890Y021662D02*
X022739Y021662D01*
X020474Y021838D02*
X020474Y022637D01*
X020477Y022798D01*
X020480Y023338D01*
X019474Y022737D02*
X019466Y022536D01*
X019480Y022038D01*
X019480Y021837D01*
X019474Y021830D01*
X020472Y021836D02*
X020474Y021838D01*
X018474Y021841D02*
X018474Y022637D01*
X018477Y022809D01*
X018480Y023338D01*
X017474Y022737D02*
X017474Y022044D01*
X017480Y022038D01*
X017483Y022035D01*
X017483Y021836D01*
X018470Y021836D02*
X018474Y021841D01*
X018470Y021436D02*
X018470Y021189D01*
X016477Y021836D02*
X016474Y021838D01*
X016474Y022637D01*
X016466Y022770D01*
X016480Y023338D01*
X015474Y022737D02*
X015420Y022367D01*
X015480Y022038D01*
X015470Y022028D01*
X015470Y021829D01*
X015470Y021429D02*
X015470Y021189D01*
X015456Y014512D02*
X015456Y013762D01*
X015457Y013760D01*
X015457Y014240D01*
X015452Y014316D01*
M02*
