%
M48
M72
T01C0.0400
%
T01
X15474Y22737
X16474Y22637
X17474Y22737
X18474Y22637
X19474Y22737
X20474Y22637
X15457Y13760
X16457Y13660
X17457Y13760
X18457Y13660
X19457Y13760
X20457Y13660
X15470Y21189
X16470Y21189
X17470Y21189
X18470Y21189
X19470Y21189
X20470Y21189
X21470Y21189
X22470Y21189
X15468Y20182
X16468Y20182
X17468Y20182
X18468Y20182
X19468Y20182
X20468Y20182
X21468Y20182
X22468Y20182
X15467Y19196
X16467Y19196
X17467Y19196
X18467Y19196
X19467Y19196
X20467Y19196
X21467Y19196
X22467Y19196
X15467Y18195
X16467Y18195
X17467Y18195
X18467Y18195
X19467Y18195
X20467Y18195
X21467Y18195
X22467Y18195
X15467Y17194
X16467Y17194
X17467Y17194
X18467Y17194
X19467Y17194
X20467Y17194
X21467Y17194
X22467Y17194
X15467Y16199
X16467Y16199
X17467Y16199
X18467Y16199
X19467Y16199
X20467Y16199
X21467Y16199
X22467Y16199
X15471Y15185
X16471Y15185
X17471Y15185
X18471Y15185
X19471Y15185
X20471Y15185
X21471Y15185
X22471Y15185
M30
