G75*
G70*
%OFA0B0*%
%FSLAX24Y24*%
%IPPOS*%
%LPD*%
%AMOC8*
5,1,8,0,0,1.08239X$1,22.5*
%
%ADD10C,0.0000*%
%ADD11C,0.0039*%
D10*
X003148Y002009D02*
X003148Y009489D01*
X005313Y009489D01*
X005313Y011222D01*
X013990Y011206D01*
X014935Y010418D02*
X014935Y009501D01*
X021061Y009489D01*
X021123Y009487D01*
X021184Y009481D01*
X021245Y009472D01*
X021306Y009458D01*
X021365Y009441D01*
X021423Y009420D01*
X021480Y009395D01*
X021535Y009367D01*
X021588Y009336D01*
X021639Y009301D01*
X021688Y009263D01*
X021735Y009222D01*
X021778Y009179D01*
X021819Y009132D01*
X021857Y009083D01*
X021892Y009032D01*
X021923Y008979D01*
X021951Y008924D01*
X021976Y008867D01*
X021997Y008809D01*
X022014Y008750D01*
X022028Y008689D01*
X022037Y008628D01*
X022043Y008567D01*
X022045Y008505D01*
X022045Y002974D01*
X021002Y003013D02*
X021004Y003048D01*
X021010Y003083D01*
X021020Y003117D01*
X021033Y003150D01*
X021050Y003181D01*
X021071Y003209D01*
X021094Y003236D01*
X021121Y003259D01*
X021149Y003280D01*
X021180Y003297D01*
X021213Y003310D01*
X021247Y003320D01*
X021282Y003326D01*
X021317Y003328D01*
X021352Y003326D01*
X021387Y003320D01*
X021421Y003310D01*
X021454Y003297D01*
X021485Y003280D01*
X021513Y003259D01*
X021540Y003236D01*
X021563Y003209D01*
X021584Y003181D01*
X021601Y003150D01*
X021614Y003117D01*
X021624Y003083D01*
X021630Y003048D01*
X021632Y003013D01*
X021630Y002978D01*
X021624Y002943D01*
X021614Y002909D01*
X021601Y002876D01*
X021584Y002845D01*
X021563Y002817D01*
X021540Y002790D01*
X021513Y002767D01*
X021485Y002746D01*
X021454Y002729D01*
X021421Y002716D01*
X021387Y002706D01*
X021352Y002700D01*
X021317Y002698D01*
X021282Y002700D01*
X021247Y002706D01*
X021213Y002716D01*
X021180Y002729D01*
X021149Y002746D01*
X021121Y002767D01*
X021094Y002790D01*
X021071Y002817D01*
X021050Y002845D01*
X021033Y002876D01*
X021020Y002909D01*
X021010Y002943D01*
X021004Y002978D01*
X021002Y003013D01*
X021081Y002009D02*
X021142Y002011D01*
X021202Y002017D01*
X021262Y002026D01*
X021321Y002039D01*
X021379Y002056D01*
X021436Y002077D01*
X021492Y002101D01*
X021546Y002128D01*
X021598Y002159D01*
X021648Y002193D01*
X021696Y002230D01*
X021742Y002271D01*
X021784Y002313D01*
X021825Y002359D01*
X021862Y002407D01*
X021896Y002457D01*
X021927Y002509D01*
X021954Y002563D01*
X021978Y002619D01*
X021999Y002676D01*
X022016Y002734D01*
X022029Y002793D01*
X022038Y002853D01*
X022044Y002913D01*
X022046Y002974D01*
X021199Y004056D02*
X021201Y004091D01*
X021207Y004126D01*
X021217Y004160D01*
X021230Y004193D01*
X021247Y004224D01*
X021268Y004252D01*
X021291Y004279D01*
X021318Y004302D01*
X021346Y004323D01*
X021377Y004340D01*
X021410Y004353D01*
X021444Y004363D01*
X021479Y004369D01*
X021514Y004371D01*
X021549Y004369D01*
X021584Y004363D01*
X021618Y004353D01*
X021651Y004340D01*
X021682Y004323D01*
X021710Y004302D01*
X021737Y004279D01*
X021760Y004252D01*
X021781Y004224D01*
X021798Y004193D01*
X021811Y004160D01*
X021821Y004126D01*
X021827Y004091D01*
X021829Y004056D01*
X021827Y004021D01*
X021821Y003986D01*
X021811Y003952D01*
X021798Y003919D01*
X021781Y003888D01*
X021760Y003860D01*
X021737Y003833D01*
X021710Y003810D01*
X021682Y003789D01*
X021651Y003772D01*
X021618Y003759D01*
X021584Y003749D01*
X021549Y003743D01*
X021514Y003741D01*
X021479Y003743D01*
X021444Y003749D01*
X021410Y003759D01*
X021377Y003772D01*
X021346Y003789D01*
X021318Y003810D01*
X021291Y003833D01*
X021268Y003860D01*
X021247Y003888D01*
X021230Y003919D01*
X021217Y003952D01*
X021207Y003986D01*
X021201Y004021D01*
X021199Y004056D01*
X021081Y002009D02*
X014951Y002021D01*
X014951Y001210D01*
X014949Y001149D01*
X014943Y001089D01*
X014934Y001029D01*
X014921Y000970D01*
X014904Y000912D01*
X014883Y000855D01*
X014859Y000799D01*
X014832Y000745D01*
X014801Y000693D01*
X014767Y000643D01*
X014730Y000595D01*
X014689Y000549D01*
X014647Y000507D01*
X014601Y000466D01*
X014553Y000429D01*
X014503Y000395D01*
X014451Y000364D01*
X014397Y000337D01*
X014341Y000313D01*
X014284Y000292D01*
X014226Y000275D01*
X014167Y000262D01*
X014107Y000253D01*
X014047Y000247D01*
X013986Y000245D01*
X005293Y000237D01*
X005293Y002009D01*
X003148Y002009D01*
X006234Y001273D02*
X006236Y001299D01*
X006242Y001325D01*
X006252Y001350D01*
X006265Y001373D01*
X006281Y001393D01*
X006301Y001411D01*
X006323Y001426D01*
X006346Y001438D01*
X006372Y001446D01*
X006398Y001450D01*
X006424Y001450D01*
X006450Y001446D01*
X006476Y001438D01*
X006500Y001426D01*
X006521Y001411D01*
X006541Y001393D01*
X006557Y001373D01*
X006570Y001350D01*
X006580Y001325D01*
X006586Y001299D01*
X006588Y001273D01*
X006586Y001247D01*
X006580Y001221D01*
X006570Y001196D01*
X006557Y001173D01*
X006541Y001153D01*
X006521Y001135D01*
X006499Y001120D01*
X006476Y001108D01*
X006450Y001100D01*
X006424Y001096D01*
X006398Y001096D01*
X006372Y001100D01*
X006346Y001108D01*
X006322Y001120D01*
X006301Y001135D01*
X006281Y001153D01*
X006265Y001173D01*
X006252Y001196D01*
X006242Y001221D01*
X006236Y001247D01*
X006234Y001273D01*
X007415Y001273D02*
X007417Y001299D01*
X007423Y001325D01*
X007433Y001350D01*
X007446Y001373D01*
X007462Y001393D01*
X007482Y001411D01*
X007504Y001426D01*
X007527Y001438D01*
X007553Y001446D01*
X007579Y001450D01*
X007605Y001450D01*
X007631Y001446D01*
X007657Y001438D01*
X007681Y001426D01*
X007702Y001411D01*
X007722Y001393D01*
X007738Y001373D01*
X007751Y001350D01*
X007761Y001325D01*
X007767Y001299D01*
X007769Y001273D01*
X007767Y001247D01*
X007761Y001221D01*
X007751Y001196D01*
X007738Y001173D01*
X007722Y001153D01*
X007702Y001135D01*
X007680Y001120D01*
X007657Y001108D01*
X007631Y001100D01*
X007605Y001096D01*
X007579Y001096D01*
X007553Y001100D01*
X007527Y001108D01*
X007503Y001120D01*
X007482Y001135D01*
X007462Y001153D01*
X007446Y001173D01*
X007433Y001196D01*
X007423Y001221D01*
X007417Y001247D01*
X007415Y001273D01*
X007447Y003682D02*
X007007Y003682D01*
X006896Y003792D01*
X006896Y004012D01*
X007007Y004123D01*
X006896Y004290D02*
X007447Y004290D01*
X007557Y004400D01*
X007557Y004620D01*
X007447Y004730D01*
X006896Y004730D01*
X006896Y004898D02*
X006896Y005338D01*
X006896Y005118D02*
X007557Y005118D01*
X007447Y006113D02*
X007007Y006113D01*
X006896Y006223D01*
X006896Y006443D01*
X007007Y006553D01*
X007447Y006553D01*
X007557Y006443D01*
X007557Y006223D01*
X007447Y006113D01*
X007447Y006721D02*
X006896Y006721D01*
X007447Y006721D02*
X007557Y006831D01*
X007557Y007051D01*
X007447Y007161D01*
X006896Y007161D01*
X006896Y007328D02*
X006896Y007769D01*
X006896Y007549D02*
X007557Y007549D01*
X007447Y004123D02*
X007557Y004012D01*
X007557Y003792D01*
X007447Y003682D01*
X013990Y011206D02*
X014047Y011210D01*
X014104Y011209D01*
X014161Y011205D01*
X014217Y011197D01*
X014273Y011186D01*
X014328Y011171D01*
X014382Y011152D01*
X014434Y011130D01*
X014485Y011104D01*
X014534Y011075D01*
X014581Y011043D01*
X014626Y011008D01*
X014668Y010970D01*
X014708Y010930D01*
X014746Y010887D01*
X014780Y010841D01*
X014811Y010794D01*
X014839Y010744D01*
X014864Y010693D01*
X014886Y010640D01*
X014903Y010586D01*
X014918Y010531D01*
X014928Y010475D01*
X014935Y010419D01*
D11*
X008285Y008485D02*
X008285Y002974D01*
X006100Y002974D01*
X006100Y008485D01*
X008285Y008485D01*
M02*
