G75*
G70*
%OFA0B0*%
%FSLAX24Y24*%
%IPPOS*%
%LPD*%
%AMOC8*
5,1,8,0,0,1.08239X$1,22.5*
%
%ADD10C,0.0000*%
%ADD11C,0.0039*%
%ADD12R,0.0394X0.0433*%
%ADD13C,0.0100*%
%ADD14R,0.0748X0.0433*%
%ADD15R,0.0472X0.0236*%
%ADD16R,0.0472X0.0217*%
%ADD17R,0.0118X0.0394*%
%ADD18R,0.0236X0.0098*%
%ADD19R,0.0630X0.0276*%
%ADD20R,0.0394X0.0551*%
%ADD21R,0.0248X0.0327*%
%ADD22R,0.0433X0.0394*%
%ADD23R,0.0472X0.0315*%
%ADD24R,0.0220X0.0500*%
%ADD25R,0.0315X0.0472*%
%ADD26R,0.0413X0.0425*%
%ADD27R,0.0315X0.0354*%
%ADD28R,0.0315X0.0315*%
D10*
X003148Y002009D02*
X003148Y009489D01*
X005313Y009489D01*
X005313Y011222D01*
X013990Y011206D01*
X014935Y010418D02*
X014935Y009501D01*
X021061Y009489D01*
X021123Y009487D01*
X021184Y009481D01*
X021245Y009472D01*
X021306Y009458D01*
X021365Y009441D01*
X021423Y009420D01*
X021480Y009395D01*
X021535Y009367D01*
X021588Y009336D01*
X021639Y009301D01*
X021688Y009263D01*
X021735Y009222D01*
X021778Y009179D01*
X021819Y009132D01*
X021857Y009083D01*
X021892Y009032D01*
X021923Y008979D01*
X021951Y008924D01*
X021976Y008867D01*
X021997Y008809D01*
X022014Y008750D01*
X022028Y008689D01*
X022037Y008628D01*
X022043Y008567D01*
X022045Y008505D01*
X022045Y002974D01*
X021002Y003013D02*
X021004Y003048D01*
X021010Y003083D01*
X021020Y003117D01*
X021033Y003150D01*
X021050Y003181D01*
X021071Y003209D01*
X021094Y003236D01*
X021121Y003259D01*
X021149Y003280D01*
X021180Y003297D01*
X021213Y003310D01*
X021247Y003320D01*
X021282Y003326D01*
X021317Y003328D01*
X021352Y003326D01*
X021387Y003320D01*
X021421Y003310D01*
X021454Y003297D01*
X021485Y003280D01*
X021513Y003259D01*
X021540Y003236D01*
X021563Y003209D01*
X021584Y003181D01*
X021601Y003150D01*
X021614Y003117D01*
X021624Y003083D01*
X021630Y003048D01*
X021632Y003013D01*
X021630Y002978D01*
X021624Y002943D01*
X021614Y002909D01*
X021601Y002876D01*
X021584Y002845D01*
X021563Y002817D01*
X021540Y002790D01*
X021513Y002767D01*
X021485Y002746D01*
X021454Y002729D01*
X021421Y002716D01*
X021387Y002706D01*
X021352Y002700D01*
X021317Y002698D01*
X021282Y002700D01*
X021247Y002706D01*
X021213Y002716D01*
X021180Y002729D01*
X021149Y002746D01*
X021121Y002767D01*
X021094Y002790D01*
X021071Y002817D01*
X021050Y002845D01*
X021033Y002876D01*
X021020Y002909D01*
X021010Y002943D01*
X021004Y002978D01*
X021002Y003013D01*
X021081Y002009D02*
X021142Y002011D01*
X021202Y002017D01*
X021262Y002026D01*
X021321Y002039D01*
X021379Y002056D01*
X021436Y002077D01*
X021492Y002101D01*
X021546Y002128D01*
X021598Y002159D01*
X021648Y002193D01*
X021696Y002230D01*
X021742Y002271D01*
X021784Y002313D01*
X021825Y002359D01*
X021862Y002407D01*
X021896Y002457D01*
X021927Y002509D01*
X021954Y002563D01*
X021978Y002619D01*
X021999Y002676D01*
X022016Y002734D01*
X022029Y002793D01*
X022038Y002853D01*
X022044Y002913D01*
X022046Y002974D01*
X021199Y004056D02*
X021201Y004091D01*
X021207Y004126D01*
X021217Y004160D01*
X021230Y004193D01*
X021247Y004224D01*
X021268Y004252D01*
X021291Y004279D01*
X021318Y004302D01*
X021346Y004323D01*
X021377Y004340D01*
X021410Y004353D01*
X021444Y004363D01*
X021479Y004369D01*
X021514Y004371D01*
X021549Y004369D01*
X021584Y004363D01*
X021618Y004353D01*
X021651Y004340D01*
X021682Y004323D01*
X021710Y004302D01*
X021737Y004279D01*
X021760Y004252D01*
X021781Y004224D01*
X021798Y004193D01*
X021811Y004160D01*
X021821Y004126D01*
X021827Y004091D01*
X021829Y004056D01*
X021827Y004021D01*
X021821Y003986D01*
X021811Y003952D01*
X021798Y003919D01*
X021781Y003888D01*
X021760Y003860D01*
X021737Y003833D01*
X021710Y003810D01*
X021682Y003789D01*
X021651Y003772D01*
X021618Y003759D01*
X021584Y003749D01*
X021549Y003743D01*
X021514Y003741D01*
X021479Y003743D01*
X021444Y003749D01*
X021410Y003759D01*
X021377Y003772D01*
X021346Y003789D01*
X021318Y003810D01*
X021291Y003833D01*
X021268Y003860D01*
X021247Y003888D01*
X021230Y003919D01*
X021217Y003952D01*
X021207Y003986D01*
X021201Y004021D01*
X021199Y004056D01*
X021081Y002009D02*
X014951Y002021D01*
X014951Y001210D01*
X014949Y001149D01*
X014943Y001089D01*
X014934Y001029D01*
X014921Y000970D01*
X014904Y000912D01*
X014883Y000855D01*
X014859Y000799D01*
X014832Y000745D01*
X014801Y000693D01*
X014767Y000643D01*
X014730Y000595D01*
X014689Y000549D01*
X014647Y000507D01*
X014601Y000466D01*
X014553Y000429D01*
X014503Y000395D01*
X014451Y000364D01*
X014397Y000337D01*
X014341Y000313D01*
X014284Y000292D01*
X014226Y000275D01*
X014167Y000262D01*
X014107Y000253D01*
X014047Y000247D01*
X013986Y000245D01*
X005293Y000237D01*
X005293Y002009D01*
X003148Y002009D01*
X006234Y001273D02*
X006236Y001299D01*
X006242Y001325D01*
X006252Y001350D01*
X006265Y001373D01*
X006281Y001393D01*
X006301Y001411D01*
X006323Y001426D01*
X006346Y001438D01*
X006372Y001446D01*
X006398Y001450D01*
X006424Y001450D01*
X006450Y001446D01*
X006476Y001438D01*
X006500Y001426D01*
X006521Y001411D01*
X006541Y001393D01*
X006557Y001373D01*
X006570Y001350D01*
X006580Y001325D01*
X006586Y001299D01*
X006588Y001273D01*
X006586Y001247D01*
X006580Y001221D01*
X006570Y001196D01*
X006557Y001173D01*
X006541Y001153D01*
X006521Y001135D01*
X006499Y001120D01*
X006476Y001108D01*
X006450Y001100D01*
X006424Y001096D01*
X006398Y001096D01*
X006372Y001100D01*
X006346Y001108D01*
X006322Y001120D01*
X006301Y001135D01*
X006281Y001153D01*
X006265Y001173D01*
X006252Y001196D01*
X006242Y001221D01*
X006236Y001247D01*
X006234Y001273D01*
X007415Y001273D02*
X007417Y001299D01*
X007423Y001325D01*
X007433Y001350D01*
X007446Y001373D01*
X007462Y001393D01*
X007482Y001411D01*
X007504Y001426D01*
X007527Y001438D01*
X007553Y001446D01*
X007579Y001450D01*
X007605Y001450D01*
X007631Y001446D01*
X007657Y001438D01*
X007681Y001426D01*
X007702Y001411D01*
X007722Y001393D01*
X007738Y001373D01*
X007751Y001350D01*
X007761Y001325D01*
X007767Y001299D01*
X007769Y001273D01*
X007767Y001247D01*
X007761Y001221D01*
X007751Y001196D01*
X007738Y001173D01*
X007722Y001153D01*
X007702Y001135D01*
X007680Y001120D01*
X007657Y001108D01*
X007631Y001100D01*
X007605Y001096D01*
X007579Y001096D01*
X007553Y001100D01*
X007527Y001108D01*
X007503Y001120D01*
X007482Y001135D01*
X007462Y001153D01*
X007446Y001173D01*
X007433Y001196D01*
X007423Y001221D01*
X007417Y001247D01*
X007415Y001273D01*
X007447Y003682D02*
X007007Y003682D01*
X006896Y003792D01*
X006896Y004012D01*
X007007Y004123D01*
X006896Y004290D02*
X007447Y004290D01*
X007557Y004400D01*
X007557Y004620D01*
X007447Y004730D01*
X006896Y004730D01*
X006896Y004898D02*
X006896Y005338D01*
X006896Y005118D02*
X007557Y005118D01*
X007447Y006113D02*
X007007Y006113D01*
X006896Y006223D01*
X006896Y006443D01*
X007007Y006553D01*
X007447Y006553D01*
X007557Y006443D01*
X007557Y006223D01*
X007447Y006113D01*
X007447Y006721D02*
X006896Y006721D01*
X007447Y006721D02*
X007557Y006831D01*
X007557Y007051D01*
X007447Y007161D01*
X006896Y007161D01*
X006896Y007328D02*
X006896Y007769D01*
X006896Y007549D02*
X007557Y007549D01*
X007447Y004123D02*
X007557Y004012D01*
X007557Y003792D01*
X007447Y003682D01*
X013990Y011206D02*
X014047Y011210D01*
X014104Y011209D01*
X014161Y011205D01*
X014217Y011197D01*
X014273Y011186D01*
X014328Y011171D01*
X014382Y011152D01*
X014434Y011130D01*
X014485Y011104D01*
X014534Y011075D01*
X014581Y011043D01*
X014626Y011008D01*
X014668Y010970D01*
X014708Y010930D01*
X014746Y010887D01*
X014780Y010841D01*
X014811Y010794D01*
X014839Y010744D01*
X014864Y010693D01*
X014886Y010640D01*
X014903Y010586D01*
X014918Y010531D01*
X014928Y010475D01*
X014935Y010419D01*
D11*
X008285Y008485D02*
X008285Y002974D01*
X006100Y002974D01*
X006100Y008485D01*
X008285Y008485D01*
D12*
X008939Y008745D03*
X009565Y008757D03*
X009565Y008088D03*
X008939Y008076D03*
X005581Y007781D03*
X005581Y007111D03*
X005569Y006422D03*
X005569Y005753D03*
X005557Y005021D03*
X005557Y004351D03*
X005022Y003474D03*
X003854Y003467D03*
X003854Y002798D03*
X005022Y002804D03*
X008722Y003001D03*
X009514Y003011D03*
X010022Y003017D03*
X010022Y003686D03*
X009514Y003680D03*
X008722Y003670D03*
X012340Y003466D03*
X012340Y002796D03*
X016966Y005257D03*
X016966Y005926D03*
X015081Y007005D03*
X015081Y007674D03*
X012640Y007859D03*
X012640Y008529D03*
X003667Y007056D03*
X003667Y006387D03*
D13*
X008707Y006299D02*
X008921Y006299D01*
X008707Y006299D02*
X008707Y006317D01*
X008921Y006317D01*
X008921Y006299D01*
X008921Y006105D02*
X008707Y006105D01*
X008707Y006123D01*
X008921Y006123D01*
X008921Y006105D01*
X008921Y005911D02*
X008707Y005911D01*
X008707Y005929D01*
X008921Y005929D01*
X008921Y005911D01*
X008921Y005734D02*
X008707Y005734D01*
X008921Y005734D02*
X008921Y005716D01*
X008707Y005716D01*
X008707Y005734D01*
X008707Y005540D02*
X008921Y005540D01*
X008921Y005522D01*
X008707Y005522D01*
X008707Y005540D01*
X008707Y005346D02*
X008921Y005346D01*
X008921Y005328D01*
X008707Y005328D01*
X008707Y005346D01*
X008707Y005152D02*
X008921Y005152D01*
X008921Y005134D01*
X008707Y005134D01*
X008707Y005152D01*
X008707Y004958D02*
X008921Y004958D01*
X008921Y004940D01*
X008707Y004940D01*
X008707Y004958D01*
X008707Y004764D02*
X008921Y004764D01*
X008921Y004746D01*
X008707Y004746D01*
X008707Y004764D01*
X009166Y004519D02*
X009166Y004305D01*
X009148Y004305D01*
X009148Y004519D01*
X009166Y004519D01*
X009166Y004404D02*
X009148Y004404D01*
X009148Y004503D02*
X009166Y004503D01*
X009360Y004519D02*
X009360Y004305D01*
X009342Y004305D01*
X009342Y004519D01*
X009360Y004519D01*
X009360Y004404D02*
X009342Y004404D01*
X009342Y004503D02*
X009360Y004503D01*
X009555Y004519D02*
X009555Y004305D01*
X009537Y004305D01*
X009537Y004519D01*
X009555Y004519D01*
X009555Y004404D02*
X009537Y004404D01*
X009537Y004503D02*
X009555Y004503D01*
X009749Y004519D02*
X009749Y004305D01*
X009731Y004305D01*
X009731Y004519D01*
X009749Y004519D01*
X009749Y004404D02*
X009731Y004404D01*
X009731Y004503D02*
X009749Y004503D01*
X009943Y004519D02*
X009943Y004305D01*
X009925Y004305D01*
X009925Y004519D01*
X009943Y004519D01*
X009943Y004404D02*
X009925Y004404D01*
X009925Y004503D02*
X009943Y004503D01*
X010119Y004519D02*
X010119Y004305D01*
X010119Y004519D02*
X010137Y004519D01*
X010137Y004305D01*
X010119Y004305D01*
X010119Y004404D02*
X010137Y004404D01*
X010137Y004503D02*
X010119Y004503D01*
X010313Y004519D02*
X010313Y004305D01*
X010313Y004519D02*
X010331Y004519D01*
X010331Y004305D01*
X010313Y004305D01*
X010313Y004404D02*
X010331Y004404D01*
X010331Y004503D02*
X010313Y004503D01*
X010507Y004519D02*
X010507Y004305D01*
X010507Y004519D02*
X010525Y004519D01*
X010525Y004305D01*
X010507Y004305D01*
X010507Y004404D02*
X010525Y004404D01*
X010525Y004503D02*
X010507Y004503D01*
X010701Y004519D02*
X010701Y004305D01*
X010701Y004519D02*
X010719Y004519D01*
X010719Y004305D01*
X010701Y004305D01*
X010701Y004404D02*
X010719Y004404D01*
X010719Y004503D02*
X010701Y004503D01*
X010895Y004519D02*
X010895Y004305D01*
X010895Y004519D02*
X010913Y004519D01*
X010913Y004305D01*
X010895Y004305D01*
X010895Y004404D02*
X010913Y004404D01*
X010913Y004503D02*
X010895Y004503D01*
X011089Y004519D02*
X011089Y004305D01*
X011089Y004519D02*
X011107Y004519D01*
X011107Y004305D01*
X011089Y004305D01*
X011089Y004404D02*
X011107Y004404D01*
X011107Y004503D02*
X011089Y004503D01*
X011334Y004764D02*
X011548Y004764D01*
X011548Y004746D01*
X011334Y004746D01*
X011334Y004764D01*
X011334Y004958D02*
X011548Y004958D01*
X011548Y004940D01*
X011334Y004940D01*
X011334Y004958D01*
X011334Y005152D02*
X011548Y005152D01*
X011548Y005134D01*
X011334Y005134D01*
X011334Y005152D01*
X011334Y005346D02*
X011548Y005346D01*
X011548Y005328D01*
X011334Y005328D01*
X011334Y005346D01*
X011334Y005540D02*
X011548Y005540D01*
X011548Y005522D01*
X011334Y005522D01*
X011334Y005540D01*
X011334Y005716D02*
X011548Y005716D01*
X011334Y005716D02*
X011334Y005734D01*
X011548Y005734D01*
X011548Y005716D01*
X011548Y005911D02*
X011334Y005911D01*
X011334Y005929D01*
X011548Y005929D01*
X011548Y005911D01*
X011548Y006105D02*
X011334Y006105D01*
X011334Y006123D01*
X011548Y006123D01*
X011548Y006105D01*
X011548Y006299D02*
X011334Y006299D01*
X011334Y006317D01*
X011548Y006317D01*
X011548Y006299D01*
X011548Y006493D02*
X011334Y006493D01*
X011334Y006511D01*
X011548Y006511D01*
X011548Y006493D01*
X011548Y006687D02*
X011334Y006687D01*
X011334Y006705D01*
X011548Y006705D01*
X011548Y006687D01*
X011089Y006932D02*
X011089Y007146D01*
X011107Y007146D01*
X011107Y006932D01*
X011089Y006932D01*
X011089Y007031D02*
X011107Y007031D01*
X011107Y007130D02*
X011089Y007130D01*
X010895Y007146D02*
X010895Y006932D01*
X010895Y007146D02*
X010913Y007146D01*
X010913Y006932D01*
X010895Y006932D01*
X010895Y007031D02*
X010913Y007031D01*
X010913Y007130D02*
X010895Y007130D01*
X010701Y007146D02*
X010701Y006932D01*
X010701Y007146D02*
X010719Y007146D01*
X010719Y006932D01*
X010701Y006932D01*
X010701Y007031D02*
X010719Y007031D01*
X010719Y007130D02*
X010701Y007130D01*
X010507Y007146D02*
X010507Y006932D01*
X010507Y007146D02*
X010525Y007146D01*
X010525Y006932D01*
X010507Y006932D01*
X010507Y007031D02*
X010525Y007031D01*
X010525Y007130D02*
X010507Y007130D01*
X010313Y007146D02*
X010313Y006932D01*
X010313Y007146D02*
X010331Y007146D01*
X010331Y006932D01*
X010313Y006932D01*
X010313Y007031D02*
X010331Y007031D01*
X010331Y007130D02*
X010313Y007130D01*
X010137Y007146D02*
X010137Y006932D01*
X010119Y006932D01*
X010119Y007146D01*
X010137Y007146D01*
X010137Y007031D02*
X010119Y007031D01*
X010119Y007130D02*
X010137Y007130D01*
X009943Y007146D02*
X009943Y006932D01*
X009925Y006932D01*
X009925Y007146D01*
X009943Y007146D01*
X009943Y007031D02*
X009925Y007031D01*
X009925Y007130D02*
X009943Y007130D01*
X009749Y007146D02*
X009749Y006932D01*
X009731Y006932D01*
X009731Y007146D01*
X009749Y007146D01*
X009749Y007031D02*
X009731Y007031D01*
X009731Y007130D02*
X009749Y007130D01*
X009555Y007146D02*
X009555Y006932D01*
X009537Y006932D01*
X009537Y007146D01*
X009555Y007146D01*
X009555Y007031D02*
X009537Y007031D01*
X009537Y007130D02*
X009555Y007130D01*
X009360Y007146D02*
X009360Y006932D01*
X009342Y006932D01*
X009342Y007146D01*
X009360Y007146D01*
X009360Y007031D02*
X009342Y007031D01*
X009342Y007130D02*
X009360Y007130D01*
X009166Y007146D02*
X009166Y006932D01*
X009148Y006932D01*
X009148Y007146D01*
X009166Y007146D01*
X009166Y007031D02*
X009148Y007031D01*
X009148Y007130D02*
X009166Y007130D01*
X008921Y006687D02*
X008707Y006687D01*
X008707Y006705D01*
X008921Y006705D01*
X008921Y006687D01*
X008921Y006493D02*
X008707Y006493D01*
X008707Y006511D01*
X008921Y006511D01*
X008921Y006493D01*
D14*
X010368Y007851D03*
X011825Y007851D03*
X011825Y008757D03*
X010368Y008757D03*
D15*
X005092Y008962D03*
X005092Y008253D03*
X003675Y008253D03*
X003675Y008962D03*
D16*
X013144Y003540D03*
X014167Y003540D03*
X014167Y003166D03*
X014167Y002792D03*
X013144Y002792D03*
D17*
X015817Y003092D03*
X016014Y003092D03*
X016211Y003092D03*
X016407Y003092D03*
X016604Y003092D03*
X016801Y003092D03*
X016801Y004036D03*
X016604Y004036D03*
X016407Y004036D03*
X016211Y004036D03*
X016014Y004036D03*
X015817Y004036D03*
D18*
X015758Y003662D03*
X015758Y003426D03*
X016860Y003466D03*
X016860Y003662D03*
D19*
X016309Y003564D03*
D20*
X015061Y005033D03*
X015435Y005899D03*
X014687Y005899D03*
D21*
X014632Y006485D03*
X015537Y006485D03*
X011711Y002816D03*
X010805Y002816D03*
D22*
X010923Y003509D03*
X011592Y003509D03*
X012809Y004300D03*
X013478Y004300D03*
X014085Y004296D03*
X014754Y004296D03*
X016289Y006556D03*
X016959Y006556D03*
X016407Y007367D03*
X015738Y007367D03*
X015742Y008060D03*
X016411Y008060D03*
D23*
X016321Y005942D03*
X016321Y005233D03*
D24*
X014057Y007208D03*
X013687Y007208D03*
X013317Y007208D03*
X013317Y008228D03*
X014057Y008228D03*
D25*
X014486Y008269D03*
X015195Y008269D03*
X014041Y006466D03*
X013333Y006466D03*
D26*
X013338Y008891D03*
X014027Y008891D03*
D27*
X013703Y005879D03*
X014077Y005052D03*
X013329Y005052D03*
D28*
X015777Y008599D03*
X016368Y008599D03*
M02*
