G75*
G70*
%OFA0B0*%
%FSLAX24Y24*%
%IPPOS*%
%LPD*%
%AMOC8*
5,1,8,0,0,1.08239X$1,22.5*
%
%ADD10C,0.0000*%
%ADD11C,0.0100*%
%ADD12C,0.0080*%
%ADD13C,0.0060*%
%ADD14R,0.1024X0.1012*%
%ADD15C,0.0160*%
%ADD16C,0.0039*%
%ADD17C,0.0050*%
%ADD18C,0.0010*%
%ADD19C,0.0040*%
D10*
X003148Y002009D02*
X003148Y009489D01*
X005313Y009489D01*
X005313Y011222D01*
X013990Y011206D01*
X014935Y010418D02*
X014935Y009501D01*
X021061Y009489D01*
X021123Y009487D01*
X021184Y009481D01*
X021245Y009472D01*
X021306Y009458D01*
X021365Y009441D01*
X021423Y009420D01*
X021480Y009395D01*
X021535Y009367D01*
X021588Y009336D01*
X021639Y009301D01*
X021688Y009263D01*
X021735Y009222D01*
X021778Y009179D01*
X021819Y009132D01*
X021857Y009083D01*
X021892Y009032D01*
X021923Y008979D01*
X021951Y008924D01*
X021976Y008867D01*
X021997Y008809D01*
X022014Y008750D01*
X022028Y008689D01*
X022037Y008628D01*
X022043Y008567D01*
X022045Y008505D01*
X022045Y002974D01*
X021002Y003013D02*
X021004Y003048D01*
X021010Y003083D01*
X021020Y003117D01*
X021033Y003150D01*
X021050Y003181D01*
X021071Y003209D01*
X021094Y003236D01*
X021121Y003259D01*
X021149Y003280D01*
X021180Y003297D01*
X021213Y003310D01*
X021247Y003320D01*
X021282Y003326D01*
X021317Y003328D01*
X021352Y003326D01*
X021387Y003320D01*
X021421Y003310D01*
X021454Y003297D01*
X021485Y003280D01*
X021513Y003259D01*
X021540Y003236D01*
X021563Y003209D01*
X021584Y003181D01*
X021601Y003150D01*
X021614Y003117D01*
X021624Y003083D01*
X021630Y003048D01*
X021632Y003013D01*
X021630Y002978D01*
X021624Y002943D01*
X021614Y002909D01*
X021601Y002876D01*
X021584Y002845D01*
X021563Y002817D01*
X021540Y002790D01*
X021513Y002767D01*
X021485Y002746D01*
X021454Y002729D01*
X021421Y002716D01*
X021387Y002706D01*
X021352Y002700D01*
X021317Y002698D01*
X021282Y002700D01*
X021247Y002706D01*
X021213Y002716D01*
X021180Y002729D01*
X021149Y002746D01*
X021121Y002767D01*
X021094Y002790D01*
X021071Y002817D01*
X021050Y002845D01*
X021033Y002876D01*
X021020Y002909D01*
X021010Y002943D01*
X021004Y002978D01*
X021002Y003013D01*
X021081Y002009D02*
X021142Y002011D01*
X021202Y002017D01*
X021262Y002026D01*
X021321Y002039D01*
X021379Y002056D01*
X021436Y002077D01*
X021492Y002101D01*
X021546Y002128D01*
X021598Y002159D01*
X021648Y002193D01*
X021696Y002230D01*
X021742Y002271D01*
X021784Y002313D01*
X021825Y002359D01*
X021862Y002407D01*
X021896Y002457D01*
X021927Y002509D01*
X021954Y002563D01*
X021978Y002619D01*
X021999Y002676D01*
X022016Y002734D01*
X022029Y002793D01*
X022038Y002853D01*
X022044Y002913D01*
X022046Y002974D01*
X021199Y004056D02*
X021201Y004091D01*
X021207Y004126D01*
X021217Y004160D01*
X021230Y004193D01*
X021247Y004224D01*
X021268Y004252D01*
X021291Y004279D01*
X021318Y004302D01*
X021346Y004323D01*
X021377Y004340D01*
X021410Y004353D01*
X021444Y004363D01*
X021479Y004369D01*
X021514Y004371D01*
X021549Y004369D01*
X021584Y004363D01*
X021618Y004353D01*
X021651Y004340D01*
X021682Y004323D01*
X021710Y004302D01*
X021737Y004279D01*
X021760Y004252D01*
X021781Y004224D01*
X021798Y004193D01*
X021811Y004160D01*
X021821Y004126D01*
X021827Y004091D01*
X021829Y004056D01*
X021827Y004021D01*
X021821Y003986D01*
X021811Y003952D01*
X021798Y003919D01*
X021781Y003888D01*
X021760Y003860D01*
X021737Y003833D01*
X021710Y003810D01*
X021682Y003789D01*
X021651Y003772D01*
X021618Y003759D01*
X021584Y003749D01*
X021549Y003743D01*
X021514Y003741D01*
X021479Y003743D01*
X021444Y003749D01*
X021410Y003759D01*
X021377Y003772D01*
X021346Y003789D01*
X021318Y003810D01*
X021291Y003833D01*
X021268Y003860D01*
X021247Y003888D01*
X021230Y003919D01*
X021217Y003952D01*
X021207Y003986D01*
X021201Y004021D01*
X021199Y004056D01*
X021081Y002009D02*
X014951Y002021D01*
X014951Y001210D01*
X014949Y001149D01*
X014943Y001089D01*
X014934Y001029D01*
X014921Y000970D01*
X014904Y000912D01*
X014883Y000855D01*
X014859Y000799D01*
X014832Y000745D01*
X014801Y000693D01*
X014767Y000643D01*
X014730Y000595D01*
X014689Y000549D01*
X014647Y000507D01*
X014601Y000466D01*
X014553Y000429D01*
X014503Y000395D01*
X014451Y000364D01*
X014397Y000337D01*
X014341Y000313D01*
X014284Y000292D01*
X014226Y000275D01*
X014167Y000262D01*
X014107Y000253D01*
X014047Y000247D01*
X013986Y000245D01*
X005293Y000237D01*
X005293Y002009D01*
X003148Y002009D01*
X006234Y001273D02*
X006236Y001299D01*
X006242Y001325D01*
X006252Y001350D01*
X006265Y001373D01*
X006281Y001393D01*
X006301Y001411D01*
X006323Y001426D01*
X006346Y001438D01*
X006372Y001446D01*
X006398Y001450D01*
X006424Y001450D01*
X006450Y001446D01*
X006476Y001438D01*
X006500Y001426D01*
X006521Y001411D01*
X006541Y001393D01*
X006557Y001373D01*
X006570Y001350D01*
X006580Y001325D01*
X006586Y001299D01*
X006588Y001273D01*
X006586Y001247D01*
X006580Y001221D01*
X006570Y001196D01*
X006557Y001173D01*
X006541Y001153D01*
X006521Y001135D01*
X006499Y001120D01*
X006476Y001108D01*
X006450Y001100D01*
X006424Y001096D01*
X006398Y001096D01*
X006372Y001100D01*
X006346Y001108D01*
X006322Y001120D01*
X006301Y001135D01*
X006281Y001153D01*
X006265Y001173D01*
X006252Y001196D01*
X006242Y001221D01*
X006236Y001247D01*
X006234Y001273D01*
X007415Y001273D02*
X007417Y001299D01*
X007423Y001325D01*
X007433Y001350D01*
X007446Y001373D01*
X007462Y001393D01*
X007482Y001411D01*
X007504Y001426D01*
X007527Y001438D01*
X007553Y001446D01*
X007579Y001450D01*
X007605Y001450D01*
X007631Y001446D01*
X007657Y001438D01*
X007681Y001426D01*
X007702Y001411D01*
X007722Y001393D01*
X007738Y001373D01*
X007751Y001350D01*
X007761Y001325D01*
X007767Y001299D01*
X007769Y001273D01*
X007767Y001247D01*
X007761Y001221D01*
X007751Y001196D01*
X007738Y001173D01*
X007722Y001153D01*
X007702Y001135D01*
X007680Y001120D01*
X007657Y001108D01*
X007631Y001100D01*
X007605Y001096D01*
X007579Y001096D01*
X007553Y001100D01*
X007527Y001108D01*
X007503Y001120D01*
X007482Y001135D01*
X007462Y001153D01*
X007446Y001173D01*
X007433Y001196D01*
X007423Y001221D01*
X007417Y001247D01*
X007415Y001273D01*
X007447Y003682D02*
X007007Y003682D01*
X006896Y003792D01*
X006896Y004012D01*
X007007Y004123D01*
X006896Y004290D02*
X007447Y004290D01*
X007557Y004400D01*
X007557Y004620D01*
X007447Y004730D01*
X006896Y004730D01*
X006896Y004898D02*
X006896Y005338D01*
X006896Y005118D02*
X007557Y005118D01*
X007447Y006113D02*
X007007Y006113D01*
X006896Y006223D01*
X006896Y006443D01*
X007007Y006553D01*
X007447Y006553D01*
X007557Y006443D01*
X007557Y006223D01*
X007447Y006113D01*
X007447Y006721D02*
X006896Y006721D01*
X007447Y006721D02*
X007557Y006831D01*
X007557Y007051D01*
X007447Y007161D01*
X006896Y007161D01*
X006896Y007328D02*
X006896Y007769D01*
X006896Y007549D02*
X007557Y007549D01*
X007447Y004123D02*
X007557Y004012D01*
X007557Y003792D01*
X007447Y003682D01*
X013990Y011206D02*
X014047Y011210D01*
X014104Y011209D01*
X014161Y011205D01*
X014217Y011197D01*
X014273Y011186D01*
X014328Y011171D01*
X014382Y011152D01*
X014434Y011130D01*
X014485Y011104D01*
X014534Y011075D01*
X014581Y011043D01*
X014626Y011008D01*
X014668Y010970D01*
X014708Y010930D01*
X014746Y010887D01*
X014780Y010841D01*
X014811Y010794D01*
X014839Y010744D01*
X014864Y010693D01*
X014886Y010640D01*
X014903Y010586D01*
X014918Y010531D01*
X014928Y010475D01*
X014935Y010419D01*
D11*
X017641Y009259D02*
X017908Y008992D01*
X017775Y008992D02*
X017775Y009259D01*
X017908Y009259D02*
X017641Y008992D01*
X017641Y009125D02*
X017908Y009125D01*
X017870Y008436D02*
X017870Y008169D01*
X017803Y008169D02*
X017670Y008303D01*
X017803Y008436D01*
X018070Y008436D01*
X018070Y008169D02*
X017803Y008169D01*
X021421Y005834D02*
X021688Y005567D01*
X021688Y005700D02*
X021421Y005700D01*
X021421Y005567D02*
X021688Y005834D01*
X021554Y005834D02*
X021554Y005567D01*
X018055Y003271D02*
X017988Y003338D01*
X017921Y003338D01*
X017854Y003271D01*
X017854Y003071D01*
X017654Y003071D02*
X017654Y003271D01*
X017721Y003338D01*
X017788Y003338D01*
X017854Y003271D01*
X018055Y003271D02*
X018055Y003071D01*
X017654Y003071D01*
X017694Y002503D02*
X017961Y002236D01*
X017961Y002369D02*
X017694Y002369D01*
X017694Y002236D02*
X017961Y002503D01*
X017827Y002503D02*
X017827Y002236D01*
X008240Y002425D02*
X008240Y002825D01*
X007973Y002825D02*
X008240Y002425D01*
X007973Y002425D02*
X007973Y002825D01*
X007780Y002759D02*
X007713Y002825D01*
X007580Y002825D01*
X007513Y002759D01*
X007513Y002492D01*
X007580Y002425D01*
X007713Y002425D01*
X007780Y002492D01*
X007780Y002759D01*
X007319Y002625D02*
X007053Y002625D01*
X006726Y002625D02*
X006592Y002625D01*
X006592Y002425D02*
X006592Y002825D01*
X006859Y002825D01*
X006399Y002825D02*
X006132Y002825D01*
X006132Y002425D01*
X006132Y002625D02*
X006265Y002625D01*
X005938Y002492D02*
X005938Y002759D01*
X005872Y002825D01*
X005738Y002825D01*
X005671Y002759D01*
X005671Y002492D01*
X005738Y002425D01*
X005872Y002425D01*
X005938Y002492D01*
X006559Y008571D02*
X006559Y008838D01*
X006692Y008971D01*
X006826Y008838D01*
X006826Y008571D01*
X006826Y008771D02*
X006559Y008771D01*
X008020Y008791D02*
X008221Y008791D01*
X008287Y008724D01*
X008287Y008657D01*
X008221Y008590D01*
X008020Y008590D01*
X008020Y008991D01*
X008221Y008991D01*
X008287Y008924D01*
X008287Y008857D01*
X008221Y008791D01*
D12*
X008707Y009056D02*
X008707Y009686D01*
X008510Y009686D01*
X008510Y010080D01*
X008707Y010080D01*
X008707Y010788D01*
X007486Y010788D01*
X007486Y009056D01*
X008707Y009056D01*
X009317Y009038D02*
X009371Y009092D01*
X009478Y009092D01*
X009531Y009038D01*
X009531Y008985D01*
X009478Y008931D01*
X009531Y008878D01*
X009531Y008825D01*
X009478Y008771D01*
X009371Y008771D01*
X009317Y008825D01*
X009424Y008931D02*
X009478Y008931D01*
X009933Y008898D02*
X010093Y008898D01*
X010147Y008951D01*
X010147Y009058D01*
X010093Y009112D01*
X009933Y009112D01*
X009933Y008791D01*
X010040Y008898D02*
X010147Y008791D01*
X010301Y008845D02*
X010355Y008791D01*
X010462Y008791D01*
X010515Y008845D01*
X010515Y008898D01*
X010462Y008951D01*
X010355Y008951D01*
X010301Y009005D01*
X010301Y009058D01*
X010355Y009112D01*
X010462Y009112D01*
X010515Y009058D01*
X010670Y009112D02*
X010883Y009112D01*
X010777Y009112D02*
X010777Y008791D01*
X011159Y008808D02*
X011373Y008808D01*
X011266Y008808D02*
X011266Y009129D01*
X011159Y009022D01*
X011528Y008969D02*
X011741Y008969D01*
X011688Y009129D02*
X011688Y008808D01*
X011528Y008969D02*
X011688Y009129D01*
X012120Y009024D02*
X012226Y009131D01*
X012226Y008810D01*
X012120Y008810D02*
X012333Y008810D01*
X012488Y008864D02*
X012541Y008810D01*
X012648Y008810D01*
X012702Y008864D01*
X012702Y008917D01*
X012648Y008970D01*
X012488Y008970D01*
X012488Y008864D01*
X012488Y008970D02*
X012595Y009077D01*
X012702Y009131D01*
X013140Y009016D02*
X013247Y009122D01*
X013247Y008802D01*
X013353Y008802D02*
X013140Y008802D01*
X013508Y008856D02*
X013562Y008802D01*
X013668Y008802D01*
X013722Y008856D01*
X013722Y008962D01*
X013668Y009016D01*
X013615Y009016D01*
X013508Y008962D01*
X013508Y009122D01*
X013722Y009122D01*
X013979Y009125D02*
X013979Y008911D01*
X014085Y008804D01*
X014192Y008911D01*
X014192Y009125D01*
X014347Y009071D02*
X014347Y008858D01*
X014400Y008804D01*
X014507Y008804D01*
X014560Y008858D01*
X014715Y008858D02*
X014769Y008804D01*
X014875Y008804D01*
X014929Y008858D01*
X014929Y009071D02*
X014875Y009125D01*
X014769Y009125D01*
X014715Y009071D01*
X014715Y008858D01*
X014560Y009071D02*
X014507Y009125D01*
X014400Y009125D01*
X014347Y009071D01*
X017675Y006891D02*
X017675Y006123D01*
X017872Y006123D01*
X017872Y005336D01*
X017675Y005336D01*
X017675Y004568D01*
X019447Y004568D01*
X019447Y006891D01*
X017675Y006891D01*
X018708Y004102D02*
X019358Y004102D01*
X019375Y004100D01*
X019392Y004096D01*
X019408Y004089D01*
X019422Y004079D01*
X019435Y004066D01*
X019445Y004052D01*
X019452Y004036D01*
X019456Y004019D01*
X019458Y004002D01*
X018708Y004102D02*
X018691Y004100D01*
X018674Y004096D01*
X018658Y004089D01*
X018644Y004079D01*
X018631Y004066D01*
X018621Y004052D01*
X018614Y004036D01*
X018610Y004019D01*
X018608Y004002D01*
X018608Y003402D02*
X018610Y003385D01*
X018614Y003368D01*
X018621Y003352D01*
X018631Y003338D01*
X018644Y003325D01*
X018658Y003315D01*
X018674Y003308D01*
X018691Y003304D01*
X018708Y003302D01*
X019358Y003302D01*
X019375Y003304D01*
X019392Y003308D01*
X019408Y003315D01*
X019422Y003325D01*
X019435Y003338D01*
X019445Y003352D01*
X019452Y003368D01*
X019456Y003385D01*
X019458Y003402D01*
X019358Y003098D02*
X018708Y003098D01*
X018691Y003096D01*
X018674Y003092D01*
X018658Y003085D01*
X018644Y003075D01*
X018631Y003062D01*
X018621Y003048D01*
X018614Y003032D01*
X018610Y003015D01*
X018608Y002998D01*
X019358Y003098D02*
X019375Y003096D01*
X019392Y003092D01*
X019408Y003085D01*
X019422Y003075D01*
X019435Y003062D01*
X019445Y003048D01*
X019452Y003032D01*
X019456Y003015D01*
X019458Y002998D01*
X019458Y002398D02*
X019456Y002381D01*
X019452Y002364D01*
X019445Y002348D01*
X019435Y002334D01*
X019422Y002321D01*
X019408Y002311D01*
X019392Y002304D01*
X019375Y002300D01*
X019358Y002298D01*
X018708Y002298D01*
X018691Y002300D01*
X018674Y002304D01*
X018658Y002311D01*
X018644Y002321D01*
X018631Y002334D01*
X018621Y002348D01*
X018614Y002364D01*
X018610Y002381D01*
X018608Y002398D01*
X015004Y002399D02*
X015004Y002613D01*
X014951Y002666D01*
X014791Y002666D01*
X014791Y002346D01*
X014951Y002346D01*
X015004Y002399D01*
X014636Y002346D02*
X014636Y002666D01*
X014422Y002666D02*
X014636Y002346D01*
X014422Y002346D02*
X014422Y002666D01*
X014267Y002613D02*
X014214Y002666D01*
X014107Y002666D01*
X014054Y002613D01*
X014054Y002399D01*
X014107Y002346D01*
X014214Y002346D01*
X014267Y002399D01*
X014267Y002506D01*
X014161Y002506D01*
X013802Y002161D02*
X013576Y001934D01*
X013576Y002085D01*
X013425Y002085D01*
X013651Y002312D01*
X013466Y002346D02*
X013315Y002195D01*
X013429Y002308D02*
X013278Y002459D01*
X013315Y002497D02*
X013466Y002497D01*
X013466Y002346D01*
X013315Y002497D02*
X013164Y002346D01*
X013055Y002455D02*
X013055Y002606D01*
X013093Y002568D02*
X012979Y002682D01*
X012904Y002606D02*
X013130Y002833D01*
X013244Y002719D01*
X013244Y002644D01*
X013168Y002568D01*
X013093Y002568D01*
X012411Y002571D02*
X012197Y002358D01*
X012411Y002358D01*
X012411Y002571D02*
X012411Y002624D01*
X012357Y002678D01*
X012251Y002678D01*
X012197Y002624D01*
X011576Y002614D02*
X011576Y002561D01*
X011523Y002508D01*
X011576Y002454D01*
X011576Y002401D01*
X011523Y002348D01*
X011416Y002348D01*
X011363Y002401D01*
X011470Y002508D02*
X011523Y002508D01*
X011576Y002614D02*
X011523Y002668D01*
X011416Y002668D01*
X011363Y002614D01*
X011101Y002668D02*
X011101Y002348D01*
X010995Y002348D02*
X011208Y002348D01*
X010995Y002561D02*
X011101Y002668D01*
X010580Y002605D02*
X010580Y002391D01*
X010527Y002338D01*
X010420Y002338D01*
X010366Y002391D01*
X010580Y002605D01*
X010527Y002658D01*
X010420Y002658D01*
X010366Y002605D01*
X010366Y002391D01*
X010212Y002338D02*
X010212Y002551D01*
X010105Y002658D01*
X009998Y002551D01*
X009998Y002338D01*
X009998Y002498D02*
X010212Y002498D01*
X009633Y002320D02*
X009420Y002320D01*
X009526Y002320D02*
X009526Y002640D01*
X009420Y002534D01*
X009265Y002534D02*
X009265Y002320D01*
X009265Y002480D02*
X009051Y002480D01*
X009051Y002534D02*
X009051Y002320D01*
X009051Y002534D02*
X009158Y002640D01*
X009265Y002534D01*
X005326Y002554D02*
X005272Y002500D01*
X005059Y002500D01*
X005006Y002554D01*
X005006Y002661D01*
X005059Y002714D01*
X005006Y002869D02*
X005326Y002869D01*
X005166Y002869D02*
X005166Y003082D01*
X005006Y003082D02*
X005326Y003082D01*
X004931Y003111D02*
X004750Y003111D01*
X004658Y003233D01*
X004569Y003111D02*
X004750Y003111D01*
X004760Y003117D02*
X004836Y003233D01*
X005006Y003237D02*
X005006Y003397D01*
X005059Y003451D01*
X005166Y003451D01*
X005219Y003397D01*
X005219Y003237D01*
X005326Y003237D02*
X005006Y003237D01*
X005219Y003344D02*
X005326Y003451D01*
X005272Y003605D02*
X005059Y003605D01*
X005006Y003659D01*
X005006Y003766D01*
X005059Y003819D01*
X005166Y003819D02*
X005166Y003712D01*
X005166Y003819D02*
X005272Y003819D01*
X005326Y003766D01*
X005326Y003659D01*
X005272Y003605D01*
X004454Y003594D02*
X004349Y003489D01*
X004349Y003541D02*
X004349Y003384D01*
X004454Y003384D02*
X004140Y003384D01*
X004140Y003541D01*
X004192Y003594D01*
X004297Y003594D01*
X004349Y003541D01*
X004454Y003231D02*
X004140Y003231D01*
X004014Y003066D02*
X003833Y003066D01*
X003741Y003188D01*
X003652Y003066D02*
X003833Y003066D01*
X003843Y003072D02*
X003919Y003188D01*
X004140Y003022D02*
X004454Y003022D01*
X004349Y003126D01*
X004454Y003231D01*
X004297Y002869D02*
X004349Y002816D01*
X004349Y002659D01*
X004454Y002659D02*
X004140Y002659D01*
X004140Y002816D01*
X004192Y002869D01*
X004297Y002869D01*
X005272Y002714D02*
X005326Y002661D01*
X005326Y002554D01*
X004762Y004214D02*
X004132Y004214D01*
X004762Y004214D02*
X004762Y004686D01*
X004211Y004686D01*
X004211Y006418D01*
X004762Y006418D01*
X004762Y006891D01*
X004132Y006891D01*
X004207Y007328D02*
X004994Y007328D01*
X004788Y007525D02*
X004790Y007543D01*
X004796Y007561D01*
X004805Y007577D01*
X004817Y007590D01*
X004832Y007601D01*
X004849Y007609D01*
X004867Y007613D01*
X004885Y007613D01*
X004903Y007609D01*
X004920Y007601D01*
X004935Y007590D01*
X004947Y007577D01*
X004956Y007561D01*
X004962Y007543D01*
X004964Y007525D01*
X004962Y007507D01*
X004956Y007489D01*
X004947Y007473D01*
X004935Y007460D01*
X004920Y007449D01*
X004903Y007441D01*
X004885Y007437D01*
X004867Y007437D01*
X004849Y007441D01*
X004832Y007449D01*
X004817Y007460D01*
X004805Y007473D01*
X004796Y007489D01*
X004790Y007507D01*
X004788Y007525D01*
X005585Y007958D02*
X005585Y008036D01*
X005000Y008162D02*
X005000Y008462D01*
X004650Y008462D01*
X004650Y008162D01*
X005000Y008162D01*
X004500Y008262D02*
X004400Y008262D01*
X004400Y008362D01*
X004500Y008362D01*
X004500Y008262D01*
X003616Y008036D02*
X003616Y007958D01*
X003616Y008588D02*
X003616Y008666D01*
X004207Y009296D02*
X004994Y009296D01*
X006088Y009056D02*
X006088Y010788D01*
X007309Y010788D01*
X007309Y010080D01*
X007112Y010080D01*
X007112Y009686D01*
X007309Y009686D01*
X007309Y009056D01*
X006088Y009056D01*
X005585Y008666D02*
X005585Y008588D01*
X003069Y006891D02*
X003069Y004214D01*
D13*
X006786Y009185D02*
X006729Y009241D01*
X006729Y009411D01*
X006843Y009355D02*
X006843Y009241D01*
X006786Y009185D01*
X006956Y009185D02*
X006956Y009355D01*
X006899Y009411D01*
X006843Y009355D01*
X006845Y009755D02*
X006845Y009982D01*
X006732Y009869D02*
X006958Y009869D01*
X006845Y010267D02*
X006845Y010494D01*
X008262Y010494D02*
X008262Y010267D01*
X008243Y009982D02*
X008243Y009755D01*
X008356Y009869D02*
X008129Y009869D01*
X008147Y009392D02*
X008147Y009222D01*
X008203Y009165D01*
X008260Y009222D01*
X008260Y009335D01*
X008317Y009392D01*
X008373Y009335D01*
X008373Y009165D01*
X017257Y005132D02*
X017684Y005132D01*
X017471Y005345D02*
X017471Y004918D01*
X017497Y006127D02*
X017497Y006554D01*
D14*
X014360Y001251D03*
D15*
X011770Y001960D02*
X011770Y000503D01*
X011770Y000513D02*
X010963Y000513D01*
X010963Y000503D02*
X010963Y001960D01*
X010963Y001970D02*
X011770Y001970D01*
X009821Y009588D02*
X008994Y009588D01*
X008994Y011044D01*
X009014Y011035D02*
X009821Y011035D01*
X009821Y011044D02*
X009821Y009588D01*
D16*
X008285Y008485D02*
X008285Y002974D01*
X006100Y002974D01*
X006100Y008485D01*
X008285Y008485D01*
D17*
X007906Y007961D02*
X007894Y007961D01*
X007894Y007954D01*
X006777Y007954D01*
X006447Y008296D02*
X006447Y003178D01*
X017037Y003178D01*
X017037Y008296D01*
X006447Y008296D01*
X007906Y007961D02*
X007906Y007843D01*
X007902Y007850D02*
X007920Y007850D01*
X007902Y007850D02*
X007902Y006879D01*
X006810Y006879D01*
X006810Y005711D01*
X007842Y005711D01*
X007842Y005706D01*
X007848Y005707D02*
X007806Y005707D01*
X007848Y005707D02*
X007848Y004733D01*
X006831Y004733D01*
X006831Y003738D01*
X008429Y003738D01*
X008342Y001873D02*
X006992Y001873D01*
X006992Y001423D01*
X006542Y001423D01*
X006542Y001873D01*
X006992Y001873D01*
X006542Y001873D02*
X005642Y001873D01*
X005642Y000673D01*
X008342Y000673D01*
X008342Y001873D01*
X004623Y007843D02*
X004457Y007843D01*
X004540Y007843D02*
X004540Y008093D01*
X004457Y008009D01*
X004347Y008093D02*
X004347Y007884D01*
X004306Y007843D01*
X004222Y007843D01*
X004180Y007884D01*
X004180Y008093D01*
D18*
X006163Y011041D02*
X006188Y011041D01*
X006213Y011067D01*
X006213Y011117D01*
X006238Y011142D01*
X006263Y011142D01*
X006288Y011117D01*
X006288Y011067D01*
X006263Y011041D01*
X006163Y011041D02*
X006138Y011067D01*
X006138Y011117D01*
X006163Y011142D01*
X006138Y011189D02*
X006288Y011189D01*
X006288Y011289D01*
X006288Y011336D02*
X006138Y011336D01*
X006138Y011411D01*
X006163Y011436D01*
X006213Y011436D01*
X006238Y011411D01*
X006238Y011336D01*
X006238Y011386D02*
X006288Y011436D01*
X006238Y011483D02*
X006288Y011534D01*
X006238Y011584D01*
X006138Y011584D01*
X006163Y011631D02*
X006263Y011631D01*
X006288Y011656D01*
X006288Y011706D01*
X006263Y011731D01*
X006163Y011731D01*
X006138Y011706D01*
X006138Y011656D01*
X006163Y011631D01*
X006138Y011483D02*
X006238Y011483D01*
X006138Y011289D02*
X006138Y011189D01*
X006213Y011189D02*
X006213Y011239D01*
X007536Y011289D02*
X007536Y011189D01*
X007686Y011189D01*
X007686Y011289D01*
X007686Y011336D02*
X007536Y011336D01*
X007536Y011411D01*
X007561Y011436D01*
X007611Y011436D01*
X007636Y011411D01*
X007636Y011336D01*
X007636Y011386D02*
X007686Y011436D01*
X007636Y011483D02*
X007686Y011534D01*
X007636Y011584D01*
X007536Y011584D01*
X007561Y011631D02*
X007661Y011631D01*
X007686Y011656D01*
X007686Y011706D01*
X007661Y011731D01*
X007561Y011731D01*
X007536Y011706D01*
X007536Y011656D01*
X007561Y011631D01*
X007536Y011483D02*
X007636Y011483D01*
X007611Y011239D02*
X007611Y011189D01*
X007636Y011142D02*
X007611Y011117D01*
X007611Y011067D01*
X007586Y011041D01*
X007561Y011041D01*
X007536Y011067D01*
X007536Y011117D01*
X007561Y011142D01*
X007636Y011142D02*
X007661Y011142D01*
X007686Y011117D01*
X007686Y011067D01*
X007661Y011041D01*
D19*
X019410Y005247D02*
X019717Y005247D01*
X021735Y005375D02*
X022042Y005375D01*
X021888Y005529D02*
X021888Y005222D01*
M02*
