%
M48
M72
T01C0.0118
T02C0.0157
T03C0.0197
T04C0.0276
T05C0.0315
T06C0.0354
T07C0.0394
T08C0.0400
T09C0.0472
T10C0.0630
%
T01
X14781Y3690
X17222Y3584
X16297Y3564
X17627Y4441
X16711Y3564
X12852Y8958
X16002Y5296
X15431Y3682
X11711Y4036
X9644Y7737
X12301Y3918
X10785Y5316
X12852Y6497
X12163Y7304
X17459Y9115
X17577Y7501
X4033Y2383
X9525Y3800
X8896Y2895
X17577Y6143
X12793Y7304
X19683Y9174
X20214Y9174
X21573Y8938
X19722Y2324
X20313Y2324
X20923Y2324
X21789Y8131
X21809Y7540
X21809Y6891
X21809Y3387
X20333Y3013
X20352Y3702
X18069Y7048
X17459Y8367
X16868Y9115
X21002Y8111
X21022Y7521
X21041Y6871
X20234Y8092
X20234Y6891
X20352Y4351
X21022Y6143
X21789Y6143
X20234Y6123
X20234Y7521
X13088Y6025
X10707Y4824
X9880Y9401
X3994Y7777
X4289Y8603
X9211Y7481
X10726Y5651
X4250Y3485
X10096Y6635
X10451Y5907
X11474Y7029
X15419Y4265
X12604Y5202
X9722Y4883
X8541Y6950
X10057Y4863
X5057Y8623
X10392Y4804
X10411Y3977
X10726Y3938
X12301Y4253
X10136Y6281
X16396Y4631
X13108Y5552
X16069Y4599
X12892Y4981
X17502Y2914
X10797Y6705
X9132Y5788
X8876Y3800
X9161Y5011
X5569Y6714
X9151Y5316
X5549Y3918
X5687Y8308
X12565Y6025
X15876Y5781
X15545Y3977
X12360Y5001
X5274Y5355
X15329Y9033
X12577Y5533
X13955Y5355
X8226Y2344
X13522Y2659
X13285Y1911
X8522Y2422
X4407Y2599
X12533Y6568
X14655Y4792
X11022Y5946
X11022Y5060
X17675Y4824
X17557Y5729
X10510Y5178
X13344Y5355
X5274Y5788
X11651Y4351
X11100Y6694
T02
X15448Y2351
X4447Y7245
X8746Y505
X5175Y6162
X7203Y1989
X14663Y7245
X13911Y2521
X7124Y533
T03
X6474Y9430
X6474Y9922
X6474Y10414
X7872Y9430
X7872Y9922
X7872Y10414
T04
X18344Y6123
X18344Y5336
T05
X21541Y5105
X20242Y5105
T06
X7592Y1273
X6411Y1273
T07
X20892Y5105
X20892Y9121
T08
X18478Y8800
X18478Y7800
X18514Y2706
X18514Y3706
X9407Y10277
X10407Y10177
X11407Y10277
X12407Y10177
X13407Y10277
X14407Y10177
X14358Y1290
X13358Y1190
X12358Y1290
X11358Y1190
X10358Y1290
X9358Y1190
T09
X4821Y4371
X4821Y6733
X3837Y5552
T10
X21514Y4056
X21317Y3013
M30
