G75*
G70*
%OFA0B0*%
%FSLAX24Y24*%
%IPPOS*%
%LPD*%
%AMOC8*
5,1,8,0,0,1.08239X$1,22.5*
%
%ADD10C,0.0000*%
%ADD11C,0.0039*%
%ADD12R,0.0315X0.0315*%
%ADD13R,0.0320X0.0660*%
%ADD14R,0.0660X0.0320*%
%ADD15C,0.0433*%
%ADD16C,0.0740*%
%ADD17C,0.0640*%
%ADD18R,0.0551X0.0138*%
%ADD19C,0.0709*%
%ADD20R,0.0394X0.0315*%
%ADD21R,0.0276X0.0591*%
%ADD22C,0.0397*%
%ADD23R,0.0394X0.0787*%
%ADD24C,0.0600*%
%ADD25C,0.0515*%
%ADD26C,0.0660*%
%ADD27C,0.0787*%
%ADD28C,0.0080*%
%ADD29R,0.0250X0.0500*%
%ADD30C,0.0059*%
%ADD31C,0.0238*%
%ADD32C,0.0160*%
%ADD33C,0.0098*%
%ADD34C,0.0060*%
%ADD35C,0.0277*%
%ADD36C,0.0100*%
%ADD37OC8,0.0238*%
%ADD38C,0.0120*%
%ADD39C,0.0157*%
D10*
X003148Y002009D02*
X003148Y009489D01*
X005313Y009489D01*
X005313Y011222D01*
X013990Y011206D01*
X014935Y010418D02*
X014935Y009501D01*
X021061Y009489D01*
X021123Y009487D01*
X021184Y009481D01*
X021245Y009472D01*
X021306Y009458D01*
X021365Y009441D01*
X021423Y009420D01*
X021480Y009395D01*
X021535Y009367D01*
X021588Y009336D01*
X021639Y009301D01*
X021688Y009263D01*
X021735Y009222D01*
X021778Y009179D01*
X021819Y009132D01*
X021857Y009083D01*
X021892Y009032D01*
X021923Y008979D01*
X021951Y008924D01*
X021976Y008867D01*
X021997Y008809D01*
X022014Y008750D01*
X022028Y008689D01*
X022037Y008628D01*
X022043Y008567D01*
X022045Y008505D01*
X022045Y002974D01*
X021002Y003013D02*
X021004Y003048D01*
X021010Y003083D01*
X021020Y003117D01*
X021033Y003150D01*
X021050Y003181D01*
X021071Y003209D01*
X021094Y003236D01*
X021121Y003259D01*
X021149Y003280D01*
X021180Y003297D01*
X021213Y003310D01*
X021247Y003320D01*
X021282Y003326D01*
X021317Y003328D01*
X021352Y003326D01*
X021387Y003320D01*
X021421Y003310D01*
X021454Y003297D01*
X021485Y003280D01*
X021513Y003259D01*
X021540Y003236D01*
X021563Y003209D01*
X021584Y003181D01*
X021601Y003150D01*
X021614Y003117D01*
X021624Y003083D01*
X021630Y003048D01*
X021632Y003013D01*
X021630Y002978D01*
X021624Y002943D01*
X021614Y002909D01*
X021601Y002876D01*
X021584Y002845D01*
X021563Y002817D01*
X021540Y002790D01*
X021513Y002767D01*
X021485Y002746D01*
X021454Y002729D01*
X021421Y002716D01*
X021387Y002706D01*
X021352Y002700D01*
X021317Y002698D01*
X021282Y002700D01*
X021247Y002706D01*
X021213Y002716D01*
X021180Y002729D01*
X021149Y002746D01*
X021121Y002767D01*
X021094Y002790D01*
X021071Y002817D01*
X021050Y002845D01*
X021033Y002876D01*
X021020Y002909D01*
X021010Y002943D01*
X021004Y002978D01*
X021002Y003013D01*
X021081Y002009D02*
X021142Y002011D01*
X021202Y002017D01*
X021262Y002026D01*
X021321Y002039D01*
X021379Y002056D01*
X021436Y002077D01*
X021492Y002101D01*
X021546Y002128D01*
X021598Y002159D01*
X021648Y002193D01*
X021696Y002230D01*
X021742Y002271D01*
X021784Y002313D01*
X021825Y002359D01*
X021862Y002407D01*
X021896Y002457D01*
X021927Y002509D01*
X021954Y002563D01*
X021978Y002619D01*
X021999Y002676D01*
X022016Y002734D01*
X022029Y002793D01*
X022038Y002853D01*
X022044Y002913D01*
X022046Y002974D01*
X021199Y004056D02*
X021201Y004091D01*
X021207Y004126D01*
X021217Y004160D01*
X021230Y004193D01*
X021247Y004224D01*
X021268Y004252D01*
X021291Y004279D01*
X021318Y004302D01*
X021346Y004323D01*
X021377Y004340D01*
X021410Y004353D01*
X021444Y004363D01*
X021479Y004369D01*
X021514Y004371D01*
X021549Y004369D01*
X021584Y004363D01*
X021618Y004353D01*
X021651Y004340D01*
X021682Y004323D01*
X021710Y004302D01*
X021737Y004279D01*
X021760Y004252D01*
X021781Y004224D01*
X021798Y004193D01*
X021811Y004160D01*
X021821Y004126D01*
X021827Y004091D01*
X021829Y004056D01*
X021827Y004021D01*
X021821Y003986D01*
X021811Y003952D01*
X021798Y003919D01*
X021781Y003888D01*
X021760Y003860D01*
X021737Y003833D01*
X021710Y003810D01*
X021682Y003789D01*
X021651Y003772D01*
X021618Y003759D01*
X021584Y003749D01*
X021549Y003743D01*
X021514Y003741D01*
X021479Y003743D01*
X021444Y003749D01*
X021410Y003759D01*
X021377Y003772D01*
X021346Y003789D01*
X021318Y003810D01*
X021291Y003833D01*
X021268Y003860D01*
X021247Y003888D01*
X021230Y003919D01*
X021217Y003952D01*
X021207Y003986D01*
X021201Y004021D01*
X021199Y004056D01*
X021081Y002009D02*
X014951Y002021D01*
X014951Y001210D01*
X014949Y001149D01*
X014943Y001089D01*
X014934Y001029D01*
X014921Y000970D01*
X014904Y000912D01*
X014883Y000855D01*
X014859Y000799D01*
X014832Y000745D01*
X014801Y000693D01*
X014767Y000643D01*
X014730Y000595D01*
X014689Y000549D01*
X014647Y000507D01*
X014601Y000466D01*
X014553Y000429D01*
X014503Y000395D01*
X014451Y000364D01*
X014397Y000337D01*
X014341Y000313D01*
X014284Y000292D01*
X014226Y000275D01*
X014167Y000262D01*
X014107Y000253D01*
X014047Y000247D01*
X013986Y000245D01*
X005293Y000237D01*
X005293Y002009D01*
X003148Y002009D01*
X006234Y001273D02*
X006236Y001299D01*
X006242Y001325D01*
X006252Y001350D01*
X006265Y001373D01*
X006281Y001393D01*
X006301Y001411D01*
X006323Y001426D01*
X006346Y001438D01*
X006372Y001446D01*
X006398Y001450D01*
X006424Y001450D01*
X006450Y001446D01*
X006476Y001438D01*
X006500Y001426D01*
X006521Y001411D01*
X006541Y001393D01*
X006557Y001373D01*
X006570Y001350D01*
X006580Y001325D01*
X006586Y001299D01*
X006588Y001273D01*
X006586Y001247D01*
X006580Y001221D01*
X006570Y001196D01*
X006557Y001173D01*
X006541Y001153D01*
X006521Y001135D01*
X006499Y001120D01*
X006476Y001108D01*
X006450Y001100D01*
X006424Y001096D01*
X006398Y001096D01*
X006372Y001100D01*
X006346Y001108D01*
X006322Y001120D01*
X006301Y001135D01*
X006281Y001153D01*
X006265Y001173D01*
X006252Y001196D01*
X006242Y001221D01*
X006236Y001247D01*
X006234Y001273D01*
X007415Y001273D02*
X007417Y001299D01*
X007423Y001325D01*
X007433Y001350D01*
X007446Y001373D01*
X007462Y001393D01*
X007482Y001411D01*
X007504Y001426D01*
X007527Y001438D01*
X007553Y001446D01*
X007579Y001450D01*
X007605Y001450D01*
X007631Y001446D01*
X007657Y001438D01*
X007681Y001426D01*
X007702Y001411D01*
X007722Y001393D01*
X007738Y001373D01*
X007751Y001350D01*
X007761Y001325D01*
X007767Y001299D01*
X007769Y001273D01*
X007767Y001247D01*
X007761Y001221D01*
X007751Y001196D01*
X007738Y001173D01*
X007722Y001153D01*
X007702Y001135D01*
X007680Y001120D01*
X007657Y001108D01*
X007631Y001100D01*
X007605Y001096D01*
X007579Y001096D01*
X007553Y001100D01*
X007527Y001108D01*
X007503Y001120D01*
X007482Y001135D01*
X007462Y001153D01*
X007446Y001173D01*
X007433Y001196D01*
X007423Y001221D01*
X007417Y001247D01*
X007415Y001273D01*
X007447Y003682D02*
X007007Y003682D01*
X006896Y003792D01*
X006896Y004012D01*
X007007Y004123D01*
X006896Y004290D02*
X007447Y004290D01*
X007557Y004400D01*
X007557Y004620D01*
X007447Y004730D01*
X006896Y004730D01*
X006896Y004898D02*
X006896Y005338D01*
X006896Y005118D02*
X007557Y005118D01*
X007447Y006113D02*
X007007Y006113D01*
X006896Y006223D01*
X006896Y006443D01*
X007007Y006553D01*
X007447Y006553D01*
X007557Y006443D01*
X007557Y006223D01*
X007447Y006113D01*
X007447Y006721D02*
X006896Y006721D01*
X007447Y006721D02*
X007557Y006831D01*
X007557Y007051D01*
X007447Y007161D01*
X006896Y007161D01*
X006896Y007328D02*
X006896Y007769D01*
X006896Y007549D02*
X007557Y007549D01*
X007447Y004123D02*
X007557Y004012D01*
X007557Y003792D01*
X007447Y003682D01*
X013990Y011206D02*
X014047Y011210D01*
X014104Y011209D01*
X014161Y011205D01*
X014217Y011197D01*
X014273Y011186D01*
X014328Y011171D01*
X014382Y011152D01*
X014434Y011130D01*
X014485Y011104D01*
X014534Y011075D01*
X014581Y011043D01*
X014626Y011008D01*
X014668Y010970D01*
X014708Y010930D01*
X014746Y010887D01*
X014780Y010841D01*
X014811Y010794D01*
X014839Y010744D01*
X014864Y010693D01*
X014886Y010640D01*
X014903Y010586D01*
X014918Y010531D01*
X014928Y010475D01*
X014935Y010419D01*
D11*
X008285Y008485D02*
X008285Y002974D01*
X006100Y002974D01*
X006100Y008485D01*
X008285Y008485D01*
D12*
X004750Y003474D03*
X003833Y003428D03*
X003833Y002838D03*
X004750Y002883D03*
D13*
X009246Y003178D03*
X009837Y003178D03*
X010427Y003178D03*
X011018Y003178D03*
X011608Y003178D03*
X012199Y003178D03*
X012789Y003178D03*
X013380Y003178D03*
X013970Y003178D03*
X015151Y003178D03*
X015742Y003178D03*
X016333Y003178D03*
X016333Y008296D03*
X015742Y008296D03*
X015151Y008296D03*
X014561Y008296D03*
X013970Y008296D03*
X013380Y008296D03*
X012789Y008296D03*
X012199Y008296D03*
X011608Y008296D03*
X011018Y008296D03*
X010427Y008296D03*
X009837Y008296D03*
D14*
X017037Y007812D03*
X017037Y007222D03*
X017037Y006631D03*
X017037Y006040D03*
X017037Y005450D03*
X017037Y004859D03*
X017037Y004269D03*
X017037Y003678D03*
D15*
X005722Y007643D02*
X005368Y007643D01*
X005722Y007643D02*
X005722Y007643D01*
X005368Y007643D01*
X005368Y007643D01*
X005368Y008312D02*
X005722Y008312D01*
X005722Y008312D01*
X005368Y008312D01*
X005368Y008312D01*
X005368Y008981D02*
X005722Y008981D01*
X005722Y008981D01*
X005368Y008981D01*
X005368Y008981D01*
X003832Y008981D02*
X003478Y008981D01*
X003832Y008981D02*
X003832Y008981D01*
X003478Y008981D01*
X003478Y008981D01*
X003478Y008312D02*
X003832Y008312D01*
X003832Y008312D01*
X003478Y008312D01*
X003478Y008312D01*
X003478Y007643D02*
X003832Y007643D01*
X003832Y007643D01*
X003478Y007643D01*
X003478Y007643D01*
D16*
X018478Y007800D03*
X018478Y008800D03*
X018514Y003706D03*
X018514Y002706D03*
D17*
X018344Y005336D03*
X018344Y006123D03*
D18*
X004683Y006064D03*
X004683Y005808D03*
X004683Y005552D03*
X004683Y005296D03*
X004683Y005040D03*
D19*
X004821Y004371D03*
X003837Y005552D03*
X004821Y006733D03*
D20*
X005561Y001706D03*
X005565Y000836D03*
X008443Y000836D03*
X008443Y001706D03*
D21*
X007888Y001934D03*
X006707Y001934D03*
X006116Y001934D03*
X006116Y000584D03*
X006707Y000584D03*
X007888Y000584D03*
D22*
X007872Y009430D03*
X007872Y009922D03*
X007872Y010414D03*
X006474Y010414D03*
X006474Y009922D03*
X006474Y009430D03*
D23*
X009407Y010887D03*
X011407Y010887D03*
X013407Y010887D03*
X012407Y009588D03*
X010407Y009588D03*
X014407Y009588D03*
X014368Y001891D03*
X012368Y001891D03*
X010368Y001891D03*
X009368Y000592D03*
X011368Y000592D03*
X013368Y000592D03*
D24*
X013358Y000890D02*
X013358Y001490D01*
X012358Y001590D02*
X012358Y000990D01*
X011358Y000890D02*
X011358Y001490D01*
X010358Y001590D02*
X010358Y000990D01*
X009358Y000890D02*
X009358Y001490D01*
X014358Y001590D02*
X014358Y000990D01*
X014407Y009877D02*
X014407Y010477D01*
X013407Y010577D02*
X013407Y009977D01*
X012407Y009877D02*
X012407Y010477D01*
X011407Y010577D02*
X011407Y009977D01*
X010407Y009877D02*
X010407Y010477D01*
X009407Y010577D02*
X009407Y009977D01*
D25*
X020242Y005105D03*
X021541Y005105D03*
D26*
X020892Y005105D03*
D27*
X020892Y009121D03*
D28*
X019183Y003702D02*
X018883Y003702D01*
X018883Y002698D02*
X019183Y002698D01*
D29*
X019233Y002698D03*
X018833Y002698D03*
X018833Y003702D03*
X019233Y003702D03*
D30*
X019448Y003841D02*
X019448Y003989D01*
X019395Y004041D01*
X019071Y004041D01*
X019033Y004003D01*
X018995Y004041D01*
X018828Y004041D01*
X018774Y004095D01*
X018605Y004165D01*
X018422Y004165D01*
X018253Y004095D01*
X018124Y003966D01*
X018054Y003797D01*
X018054Y003614D01*
X018124Y003445D01*
X018253Y003316D01*
X018422Y003246D01*
X018605Y003246D01*
X018774Y003316D01*
X018820Y003362D01*
X018995Y003362D01*
X019033Y003400D01*
X019034Y003400D01*
X019033Y003400D02*
X019071Y003362D01*
X019395Y003362D01*
X019448Y003415D01*
X019448Y003562D01*
X019997Y003562D01*
X020115Y003680D01*
X020197Y003762D01*
X020197Y004471D01*
X020292Y004566D01*
X020374Y004648D01*
X020374Y004784D01*
X020439Y004811D01*
X020524Y004897D01*
X020536Y004868D01*
X020654Y004750D01*
X020808Y004686D01*
X020975Y004686D01*
X021129Y004750D01*
X021247Y004868D01*
X021259Y004897D01*
X021344Y004812D01*
X020587Y004055D01*
X020587Y003012D01*
X020413Y002837D01*
X019448Y002837D01*
X019448Y002985D01*
X019395Y003037D01*
X019071Y003037D01*
X019033Y003000D01*
X018995Y003037D01*
X018832Y003037D01*
X018774Y003095D01*
X018605Y003165D01*
X018422Y003165D01*
X018253Y003095D01*
X018124Y002966D01*
X018054Y002797D01*
X018054Y002614D01*
X018124Y002445D01*
X018253Y002316D01*
X018422Y002246D01*
X018605Y002246D01*
X018774Y002316D01*
X018816Y002358D01*
X018995Y002358D01*
X019033Y002396D01*
X019071Y002358D01*
X019395Y002358D01*
X019448Y002411D01*
X019448Y002558D01*
X020528Y002558D01*
X020784Y002814D01*
X020866Y002896D01*
X020866Y003939D01*
X021069Y004143D01*
X021069Y003968D01*
X021137Y003804D01*
X021262Y003679D01*
X021425Y003612D01*
X021602Y003612D01*
X021765Y003679D01*
X021891Y003804D01*
X021916Y003865D01*
X021916Y002974D01*
X021905Y002843D01*
X021825Y002594D01*
X021671Y002383D01*
X021460Y002229D01*
X021211Y002149D01*
X021081Y002138D01*
X015004Y002150D01*
X014951Y002150D01*
X014897Y002150D01*
X014859Y002113D01*
X014821Y002075D01*
X014821Y002075D01*
X014821Y002074D01*
X014821Y002021D01*
X014821Y001967D01*
X014821Y001210D01*
X014811Y001079D01*
X014788Y001008D01*
X014788Y001261D01*
X014388Y001261D01*
X014388Y001320D01*
X014788Y001320D01*
X014788Y001624D01*
X014777Y001691D01*
X014756Y001755D01*
X014726Y001816D01*
X014694Y001858D01*
X014694Y001861D01*
X014692Y001861D01*
X014686Y001870D01*
X014638Y001918D01*
X014635Y001920D01*
X014694Y001920D01*
X014694Y002302D01*
X014686Y002335D01*
X014669Y002364D01*
X018206Y002364D01*
X018148Y002421D02*
X014135Y002421D01*
X014140Y002426D02*
X014140Y002485D01*
X014908Y002485D01*
X014954Y002479D01*
X014964Y002469D01*
X015022Y002469D01*
X015080Y002461D01*
X015090Y002469D01*
X016796Y002473D01*
X016797Y002472D01*
X016866Y002473D01*
X016935Y002473D01*
X016936Y002475D01*
X016938Y002475D01*
X016985Y002524D01*
X017034Y002573D01*
X017034Y002575D01*
X017261Y002812D01*
X017293Y002844D01*
X017293Y002828D01*
X017309Y002812D01*
X017309Y002809D01*
X017397Y002722D01*
X017400Y002722D01*
X017415Y002706D01*
X017588Y002706D01*
X017710Y002828D01*
X017710Y002912D01*
X017863Y003064D01*
X017907Y003107D01*
X017907Y003108D01*
X017907Y003170D01*
X020587Y003170D01*
X020587Y003227D02*
X017908Y003227D01*
X017907Y003170D02*
X017911Y003445D01*
X017913Y003448D01*
X017911Y003507D01*
X017912Y003565D01*
X017909Y003568D01*
X017901Y003798D01*
X018837Y004681D01*
X018840Y004681D01*
X018879Y004720D01*
X018919Y004758D01*
X018919Y004761D01*
X018921Y004763D01*
X018921Y004818D01*
X018923Y004874D01*
X018921Y004876D01*
X018917Y006344D01*
X018919Y006346D01*
X018917Y006401D01*
X018917Y006457D01*
X018915Y006459D01*
X018915Y006461D01*
X018874Y006499D01*
X018835Y006538D01*
X018832Y006538D01*
X018744Y006621D01*
X018744Y007416D01*
X018868Y007540D01*
X018938Y007709D01*
X018938Y007892D01*
X018868Y008061D01*
X018739Y008190D01*
X018570Y008260D01*
X018387Y008260D01*
X018218Y008190D01*
X018089Y008061D01*
X018019Y007892D01*
X018019Y007709D01*
X018089Y007540D01*
X018218Y007411D01*
X018387Y007341D01*
X018465Y007341D01*
X018465Y006615D01*
X018463Y006613D01*
X018465Y006558D01*
X018465Y006557D01*
X018450Y006562D01*
X018380Y006573D01*
X018374Y006573D01*
X018374Y006153D01*
X018315Y006153D01*
X018315Y006573D01*
X018309Y006573D01*
X018239Y006562D01*
X018172Y006540D01*
X018109Y006508D01*
X017457Y006508D01*
X017457Y006565D02*
X018263Y006565D01*
X018315Y006565D02*
X018374Y006565D01*
X018426Y006565D02*
X018464Y006565D01*
X018465Y006623D02*
X017457Y006623D01*
X017457Y006680D02*
X018465Y006680D01*
X018465Y006738D02*
X017457Y006738D01*
X017457Y006796D02*
X018465Y006796D01*
X018465Y006853D02*
X017432Y006853D01*
X017457Y006828D02*
X017404Y006881D01*
X016670Y006881D01*
X016618Y006828D01*
X016618Y006434D01*
X016670Y006381D01*
X017404Y006381D01*
X017457Y006434D01*
X017457Y006828D01*
X017404Y006972D02*
X017457Y007024D01*
X017457Y007419D01*
X017404Y007471D01*
X016670Y007471D01*
X016618Y007419D01*
X016618Y007024D01*
X016670Y006972D01*
X017404Y006972D01*
X017457Y007026D02*
X018465Y007026D01*
X018465Y007083D02*
X017457Y007083D01*
X017457Y007141D02*
X018465Y007141D01*
X018465Y007198D02*
X017457Y007198D01*
X017457Y007256D02*
X018465Y007256D01*
X018465Y007314D02*
X017457Y007314D01*
X017457Y007371D02*
X018313Y007371D01*
X018200Y007429D02*
X017447Y007429D01*
X017417Y007531D02*
X017447Y007548D01*
X017471Y007573D01*
X017488Y007602D01*
X017497Y007635D01*
X017497Y007783D01*
X017067Y007783D01*
X017067Y007842D01*
X017008Y007842D01*
X017008Y008102D01*
X016690Y008102D01*
X016657Y008093D01*
X016628Y008076D01*
X016622Y008070D01*
X016622Y008267D01*
X016362Y008267D01*
X016362Y008326D01*
X016303Y008326D01*
X016303Y008756D01*
X016156Y008756D01*
X016123Y008747D01*
X016093Y008730D01*
X016069Y008706D01*
X016052Y008676D01*
X016043Y008643D01*
X016043Y008326D01*
X016303Y008326D01*
X016303Y008267D01*
X016043Y008267D01*
X016043Y007949D01*
X016052Y007916D01*
X016069Y007887D01*
X016093Y007863D01*
X016123Y007846D01*
X016156Y007837D01*
X016303Y007837D01*
X016303Y008267D01*
X016362Y008267D01*
X016362Y007837D01*
X016510Y007837D01*
X016543Y007846D01*
X016572Y007863D01*
X016578Y007868D01*
X016578Y007842D01*
X017008Y007842D01*
X017008Y007783D01*
X016578Y007783D01*
X016578Y007635D01*
X016587Y007602D01*
X016604Y007573D01*
X016628Y007548D01*
X016657Y007531D01*
X016690Y007523D01*
X017008Y007523D01*
X017008Y007783D01*
X017067Y007783D01*
X017067Y007523D01*
X017384Y007523D01*
X017417Y007531D01*
X017439Y007544D02*
X018087Y007544D01*
X018063Y007601D02*
X017488Y007601D01*
X017497Y007659D02*
X018039Y007659D01*
X018019Y007716D02*
X017497Y007716D01*
X017497Y007774D02*
X018019Y007774D01*
X018019Y007832D02*
X017067Y007832D01*
X017067Y007842D02*
X017497Y007842D01*
X017497Y007989D01*
X017488Y008022D01*
X017471Y008052D01*
X017447Y008076D01*
X017417Y008093D01*
X017384Y008102D01*
X017067Y008102D01*
X017067Y007842D01*
X017067Y007889D02*
X017008Y007889D01*
X017008Y007832D02*
X013228Y007832D01*
X013228Y007798D02*
X013228Y007877D01*
X013577Y007877D01*
X013629Y007929D01*
X013629Y008663D01*
X013577Y008716D01*
X013339Y008716D01*
X013465Y008842D01*
X013547Y008924D01*
X013547Y009613D01*
X013628Y009646D01*
X013738Y009756D01*
X013797Y009899D01*
X013797Y010654D01*
X013738Y010797D01*
X013694Y010841D01*
X013694Y011077D01*
X013943Y011076D01*
X013948Y011072D01*
X013996Y011076D01*
X014043Y011076D01*
X014045Y011077D01*
X014118Y011078D01*
X014344Y011027D01*
X014543Y010908D01*
X014655Y010780D01*
X014628Y010807D01*
X014485Y010866D01*
X014330Y010866D01*
X014187Y010807D01*
X014077Y010697D01*
X014018Y010554D01*
X014018Y009799D01*
X014077Y009656D01*
X014121Y009612D01*
X014121Y009157D01*
X014173Y009104D01*
X014641Y009104D01*
X014694Y009157D01*
X014694Y009612D01*
X014738Y009656D01*
X014797Y009799D01*
X014797Y010460D01*
X014805Y010410D01*
X014805Y009501D01*
X014694Y009501D01*
X014694Y009558D02*
X014805Y009558D01*
X014805Y009501D02*
X014805Y009448D01*
X014805Y009448D01*
X014805Y009447D01*
X014843Y009410D01*
X014881Y009372D01*
X014881Y009372D01*
X014881Y009372D01*
X014935Y009372D01*
X020468Y009361D01*
X020408Y009217D01*
X020408Y009025D01*
X020482Y008847D01*
X020618Y008711D01*
X020796Y008638D01*
X020988Y008638D01*
X021165Y008711D01*
X021301Y008847D01*
X021375Y009025D01*
X021375Y009217D01*
X021340Y009302D01*
X021449Y009267D01*
X021665Y009109D01*
X021822Y008893D01*
X021905Y008639D01*
X021916Y008505D01*
X021916Y004247D01*
X021891Y004308D01*
X021765Y004433D01*
X021602Y004501D01*
X021427Y004501D01*
X021599Y004673D01*
X021681Y004754D01*
X021681Y004788D01*
X021738Y004811D01*
X021835Y004909D01*
X021888Y005036D01*
X021888Y005174D01*
X021835Y005302D01*
X021738Y005400D01*
X021610Y005452D01*
X021472Y005452D01*
X021345Y005400D01*
X021259Y005314D01*
X021247Y005343D01*
X021129Y005461D01*
X020975Y005525D01*
X020808Y005525D01*
X020654Y005461D01*
X020536Y005343D01*
X020524Y005314D01*
X020439Y005400D01*
X020311Y005452D01*
X020173Y005452D01*
X020045Y005400D01*
X019948Y005302D01*
X019895Y005174D01*
X019895Y005036D01*
X019948Y004909D01*
X020045Y004811D01*
X020095Y004791D01*
X020095Y004764D01*
X019917Y004586D01*
X019917Y003878D01*
X019881Y003841D01*
X019448Y003841D01*
X019448Y003860D02*
X019900Y003860D01*
X019917Y003918D02*
X019448Y003918D01*
X019448Y003975D02*
X019917Y003975D01*
X019917Y004033D02*
X019404Y004033D01*
X019063Y004033D02*
X019004Y004033D01*
X018779Y004090D02*
X019917Y004090D01*
X019917Y004148D02*
X018647Y004148D01*
X018455Y004321D02*
X019917Y004321D01*
X019917Y004378D02*
X018516Y004378D01*
X018577Y004436D02*
X019917Y004436D01*
X019917Y004493D02*
X018638Y004493D01*
X018699Y004551D02*
X019917Y004551D01*
X019940Y004608D02*
X018760Y004608D01*
X018822Y004666D02*
X019997Y004666D01*
X020055Y004724D02*
X018883Y004724D01*
X018921Y004781D02*
X020095Y004781D01*
X020018Y004839D02*
X018922Y004839D01*
X018921Y004896D02*
X019960Y004896D01*
X019929Y004954D02*
X018921Y004954D01*
X018920Y005011D02*
X019905Y005011D01*
X019895Y005069D02*
X018920Y005069D01*
X018920Y005126D02*
X019895Y005126D01*
X019899Y005184D02*
X018920Y005184D01*
X018920Y005242D02*
X019923Y005242D01*
X019947Y005299D02*
X018920Y005299D01*
X018920Y005357D02*
X020003Y005357D01*
X020081Y005414D02*
X018919Y005414D01*
X018919Y005472D02*
X020680Y005472D01*
X020607Y005414D02*
X020403Y005414D01*
X020481Y005357D02*
X020550Y005357D01*
X021103Y005472D02*
X021916Y005472D01*
X021916Y005529D02*
X018919Y005529D01*
X018919Y005587D02*
X021916Y005587D01*
X021916Y005644D02*
X018919Y005644D01*
X018919Y005702D02*
X021916Y005702D01*
X021916Y005760D02*
X018919Y005760D01*
X018918Y005817D02*
X021916Y005817D01*
X021916Y005875D02*
X018918Y005875D01*
X018918Y005932D02*
X021916Y005932D01*
X021916Y005990D02*
X018918Y005990D01*
X018918Y006047D02*
X021916Y006047D01*
X021916Y006105D02*
X018918Y006105D01*
X018918Y006162D02*
X021916Y006162D01*
X021916Y006220D02*
X018917Y006220D01*
X018917Y006278D02*
X021916Y006278D01*
X021916Y006335D02*
X018917Y006335D01*
X018917Y006393D02*
X021916Y006393D01*
X021916Y006450D02*
X018917Y006450D01*
X018866Y006508D02*
X021916Y006508D01*
X021916Y006565D02*
X018803Y006565D01*
X018744Y006623D02*
X021916Y006623D01*
X021916Y006680D02*
X018744Y006680D01*
X018744Y006738D02*
X021916Y006738D01*
X021916Y006796D02*
X018744Y006796D01*
X018744Y006853D02*
X021916Y006853D01*
X021916Y006911D02*
X018744Y006911D01*
X018744Y006968D02*
X021916Y006968D01*
X021916Y007026D02*
X018744Y007026D01*
X018744Y007083D02*
X021916Y007083D01*
X021916Y007141D02*
X018744Y007141D01*
X018744Y007198D02*
X021916Y007198D01*
X021916Y007256D02*
X018744Y007256D01*
X018744Y007314D02*
X021916Y007314D01*
X021916Y007371D02*
X018744Y007371D01*
X018757Y007429D02*
X021916Y007429D01*
X021916Y007486D02*
X018814Y007486D01*
X018869Y007544D02*
X021916Y007544D01*
X021916Y007601D02*
X018893Y007601D01*
X018917Y007659D02*
X021916Y007659D01*
X021916Y007716D02*
X018938Y007716D01*
X018938Y007774D02*
X021916Y007774D01*
X021916Y007832D02*
X018938Y007832D01*
X018938Y007889D02*
X021916Y007889D01*
X021916Y007947D02*
X018915Y007947D01*
X018891Y008004D02*
X021916Y008004D01*
X021916Y008062D02*
X018867Y008062D01*
X018809Y008119D02*
X021916Y008119D01*
X021916Y008177D02*
X018751Y008177D01*
X018631Y008234D02*
X021916Y008234D01*
X021916Y008292D02*
X016362Y008292D01*
X016362Y008326D02*
X016622Y008326D01*
X016622Y008643D01*
X016613Y008676D01*
X016596Y008706D01*
X016572Y008730D01*
X016543Y008747D01*
X016510Y008756D01*
X016362Y008756D01*
X016362Y008326D01*
X016362Y008350D02*
X016303Y008350D01*
X016303Y008407D02*
X016362Y008407D01*
X016362Y008465D02*
X016303Y008465D01*
X016303Y008522D02*
X016362Y008522D01*
X016362Y008580D02*
X016303Y008580D01*
X016303Y008637D02*
X016362Y008637D01*
X016362Y008695D02*
X016303Y008695D01*
X016303Y008752D02*
X016362Y008752D01*
X016522Y008752D02*
X018019Y008752D01*
X018019Y008709D02*
X018089Y008540D01*
X018218Y008411D01*
X018387Y008341D01*
X018570Y008341D01*
X018739Y008411D01*
X018868Y008540D01*
X018938Y008709D01*
X018938Y008892D01*
X018868Y009061D01*
X018739Y009190D01*
X018570Y009260D01*
X018387Y009260D01*
X018218Y009190D01*
X018089Y009061D01*
X018019Y008892D01*
X018019Y008709D01*
X018025Y008695D02*
X016603Y008695D01*
X016622Y008637D02*
X018048Y008637D01*
X018072Y008580D02*
X016622Y008580D01*
X016622Y008522D02*
X018106Y008522D01*
X018164Y008465D02*
X016622Y008465D01*
X016622Y008407D02*
X018227Y008407D01*
X018365Y008350D02*
X016622Y008350D01*
X016622Y008234D02*
X018326Y008234D01*
X018205Y008177D02*
X016622Y008177D01*
X016622Y008119D02*
X018147Y008119D01*
X018090Y008062D02*
X017461Y008062D01*
X017493Y008004D02*
X018065Y008004D01*
X018042Y007947D02*
X017497Y007947D01*
X017497Y007889D02*
X018019Y007889D01*
X018142Y007486D02*
X011145Y007486D01*
X011087Y007429D02*
X014524Y007429D01*
X014569Y007473D02*
X014435Y007340D01*
X014435Y007151D01*
X014494Y007092D01*
X014494Y006952D01*
X012720Y006952D01*
X012638Y006870D01*
X012545Y006777D01*
X012447Y006777D01*
X012325Y006654D01*
X012325Y006482D01*
X012447Y006359D01*
X012620Y006359D01*
X012742Y006482D01*
X012742Y006579D01*
X012835Y006673D01*
X014563Y006673D01*
X014769Y006466D01*
X014832Y006403D01*
X012926Y006401D01*
X012924Y006403D01*
X012869Y006400D01*
X012814Y006400D01*
X012812Y006398D01*
X012808Y006398D01*
X012771Y006357D01*
X012732Y006318D01*
X012732Y006315D01*
X012654Y006230D01*
X012651Y006233D01*
X012478Y006233D01*
X012356Y006111D01*
X012356Y005938D01*
X012478Y005816D01*
X012651Y005816D01*
X012773Y005938D01*
X012773Y005945D01*
X012795Y005967D01*
X012795Y005970D01*
X012933Y006121D01*
X015373Y006125D01*
X015667Y005802D01*
X015667Y005694D01*
X015689Y005672D01*
X014799Y005672D01*
X014598Y005471D01*
X014516Y005389D01*
X014516Y004948D01*
X014500Y004932D01*
X014182Y004932D01*
X013967Y005147D01*
X014041Y005147D01*
X014163Y005269D01*
X014163Y005442D01*
X014041Y005564D01*
X013948Y005564D01*
X013681Y005844D01*
X013681Y005846D01*
X013641Y005886D01*
X013602Y005927D01*
X013600Y005927D01*
X013599Y005928D01*
X013543Y005928D01*
X013487Y005929D01*
X013485Y005928D01*
X013025Y005928D01*
X013023Y005930D01*
X012968Y005928D01*
X012913Y005928D01*
X012910Y005926D01*
X012907Y005926D01*
X012870Y005885D01*
X012831Y005846D01*
X012831Y005843D01*
X012701Y005703D01*
X012663Y005741D01*
X012490Y005741D01*
X012368Y005619D01*
X012368Y005446D01*
X012461Y005353D01*
X012396Y005288D01*
X012396Y005210D01*
X012274Y005210D01*
X012263Y005199D01*
X012263Y006573D01*
X012084Y006753D01*
X011948Y006889D01*
X011948Y006890D01*
X011909Y006929D01*
X011909Y007205D01*
X011791Y007323D01*
X011709Y007404D01*
X011169Y007404D01*
X011043Y007278D01*
X010961Y007197D01*
X010961Y006849D01*
X010954Y006843D01*
X010883Y006914D01*
X010710Y006914D01*
X010689Y006892D01*
X010689Y007030D01*
X011296Y007637D01*
X013068Y007637D01*
X013146Y007716D01*
X013228Y007798D01*
X013204Y007774D02*
X016578Y007774D01*
X016578Y007716D02*
X013147Y007716D01*
X013089Y007659D02*
X016578Y007659D01*
X016587Y007601D02*
X011260Y007601D01*
X011203Y007544D02*
X016636Y007544D01*
X016628Y007429D02*
X014803Y007429D01*
X014758Y007473D02*
X014892Y007340D01*
X014892Y007151D01*
X014833Y007092D01*
X014833Y006882D01*
X015009Y006706D01*
X015737Y006706D01*
X016575Y005869D01*
X016618Y005869D01*
X016618Y006238D01*
X016670Y006290D01*
X017404Y006290D01*
X017457Y006238D01*
X017457Y005924D01*
X017471Y005938D01*
X017643Y005938D01*
X017766Y005816D01*
X017766Y005643D01*
X017643Y005521D01*
X017471Y005521D01*
X017457Y005535D01*
X017457Y005253D01*
X017404Y005200D01*
X016670Y005200D01*
X016618Y005253D01*
X016618Y005504D01*
X016566Y005452D01*
X016552Y005452D01*
X016493Y005393D01*
X014914Y005393D01*
X014795Y005274D01*
X014795Y004948D01*
X014864Y004879D01*
X014864Y004706D01*
X014794Y004636D01*
X014831Y004636D01*
X015038Y004840D01*
X015078Y004880D01*
X015079Y004880D01*
X015079Y004880D01*
X015136Y004880D01*
X015309Y004880D01*
X015521Y005092D01*
X015562Y005133D01*
X015562Y005133D01*
X015620Y005133D01*
X016216Y005135D01*
X016218Y005136D01*
X016274Y005135D01*
X016329Y005135D01*
X016331Y005133D01*
X016334Y005133D01*
X016372Y005092D01*
X016411Y005053D01*
X016411Y005051D01*
X016493Y004963D01*
X016533Y004924D01*
X016533Y004921D01*
X016535Y004919D01*
X016533Y004864D01*
X016534Y004788D01*
X016604Y004717D01*
X016604Y004698D01*
X016613Y004708D01*
X016618Y004708D01*
X016618Y005056D01*
X016670Y005109D01*
X017404Y005109D01*
X017457Y005056D01*
X017457Y004798D01*
X017467Y004807D01*
X017467Y004910D01*
X017589Y005032D01*
X017761Y005032D01*
X017884Y004910D01*
X017884Y004737D01*
X017761Y004615D01*
X017670Y004615D01*
X017513Y004470D01*
X017474Y004431D01*
X017471Y004431D01*
X017468Y004429D01*
X017457Y004430D01*
X017457Y004113D01*
X017471Y004127D01*
X017476Y004127D01*
X017933Y004556D01*
X018196Y004810D01*
X018196Y004954D01*
X018112Y004989D01*
X017997Y005104D01*
X017935Y005254D01*
X017935Y005417D01*
X017997Y005568D01*
X018112Y005683D01*
X018171Y005707D01*
X018109Y005739D01*
X018052Y005780D01*
X018002Y005830D01*
X017960Y005888D01*
X017928Y005951D01*
X017906Y006018D01*
X017895Y006088D01*
X017895Y006094D01*
X018315Y006094D01*
X018315Y006153D01*
X017895Y006153D01*
X017895Y006158D01*
X017906Y006228D01*
X017928Y006296D01*
X017960Y006359D01*
X018002Y006416D01*
X018052Y006466D01*
X018109Y006508D01*
X018036Y006450D02*
X017457Y006450D01*
X017416Y006393D02*
X017985Y006393D01*
X017948Y006335D02*
X016108Y006335D01*
X016051Y006393D02*
X016659Y006393D01*
X016618Y006450D02*
X015993Y006450D01*
X015936Y006508D02*
X016618Y006508D01*
X016618Y006565D02*
X015878Y006565D01*
X015821Y006623D02*
X016618Y006623D01*
X016618Y006680D02*
X015763Y006680D01*
X016166Y006278D02*
X016658Y006278D01*
X016618Y006220D02*
X016223Y006220D01*
X016281Y006162D02*
X016618Y006162D01*
X016618Y006105D02*
X016339Y006105D01*
X016396Y006047D02*
X016618Y006047D01*
X016618Y005990D02*
X016454Y005990D01*
X016511Y005932D02*
X016618Y005932D01*
X016618Y005875D02*
X016569Y005875D01*
X016586Y005472D02*
X016618Y005472D01*
X016618Y005414D02*
X016514Y005414D01*
X016618Y005357D02*
X014878Y005357D01*
X014820Y005299D02*
X016618Y005299D01*
X016629Y005242D02*
X014795Y005242D01*
X014795Y005184D02*
X017964Y005184D01*
X017988Y005126D02*
X016340Y005126D01*
X016395Y005069D02*
X016630Y005069D01*
X016618Y005011D02*
X016448Y005011D01*
X016503Y004954D02*
X016618Y004954D01*
X016618Y004896D02*
X016534Y004896D01*
X016533Y004839D02*
X016618Y004839D01*
X016618Y004781D02*
X016540Y004781D01*
X016598Y004724D02*
X016618Y004724D01*
X016427Y004422D02*
X015705Y003701D01*
X015705Y003598D01*
X015545Y003598D01*
X015493Y003545D01*
X015493Y002811D01*
X015494Y002809D01*
X015399Y002809D01*
X015401Y002811D01*
X015401Y003545D01*
X015349Y003598D01*
X014954Y003598D01*
X014902Y003545D01*
X014902Y003365D01*
X014485Y003782D01*
X014837Y003783D01*
X015445Y003783D01*
X015459Y003769D01*
X015632Y003769D01*
X015754Y003891D01*
X015754Y004064D01*
X015632Y004186D01*
X015628Y004186D01*
X015628Y004351D01*
X015562Y004417D01*
X015583Y004417D01*
X015584Y004417D01*
X015587Y004417D01*
X015668Y004499D01*
X015668Y004502D01*
X015674Y004507D01*
X015866Y004507D01*
X015982Y004391D01*
X016155Y004391D01*
X016248Y004484D01*
X016309Y004422D01*
X016427Y004422D01*
X016383Y004378D02*
X015601Y004378D01*
X015605Y004436D02*
X015937Y004436D01*
X015880Y004493D02*
X015663Y004493D01*
X015628Y004321D02*
X016325Y004321D01*
X016267Y004263D02*
X015628Y004263D01*
X015628Y004206D02*
X016210Y004206D01*
X016152Y004148D02*
X015670Y004148D01*
X015727Y004090D02*
X016095Y004090D01*
X016037Y004033D02*
X015754Y004033D01*
X015754Y003975D02*
X015980Y003975D01*
X015922Y003918D02*
X015754Y003918D01*
X015723Y003860D02*
X015865Y003860D01*
X015807Y003803D02*
X015665Y003803D01*
X015749Y003745D02*
X014522Y003745D01*
X014580Y003688D02*
X015705Y003688D01*
X015705Y003630D02*
X014637Y003630D01*
X014695Y003572D02*
X014929Y003572D01*
X014902Y003515D02*
X014752Y003515D01*
X014810Y003457D02*
X014902Y003457D01*
X014902Y003400D02*
X014867Y003400D01*
X014588Y003285D02*
X014220Y003285D01*
X014220Y003342D02*
X014530Y003342D01*
X014473Y003400D02*
X014220Y003400D01*
X014220Y003457D02*
X014415Y003457D01*
X014358Y003515D02*
X014220Y003515D01*
X014220Y003545D02*
X014167Y003598D01*
X013773Y003598D01*
X013721Y003545D01*
X013721Y002811D01*
X013773Y002759D01*
X013890Y002759D01*
X013880Y002749D01*
X013817Y002749D01*
X013730Y002662D01*
X013730Y002745D01*
X013629Y002846D01*
X013629Y003545D01*
X013577Y003598D01*
X013183Y003598D01*
X013130Y003545D01*
X013130Y002811D01*
X013183Y002759D01*
X013327Y002759D01*
X013313Y002745D01*
X013313Y002572D01*
X013352Y002533D01*
X013352Y002233D01*
X013247Y002119D01*
X013199Y002119D01*
X013077Y001997D01*
X013077Y001824D01*
X013109Y001792D01*
X013028Y001711D01*
X012969Y001568D01*
X012969Y000813D01*
X013028Y000670D01*
X013082Y000616D01*
X013082Y000374D01*
X011654Y000373D01*
X011654Y000636D01*
X011688Y000670D01*
X011748Y000813D01*
X011748Y001568D01*
X011688Y001711D01*
X011579Y001821D01*
X011493Y001856D01*
X011488Y002460D01*
X011496Y002503D01*
X011488Y002516D01*
X011487Y002532D01*
X011456Y002563D01*
X011456Y002759D01*
X011805Y002759D01*
X011858Y002811D01*
X011858Y003545D01*
X011805Y003598D01*
X011456Y003598D01*
X011456Y003942D01*
X011646Y004143D01*
X011738Y004143D01*
X011860Y004265D01*
X011860Y004438D01*
X011738Y004560D01*
X011565Y004560D01*
X011443Y004438D01*
X011443Y004334D01*
X011217Y004094D01*
X011177Y004055D01*
X011177Y004053D01*
X011176Y004051D01*
X011177Y003995D01*
X011177Y003598D01*
X010866Y003598D01*
X010866Y003783D01*
X010935Y003852D01*
X010935Y004024D01*
X010885Y004074D01*
X010902Y004074D01*
X011536Y004708D01*
X011618Y004790D01*
X011618Y004905D01*
X011614Y004909D01*
X011614Y006873D01*
X011630Y006889D01*
X011630Y006813D01*
X011710Y006733D01*
X011845Y006597D01*
X011845Y006597D01*
X011886Y006556D01*
X011926Y006515D01*
X011927Y006515D01*
X011984Y006458D01*
X011984Y004547D01*
X011886Y004449D01*
X011886Y003723D01*
X012011Y003598D01*
X012002Y003598D01*
X011949Y003545D01*
X011949Y002811D01*
X012002Y002759D01*
X012358Y002759D01*
X012358Y002514D01*
X012266Y002407D01*
X012233Y002374D01*
X012134Y002374D01*
X012082Y002322D01*
X012082Y001865D01*
X012028Y001811D01*
X011969Y001668D01*
X011969Y000913D01*
X012028Y000770D01*
X012138Y000660D01*
X012281Y000601D01*
X012436Y000601D01*
X012579Y000660D01*
X012688Y000770D01*
X012748Y000913D01*
X012748Y001668D01*
X012688Y001811D01*
X012654Y001845D01*
X012654Y002322D01*
X012605Y002371D01*
X012637Y002404D01*
X012637Y002410D01*
X012641Y002414D01*
X012637Y002467D01*
X012637Y002759D01*
X012986Y002759D01*
X013039Y002811D01*
X013039Y003545D01*
X012986Y003598D01*
X012637Y003598D01*
X012637Y003622D01*
X012556Y003704D01*
X012477Y003782D01*
X012221Y003782D01*
X012165Y003838D01*
X012165Y004094D01*
X012215Y004044D01*
X012312Y004044D01*
X012673Y003683D01*
X012755Y003602D01*
X014271Y003602D01*
X014752Y003120D01*
X014834Y003039D01*
X014902Y003039D01*
X014902Y002828D01*
X014873Y002832D01*
X014862Y002824D01*
X014220Y002824D01*
X014220Y003545D01*
X014193Y003572D02*
X014300Y003572D01*
X013748Y003572D02*
X013602Y003572D01*
X013629Y003515D02*
X013721Y003515D01*
X013721Y003457D02*
X013629Y003457D01*
X013629Y003400D02*
X013721Y003400D01*
X013721Y003342D02*
X013629Y003342D01*
X013629Y003285D02*
X013721Y003285D01*
X013721Y003227D02*
X013629Y003227D01*
X013629Y003170D02*
X013721Y003170D01*
X013721Y003112D02*
X013629Y003112D01*
X013629Y003054D02*
X013721Y003054D01*
X013721Y002997D02*
X013629Y002997D01*
X013629Y002939D02*
X013721Y002939D01*
X013721Y002882D02*
X013629Y002882D01*
X013651Y002824D02*
X013721Y002824D01*
X013708Y002767D02*
X013765Y002767D01*
X013777Y002709D02*
X013730Y002709D01*
X013691Y002418D02*
X013817Y002292D01*
X014006Y002292D01*
X014054Y002340D01*
X014050Y002335D01*
X014042Y002302D01*
X014042Y001920D01*
X014082Y001920D01*
X014078Y001918D01*
X014031Y001870D01*
X013991Y001816D01*
X013960Y001755D01*
X013939Y001691D01*
X013929Y001624D01*
X013929Y001320D01*
X014329Y001320D01*
X014329Y001368D01*
X014338Y001368D01*
X014338Y001861D01*
X014388Y001861D01*
X014388Y001320D01*
X014329Y001320D01*
X014329Y001261D01*
X014388Y001261D01*
X014388Y000561D01*
X014392Y000561D01*
X014459Y000571D01*
X014523Y000592D01*
X014577Y000620D01*
X014577Y000619D01*
X014365Y000466D01*
X014117Y000385D01*
X013986Y000375D01*
X013932Y000375D01*
X013654Y000374D01*
X013654Y000636D01*
X013688Y000670D01*
X013748Y000813D01*
X013748Y001568D01*
X013688Y001711D01*
X013579Y001821D01*
X013494Y001856D01*
X013494Y001887D01*
X013644Y002049D01*
X013691Y002096D01*
X013691Y002100D01*
X013694Y002103D01*
X013691Y002170D01*
X013691Y002418D01*
X013691Y002364D02*
X013745Y002364D01*
X013691Y002306D02*
X013803Y002306D01*
X013691Y002249D02*
X014042Y002249D01*
X014043Y002306D02*
X014020Y002306D01*
X014042Y002191D02*
X013691Y002191D01*
X013693Y002134D02*
X014042Y002134D01*
X014042Y002076D02*
X013671Y002076D01*
X013616Y002019D02*
X014042Y002019D01*
X014042Y001961D02*
X013563Y001961D01*
X013509Y001903D02*
X014064Y001903D01*
X014013Y001846D02*
X013518Y001846D01*
X013611Y001788D02*
X013977Y001788D01*
X013952Y001731D02*
X013669Y001731D01*
X013704Y001673D02*
X013936Y001673D01*
X013929Y001616D02*
X013728Y001616D01*
X013748Y001558D02*
X013929Y001558D01*
X013929Y001501D02*
X013748Y001501D01*
X013748Y001443D02*
X013929Y001443D01*
X013929Y001385D02*
X013748Y001385D01*
X013748Y001328D02*
X013929Y001328D01*
X013929Y001261D02*
X013929Y000957D01*
X013939Y000890D01*
X013960Y000826D01*
X013991Y000765D01*
X014031Y000711D01*
X014078Y000663D01*
X014133Y000623D01*
X014193Y000592D01*
X014258Y000571D01*
X014324Y000561D01*
X014329Y000561D01*
X014329Y001261D01*
X013929Y001261D01*
X013929Y001213D02*
X013748Y001213D01*
X013748Y001270D02*
X014329Y001270D01*
X014329Y001213D02*
X014388Y001213D01*
X014388Y001270D02*
X014821Y001270D01*
X014821Y001213D02*
X014788Y001213D01*
X014788Y001155D02*
X014817Y001155D01*
X014812Y001098D02*
X014788Y001098D01*
X014788Y001040D02*
X014798Y001040D01*
X014788Y001328D02*
X014821Y001328D01*
X014821Y001385D02*
X014788Y001385D01*
X014788Y001443D02*
X014821Y001443D01*
X014821Y001501D02*
X014788Y001501D01*
X014788Y001558D02*
X014821Y001558D01*
X014821Y001616D02*
X014788Y001616D01*
X014780Y001673D02*
X014821Y001673D01*
X014821Y001731D02*
X014764Y001731D01*
X014739Y001788D02*
X014821Y001788D01*
X014821Y001846D02*
X014704Y001846D01*
X014653Y001903D02*
X014821Y001903D01*
X014821Y001961D02*
X014694Y001961D01*
X014694Y002019D02*
X014821Y002019D01*
X014821Y001967D02*
X014821Y001967D01*
X014823Y002076D02*
X014694Y002076D01*
X014694Y002134D02*
X014880Y002134D01*
X014897Y002150D02*
X014897Y002150D01*
X014897Y002150D01*
X015004Y002150D02*
X015004Y002150D01*
X014694Y002191D02*
X021342Y002191D01*
X021486Y002249D02*
X018611Y002249D01*
X018750Y002306D02*
X021565Y002306D01*
X021645Y002364D02*
X019401Y002364D01*
X019448Y002421D02*
X021699Y002421D01*
X021741Y002479D02*
X019448Y002479D01*
X019448Y002536D02*
X021783Y002536D01*
X021824Y002594D02*
X021467Y002594D01*
X021405Y002568D02*
X021569Y002636D01*
X021694Y002761D01*
X021761Y002924D01*
X021761Y003101D01*
X021694Y003265D01*
X021569Y003390D01*
X021405Y003457D01*
X021228Y003457D01*
X021065Y003390D01*
X020940Y003265D01*
X020872Y003101D01*
X020872Y002924D01*
X020940Y002761D01*
X021065Y002636D01*
X021228Y002568D01*
X021405Y002568D01*
X021584Y002652D02*
X021843Y002652D01*
X021862Y002709D02*
X021642Y002709D01*
X021696Y002767D02*
X021881Y002767D01*
X021899Y002824D02*
X021720Y002824D01*
X021744Y002882D02*
X021908Y002882D01*
X021913Y002939D02*
X021761Y002939D01*
X021761Y002997D02*
X021916Y002997D01*
X021916Y003054D02*
X021761Y003054D01*
X021757Y003112D02*
X021916Y003112D01*
X021916Y003170D02*
X021733Y003170D01*
X021709Y003227D02*
X021916Y003227D01*
X021916Y003285D02*
X021674Y003285D01*
X021616Y003342D02*
X021916Y003342D01*
X021916Y003400D02*
X021544Y003400D01*
X021646Y003630D02*
X021916Y003630D01*
X021916Y003572D02*
X020866Y003572D01*
X020866Y003515D02*
X021916Y003515D01*
X021916Y003457D02*
X020866Y003457D01*
X020866Y003400D02*
X021090Y003400D01*
X021018Y003342D02*
X020866Y003342D01*
X020866Y003285D02*
X020960Y003285D01*
X020924Y003227D02*
X020866Y003227D01*
X020866Y003170D02*
X020901Y003170D01*
X020877Y003112D02*
X020866Y003112D01*
X020866Y003054D02*
X020872Y003054D01*
X020866Y002997D02*
X020872Y002997D01*
X020866Y002939D02*
X020872Y002939D01*
X020890Y002882D02*
X020852Y002882D01*
X020794Y002824D02*
X020914Y002824D01*
X020938Y002767D02*
X020737Y002767D01*
X020679Y002709D02*
X020992Y002709D01*
X021049Y002652D02*
X020621Y002652D01*
X020564Y002594D02*
X021166Y002594D01*
X020572Y002997D02*
X019436Y002997D01*
X019448Y002939D02*
X020515Y002939D01*
X020457Y002882D02*
X019448Y002882D01*
X018815Y003054D02*
X020587Y003054D01*
X020587Y003112D02*
X018734Y003112D01*
X018698Y003285D02*
X020587Y003285D01*
X020587Y003342D02*
X018800Y003342D01*
X018329Y003285D02*
X017909Y003285D01*
X017909Y003342D02*
X018227Y003342D01*
X018170Y003400D02*
X017910Y003400D01*
X017913Y003457D02*
X018119Y003457D01*
X018095Y003515D02*
X017911Y003515D01*
X017909Y003572D02*
X018072Y003572D01*
X018054Y003630D02*
X017907Y003630D01*
X017905Y003688D02*
X018054Y003688D01*
X018054Y003745D02*
X017903Y003745D01*
X017906Y003803D02*
X018056Y003803D01*
X018080Y003860D02*
X017967Y003860D01*
X018028Y003918D02*
X018104Y003918D01*
X018089Y003975D02*
X018133Y003975D01*
X018150Y004033D02*
X018191Y004033D01*
X018211Y004090D02*
X018249Y004090D01*
X018272Y004148D02*
X018381Y004148D01*
X018333Y004206D02*
X019917Y004206D01*
X019917Y004263D02*
X018394Y004263D01*
X017988Y004608D02*
X017663Y004608D01*
X017600Y004551D02*
X017928Y004551D01*
X017866Y004493D02*
X017538Y004493D01*
X017478Y004436D02*
X017805Y004436D01*
X017744Y004378D02*
X017457Y004378D01*
X017457Y004321D02*
X017682Y004321D01*
X017621Y004263D02*
X017457Y004263D01*
X017457Y004206D02*
X017560Y004206D01*
X017498Y004148D02*
X017457Y004148D01*
X017368Y004019D02*
X017368Y003968D01*
X017067Y003968D01*
X017067Y003708D01*
X017008Y003708D01*
X017008Y003968D01*
X016690Y003968D01*
X016657Y003959D01*
X016628Y003942D01*
X016604Y003918D01*
X016317Y003918D01*
X016374Y003975D02*
X017368Y003975D01*
X017368Y004019D02*
X016670Y004019D01*
X016618Y004072D01*
X016618Y004219D01*
X015984Y003585D01*
X015984Y003553D01*
X015992Y003545D01*
X015992Y002811D01*
X015991Y002810D01*
X016049Y002811D01*
X016043Y002831D01*
X016043Y003149D01*
X016303Y003149D01*
X016303Y003208D01*
X016303Y003638D01*
X016156Y003638D01*
X016123Y003629D01*
X016093Y003612D01*
X016069Y003588D01*
X016052Y003558D01*
X016043Y003525D01*
X016043Y003208D01*
X016303Y003208D01*
X016362Y003208D01*
X016362Y003638D01*
X016510Y003638D01*
X016543Y003629D01*
X016572Y003612D01*
X016578Y003606D01*
X016578Y003649D01*
X017008Y003649D01*
X017008Y003708D01*
X016578Y003708D01*
X016578Y003855D01*
X016587Y003888D01*
X016604Y003918D01*
X016579Y003860D02*
X016259Y003860D01*
X016202Y003803D02*
X016578Y003803D01*
X016578Y003745D02*
X016144Y003745D01*
X016087Y003688D02*
X017008Y003688D01*
X017008Y003649D02*
X017067Y003649D01*
X017368Y003649D01*
X017368Y003708D01*
X017067Y003708D01*
X017067Y003649D01*
X017067Y003389D01*
X017358Y003389D01*
X017068Y003098D01*
X017066Y003098D01*
X017019Y003049D01*
X016970Y003000D01*
X016970Y002998D01*
X016792Y002812D01*
X016617Y002812D01*
X016622Y002831D01*
X016622Y003149D01*
X016362Y003149D01*
X016362Y003208D01*
X016622Y003208D01*
X016622Y003420D01*
X016628Y003415D01*
X016657Y003398D01*
X016690Y003389D01*
X017008Y003389D01*
X017008Y003649D01*
X017008Y003630D02*
X017067Y003630D01*
X017067Y003572D02*
X017008Y003572D01*
X017008Y003515D02*
X017067Y003515D01*
X017067Y003457D02*
X017008Y003457D01*
X017008Y003400D02*
X017067Y003400D01*
X017254Y003285D02*
X016622Y003285D01*
X016622Y003342D02*
X017312Y003342D01*
X017197Y003227D02*
X016622Y003227D01*
X016622Y003112D02*
X017082Y003112D01*
X017139Y003170D02*
X016362Y003170D01*
X016362Y003227D02*
X016303Y003227D01*
X016303Y003170D02*
X015992Y003170D01*
X015992Y003227D02*
X016043Y003227D01*
X016043Y003285D02*
X015992Y003285D01*
X015992Y003342D02*
X016043Y003342D01*
X016043Y003400D02*
X015992Y003400D01*
X015992Y003457D02*
X016043Y003457D01*
X016043Y003515D02*
X015992Y003515D01*
X015984Y003572D02*
X016060Y003572D01*
X016029Y003630D02*
X016127Y003630D01*
X016303Y003630D02*
X016362Y003630D01*
X016362Y003572D02*
X016303Y003572D01*
X016303Y003515D02*
X016362Y003515D01*
X016362Y003457D02*
X016303Y003457D01*
X016303Y003400D02*
X016362Y003400D01*
X016362Y003342D02*
X016303Y003342D01*
X016303Y003285D02*
X016362Y003285D01*
X016622Y003400D02*
X016653Y003400D01*
X016578Y003630D02*
X016538Y003630D01*
X017008Y003745D02*
X017067Y003745D01*
X017067Y003688D02*
X017368Y003688D01*
X017067Y003803D02*
X017008Y003803D01*
X017008Y003860D02*
X017067Y003860D01*
X017067Y003918D02*
X017008Y003918D01*
X016657Y004033D02*
X016432Y004033D01*
X016489Y004090D02*
X016618Y004090D01*
X016618Y004148D02*
X016547Y004148D01*
X016605Y004206D02*
X016618Y004206D01*
X016296Y004436D02*
X016200Y004436D01*
X015326Y004896D02*
X014847Y004896D01*
X014864Y004839D02*
X015037Y004839D01*
X014979Y004781D02*
X014864Y004781D01*
X014864Y004724D02*
X014920Y004724D01*
X014862Y004666D02*
X014824Y004666D01*
X014795Y004954D02*
X015383Y004954D01*
X015441Y005011D02*
X014795Y005011D01*
X014795Y005069D02*
X015498Y005069D01*
X015556Y005126D02*
X014795Y005126D01*
X014516Y005126D02*
X013987Y005126D01*
X014045Y005069D02*
X014516Y005069D01*
X014516Y005011D02*
X014102Y005011D01*
X014160Y004954D02*
X014516Y004954D01*
X014516Y005184D02*
X014078Y005184D01*
X014136Y005242D02*
X014516Y005242D01*
X014516Y005299D02*
X014163Y005299D01*
X014163Y005357D02*
X014516Y005357D01*
X014541Y005414D02*
X014163Y005414D01*
X014133Y005472D02*
X014598Y005472D01*
X014656Y005529D02*
X014076Y005529D01*
X013927Y005587D02*
X014714Y005587D01*
X014771Y005644D02*
X013872Y005644D01*
X013817Y005702D02*
X015667Y005702D01*
X015667Y005760D02*
X013762Y005760D01*
X013707Y005817D02*
X015654Y005817D01*
X015601Y005875D02*
X013652Y005875D01*
X012918Y006105D02*
X015392Y006105D01*
X015444Y006047D02*
X012865Y006047D01*
X012813Y005990D02*
X015497Y005990D01*
X015549Y005932D02*
X012767Y005932D01*
X012710Y005875D02*
X012859Y005875D01*
X012807Y005817D02*
X012652Y005817D01*
X012754Y005760D02*
X012263Y005760D01*
X012263Y005817D02*
X012477Y005817D01*
X012420Y005875D02*
X012263Y005875D01*
X012263Y005932D02*
X012362Y005932D01*
X012356Y005990D02*
X012263Y005990D01*
X012263Y006047D02*
X012356Y006047D01*
X012356Y006105D02*
X012263Y006105D01*
X012263Y006162D02*
X012408Y006162D01*
X012465Y006220D02*
X012263Y006220D01*
X012263Y006278D02*
X012698Y006278D01*
X012749Y006335D02*
X012263Y006335D01*
X012263Y006393D02*
X012414Y006393D01*
X012356Y006450D02*
X012263Y006450D01*
X012263Y006508D02*
X012325Y006508D01*
X012325Y006565D02*
X012263Y006565D01*
X012214Y006623D02*
X012325Y006623D01*
X012351Y006680D02*
X012156Y006680D01*
X012099Y006738D02*
X012408Y006738D01*
X012564Y006796D02*
X012041Y006796D01*
X011984Y006853D02*
X012621Y006853D01*
X012679Y006911D02*
X011927Y006911D01*
X011909Y006968D02*
X014494Y006968D01*
X014494Y007026D02*
X011909Y007026D01*
X011909Y007083D02*
X014494Y007083D01*
X014445Y007141D02*
X011909Y007141D01*
X011909Y007198D02*
X014435Y007198D01*
X014435Y007256D02*
X011858Y007256D01*
X011800Y007314D02*
X014435Y007314D01*
X014466Y007371D02*
X011742Y007371D01*
X011135Y007371D02*
X011030Y007371D01*
X011078Y007314D02*
X010972Y007314D01*
X011020Y007256D02*
X010915Y007256D01*
X010963Y007198D02*
X010857Y007198D01*
X010800Y007141D02*
X010961Y007141D01*
X010961Y007083D02*
X010742Y007083D01*
X010689Y007026D02*
X010961Y007026D01*
X010961Y006968D02*
X010689Y006968D01*
X010689Y006911D02*
X010707Y006911D01*
X010886Y006911D02*
X010961Y006911D01*
X010961Y006853D02*
X010944Y006853D01*
X011614Y006853D02*
X011630Y006853D01*
X011614Y006796D02*
X011648Y006796D01*
X011614Y006738D02*
X011705Y006738D01*
X011763Y006680D02*
X011614Y006680D01*
X011614Y006623D02*
X011820Y006623D01*
X011877Y006565D02*
X011614Y006565D01*
X011614Y006508D02*
X011934Y006508D01*
X011984Y006450D02*
X011614Y006450D01*
X011614Y006393D02*
X011984Y006393D01*
X011984Y006335D02*
X011614Y006335D01*
X011614Y006278D02*
X011984Y006278D01*
X011984Y006220D02*
X011614Y006220D01*
X011614Y006162D02*
X011984Y006162D01*
X011984Y006105D02*
X011614Y006105D01*
X011614Y006047D02*
X011984Y006047D01*
X011984Y005990D02*
X011614Y005990D01*
X011614Y005932D02*
X011984Y005932D01*
X011984Y005875D02*
X011614Y005875D01*
X011614Y005817D02*
X011984Y005817D01*
X011984Y005760D02*
X011614Y005760D01*
X011614Y005702D02*
X011984Y005702D01*
X011984Y005644D02*
X011614Y005644D01*
X011614Y005587D02*
X011984Y005587D01*
X011984Y005529D02*
X011614Y005529D01*
X011614Y005472D02*
X011984Y005472D01*
X011984Y005414D02*
X011614Y005414D01*
X011614Y005357D02*
X011984Y005357D01*
X011984Y005299D02*
X011614Y005299D01*
X011614Y005242D02*
X011984Y005242D01*
X011984Y005184D02*
X011614Y005184D01*
X011614Y005126D02*
X011984Y005126D01*
X011984Y005069D02*
X011614Y005069D01*
X011614Y005011D02*
X011984Y005011D01*
X011984Y004954D02*
X011614Y004954D01*
X011618Y004896D02*
X011984Y004896D01*
X011984Y004839D02*
X011618Y004839D01*
X011609Y004781D02*
X011984Y004781D01*
X011984Y004724D02*
X011552Y004724D01*
X011494Y004666D02*
X011984Y004666D01*
X011984Y004608D02*
X011437Y004608D01*
X011379Y004551D02*
X011556Y004551D01*
X011498Y004493D02*
X011321Y004493D01*
X011264Y004436D02*
X011443Y004436D01*
X011443Y004378D02*
X011206Y004378D01*
X011149Y004321D02*
X011431Y004321D01*
X011376Y004263D02*
X011091Y004263D01*
X011034Y004206D02*
X011322Y004206D01*
X011267Y004148D02*
X010976Y004148D01*
X010919Y004090D02*
X011213Y004090D01*
X011176Y004033D02*
X010926Y004033D01*
X010935Y003975D02*
X011177Y003975D01*
X011177Y003918D02*
X010935Y003918D01*
X010935Y003860D02*
X011177Y003860D01*
X011177Y003803D02*
X010886Y003803D01*
X010866Y003745D02*
X011177Y003745D01*
X011177Y003688D02*
X010866Y003688D01*
X010866Y003630D02*
X011177Y003630D01*
X011456Y003630D02*
X011979Y003630D01*
X011976Y003572D02*
X011831Y003572D01*
X011858Y003515D02*
X011949Y003515D01*
X011949Y003457D02*
X011858Y003457D01*
X011858Y003400D02*
X011949Y003400D01*
X011949Y003342D02*
X011858Y003342D01*
X011858Y003285D02*
X011949Y003285D01*
X011949Y003227D02*
X011858Y003227D01*
X011858Y003170D02*
X011949Y003170D01*
X011949Y003112D02*
X011858Y003112D01*
X011858Y003054D02*
X011949Y003054D01*
X011949Y002997D02*
X011858Y002997D01*
X011858Y002939D02*
X011949Y002939D01*
X011949Y002882D02*
X011858Y002882D01*
X011858Y002824D02*
X011949Y002824D01*
X011994Y002767D02*
X011813Y002767D01*
X011456Y002709D02*
X012358Y002709D01*
X012358Y002652D02*
X011456Y002652D01*
X011456Y002594D02*
X012358Y002594D01*
X012358Y002536D02*
X011483Y002536D01*
X011456Y002563D02*
X011456Y002563D01*
X011492Y002479D02*
X012328Y002479D01*
X012278Y002421D02*
X011488Y002421D01*
X011489Y002364D02*
X012124Y002364D01*
X012082Y002306D02*
X011489Y002306D01*
X011490Y002249D02*
X012082Y002249D01*
X012082Y002191D02*
X011490Y002191D01*
X011490Y002134D02*
X012082Y002134D01*
X012082Y002076D02*
X011491Y002076D01*
X011491Y002019D02*
X012082Y002019D01*
X012082Y001961D02*
X011492Y001961D01*
X011492Y001903D02*
X012082Y001903D01*
X012063Y001846D02*
X011518Y001846D01*
X011611Y001788D02*
X012019Y001788D01*
X011995Y001731D02*
X011669Y001731D01*
X011704Y001673D02*
X011971Y001673D01*
X011969Y001616D02*
X011728Y001616D01*
X011748Y001558D02*
X011969Y001558D01*
X011969Y001501D02*
X011748Y001501D01*
X011748Y001443D02*
X011969Y001443D01*
X011969Y001385D02*
X011748Y001385D01*
X011748Y001328D02*
X011969Y001328D01*
X011969Y001270D02*
X011748Y001270D01*
X011748Y001213D02*
X011969Y001213D01*
X011969Y001155D02*
X011748Y001155D01*
X011748Y001098D02*
X011969Y001098D01*
X011969Y001040D02*
X011748Y001040D01*
X011748Y000983D02*
X011969Y000983D01*
X011969Y000925D02*
X011748Y000925D01*
X011748Y000867D02*
X011988Y000867D01*
X012011Y000810D02*
X011746Y000810D01*
X011723Y000752D02*
X012045Y000752D01*
X012103Y000695D02*
X011699Y000695D01*
X011656Y000637D02*
X012193Y000637D01*
X012523Y000637D02*
X013061Y000637D01*
X013082Y000580D02*
X011654Y000580D01*
X011654Y000522D02*
X013082Y000522D01*
X013082Y000465D02*
X011654Y000465D01*
X011654Y000407D02*
X013082Y000407D01*
X013018Y000695D02*
X012613Y000695D01*
X012671Y000752D02*
X012994Y000752D01*
X012970Y000810D02*
X012705Y000810D01*
X012729Y000867D02*
X012969Y000867D01*
X012969Y000925D02*
X012748Y000925D01*
X012748Y000983D02*
X012969Y000983D01*
X012969Y001040D02*
X012748Y001040D01*
X012748Y001098D02*
X012969Y001098D01*
X012969Y001155D02*
X012748Y001155D01*
X012748Y001213D02*
X012969Y001213D01*
X012969Y001270D02*
X012748Y001270D01*
X012748Y001328D02*
X012969Y001328D01*
X012969Y001385D02*
X012748Y001385D01*
X012748Y001443D02*
X012969Y001443D01*
X012969Y001501D02*
X012748Y001501D01*
X012748Y001558D02*
X012969Y001558D01*
X012988Y001616D02*
X012748Y001616D01*
X012746Y001673D02*
X013012Y001673D01*
X013048Y001731D02*
X012722Y001731D01*
X012698Y001788D02*
X013105Y001788D01*
X013077Y001846D02*
X012654Y001846D01*
X012654Y001903D02*
X013077Y001903D01*
X013077Y001961D02*
X012654Y001961D01*
X012654Y002019D02*
X013098Y002019D01*
X013156Y002076D02*
X012654Y002076D01*
X012654Y002134D02*
X013261Y002134D01*
X013314Y002191D02*
X012654Y002191D01*
X012654Y002249D02*
X013352Y002249D01*
X013352Y002306D02*
X012654Y002306D01*
X012612Y002364D02*
X013352Y002364D01*
X013352Y002421D02*
X012641Y002421D01*
X012637Y002479D02*
X013352Y002479D01*
X013349Y002536D02*
X012637Y002536D01*
X012637Y002594D02*
X013313Y002594D01*
X013313Y002652D02*
X012637Y002652D01*
X012637Y002709D02*
X013313Y002709D01*
X013175Y002767D02*
X012994Y002767D01*
X013039Y002824D02*
X013130Y002824D01*
X013130Y002882D02*
X013039Y002882D01*
X013039Y002939D02*
X013130Y002939D01*
X013130Y002997D02*
X013039Y002997D01*
X013039Y003054D02*
X013130Y003054D01*
X013130Y003112D02*
X013039Y003112D01*
X013039Y003170D02*
X013130Y003170D01*
X013130Y003227D02*
X013039Y003227D01*
X013039Y003285D02*
X013130Y003285D01*
X013130Y003342D02*
X013039Y003342D01*
X013039Y003400D02*
X013130Y003400D01*
X013130Y003457D02*
X013039Y003457D01*
X013039Y003515D02*
X013130Y003515D01*
X013157Y003572D02*
X013012Y003572D01*
X012727Y003630D02*
X012629Y003630D01*
X012669Y003688D02*
X012572Y003688D01*
X012556Y003704D02*
X012556Y003704D01*
X012514Y003745D02*
X012612Y003745D01*
X012554Y003803D02*
X012201Y003803D01*
X012165Y003860D02*
X012497Y003860D01*
X012439Y003918D02*
X012165Y003918D01*
X012165Y003975D02*
X012381Y003975D01*
X012324Y004033D02*
X012165Y004033D01*
X012165Y004090D02*
X012169Y004090D01*
X011886Y004090D02*
X011597Y004090D01*
X011543Y004033D02*
X011886Y004033D01*
X011886Y003975D02*
X011488Y003975D01*
X011456Y003918D02*
X011886Y003918D01*
X011886Y003860D02*
X011456Y003860D01*
X011456Y003803D02*
X011886Y003803D01*
X011886Y003745D02*
X011456Y003745D01*
X011456Y003688D02*
X011921Y003688D01*
X011886Y004148D02*
X011743Y004148D01*
X011801Y004206D02*
X011886Y004206D01*
X011886Y004263D02*
X011858Y004263D01*
X011860Y004321D02*
X011886Y004321D01*
X011886Y004378D02*
X011860Y004378D01*
X011860Y004436D02*
X011886Y004436D01*
X011931Y004493D02*
X011805Y004493D01*
X011747Y004551D02*
X011984Y004551D01*
X011009Y004852D02*
X010708Y004550D01*
X009330Y004550D01*
X009248Y004468D01*
X009110Y004331D01*
X009110Y003598D01*
X009049Y003598D01*
X008996Y003545D01*
X008996Y002811D01*
X009049Y002759D01*
X009443Y002759D01*
X009495Y002811D01*
X009495Y003545D01*
X009443Y003598D01*
X009389Y003598D01*
X009389Y004215D01*
X009445Y004271D01*
X010173Y004271D01*
X009802Y003900D01*
X009721Y003819D01*
X009721Y003598D01*
X009639Y003598D01*
X009587Y003545D01*
X009587Y002811D01*
X009639Y002759D01*
X009996Y002759D01*
X009996Y002697D01*
X009270Y001970D01*
X009229Y001931D01*
X009229Y001930D01*
X009228Y001929D01*
X009228Y001872D01*
X009228Y001858D01*
X009138Y001821D01*
X009028Y001711D01*
X008976Y001586D01*
X008976Y002264D01*
X008955Y002285D01*
X008955Y003592D01*
X008962Y003592D01*
X009084Y003714D01*
X009084Y003887D01*
X009015Y003956D01*
X009015Y004380D01*
X009453Y004704D01*
X009465Y004704D01*
X009499Y004738D01*
X009537Y004766D01*
X009538Y004772D01*
X009636Y004674D01*
X009809Y004674D01*
X009880Y004745D01*
X009971Y004655D01*
X010143Y004655D01*
X010195Y004706D01*
X010305Y004596D01*
X010478Y004596D01*
X010600Y004718D01*
X010600Y004891D01*
X010570Y004921D01*
X010866Y004921D01*
X010935Y004852D01*
X011009Y004852D01*
X010997Y004839D02*
X010600Y004839D01*
X010595Y004896D02*
X010890Y004896D01*
X010939Y004781D02*
X010600Y004781D01*
X010600Y004724D02*
X010881Y004724D01*
X010824Y004666D02*
X010548Y004666D01*
X010491Y004608D02*
X010766Y004608D01*
X010709Y004551D02*
X009247Y004551D01*
X009273Y004493D02*
X009169Y004493D01*
X009216Y004436D02*
X009091Y004436D01*
X009158Y004378D02*
X009015Y004378D01*
X009015Y004321D02*
X009110Y004321D01*
X009110Y004263D02*
X009015Y004263D01*
X009015Y004206D02*
X009110Y004206D01*
X009110Y004148D02*
X009015Y004148D01*
X009015Y004090D02*
X009110Y004090D01*
X009110Y004033D02*
X009015Y004033D01*
X009015Y003975D02*
X009110Y003975D01*
X009110Y003918D02*
X009053Y003918D01*
X009084Y003860D02*
X009110Y003860D01*
X009110Y003803D02*
X009084Y003803D01*
X009084Y003745D02*
X009110Y003745D01*
X009110Y003688D02*
X009058Y003688D01*
X009110Y003630D02*
X009001Y003630D01*
X009024Y003572D02*
X008955Y003572D01*
X008955Y003515D02*
X008996Y003515D01*
X008996Y003457D02*
X008955Y003457D01*
X008955Y003400D02*
X008996Y003400D01*
X008996Y003342D02*
X008955Y003342D01*
X008955Y003285D02*
X008996Y003285D01*
X008996Y003227D02*
X008955Y003227D01*
X008955Y003170D02*
X008996Y003170D01*
X008996Y003112D02*
X008955Y003112D01*
X008955Y003054D02*
X008996Y003054D01*
X008996Y002997D02*
X008955Y002997D01*
X008955Y002939D02*
X008996Y002939D01*
X008996Y002882D02*
X008955Y002882D01*
X008955Y002824D02*
X008996Y002824D01*
X008955Y002767D02*
X009041Y002767D01*
X008955Y002709D02*
X009996Y002709D01*
X009951Y002652D02*
X008955Y002652D01*
X008955Y002594D02*
X009894Y002594D01*
X009836Y002536D02*
X008955Y002536D01*
X008955Y002479D02*
X009778Y002479D01*
X009721Y002421D02*
X008955Y002421D01*
X008955Y002364D02*
X009663Y002364D01*
X009606Y002306D02*
X008955Y002306D01*
X008976Y002249D02*
X009548Y002249D01*
X009491Y002191D02*
X008976Y002191D01*
X008976Y002134D02*
X009433Y002134D01*
X009376Y002076D02*
X008976Y002076D01*
X008976Y002019D02*
X009318Y002019D01*
X009260Y001961D02*
X008976Y001961D01*
X008976Y001903D02*
X009228Y001903D01*
X009198Y001846D02*
X008976Y001846D01*
X008976Y001788D02*
X009105Y001788D01*
X009048Y001731D02*
X008976Y001731D01*
X008976Y001673D02*
X009012Y001673D01*
X008988Y001616D02*
X008976Y001616D01*
X009451Y002767D02*
X009631Y002767D01*
X009587Y002824D02*
X009495Y002824D01*
X009495Y002882D02*
X009587Y002882D01*
X009587Y002939D02*
X009495Y002939D01*
X009495Y002997D02*
X009587Y002997D01*
X009587Y003054D02*
X009495Y003054D01*
X009495Y003112D02*
X009587Y003112D01*
X009587Y003170D02*
X009495Y003170D01*
X009495Y003227D02*
X009587Y003227D01*
X009587Y003285D02*
X009495Y003285D01*
X009495Y003342D02*
X009587Y003342D01*
X009587Y003400D02*
X009495Y003400D01*
X009495Y003457D02*
X009587Y003457D01*
X009587Y003515D02*
X009495Y003515D01*
X009468Y003572D02*
X009614Y003572D01*
X009721Y003630D02*
X009389Y003630D01*
X009389Y003688D02*
X009721Y003688D01*
X009721Y003745D02*
X009389Y003745D01*
X009389Y003803D02*
X009721Y003803D01*
X009762Y003860D02*
X009389Y003860D01*
X009389Y003918D02*
X009820Y003918D01*
X009802Y003900D02*
X009802Y003900D01*
X009877Y003975D02*
X009389Y003975D01*
X009389Y004033D02*
X009935Y004033D01*
X009992Y004090D02*
X009389Y004090D01*
X009389Y004148D02*
X010050Y004148D01*
X010108Y004206D02*
X009389Y004206D01*
X009438Y004263D02*
X010165Y004263D01*
X010292Y004608D02*
X009324Y004608D01*
X009402Y004666D02*
X009959Y004666D01*
X009902Y004724D02*
X009858Y004724D01*
X009587Y004724D02*
X009485Y004724D01*
X010155Y004666D02*
X010235Y004666D01*
X010718Y005200D02*
X010718Y005265D01*
X010596Y005387D01*
X010423Y005387D01*
X010374Y005337D01*
X010374Y005698D01*
X010518Y005698D01*
X010518Y005564D01*
X010640Y005442D01*
X010813Y005442D01*
X010882Y005511D01*
X010882Y005216D01*
X010866Y005200D01*
X010718Y005200D01*
X010718Y005242D02*
X010882Y005242D01*
X010882Y005299D02*
X010684Y005299D01*
X010626Y005357D02*
X010882Y005357D01*
X010882Y005414D02*
X010374Y005414D01*
X010374Y005357D02*
X010393Y005357D01*
X010374Y005472D02*
X010610Y005472D01*
X010553Y005529D02*
X010374Y005529D01*
X010374Y005587D02*
X010518Y005587D01*
X010518Y005644D02*
X010374Y005644D01*
X010842Y005472D02*
X010882Y005472D01*
X012263Y005472D02*
X012368Y005472D01*
X012368Y005529D02*
X012263Y005529D01*
X012263Y005587D02*
X012368Y005587D01*
X012394Y005644D02*
X012263Y005644D01*
X012263Y005702D02*
X012451Y005702D01*
X012400Y005414D02*
X012263Y005414D01*
X012263Y005357D02*
X012458Y005357D01*
X012407Y005299D02*
X012263Y005299D01*
X012263Y005242D02*
X012396Y005242D01*
X012653Y006393D02*
X012803Y006393D01*
X012711Y006450D02*
X014785Y006450D01*
X014728Y006508D02*
X012742Y006508D01*
X012742Y006565D02*
X014670Y006565D01*
X014613Y006623D02*
X012786Y006623D01*
X014569Y007473D02*
X014758Y007473D01*
X014860Y007371D02*
X016618Y007371D01*
X016618Y007314D02*
X014892Y007314D01*
X014892Y007256D02*
X016618Y007256D01*
X016618Y007198D02*
X014892Y007198D01*
X014882Y007141D02*
X016618Y007141D01*
X016618Y007083D02*
X014833Y007083D01*
X014833Y007026D02*
X016618Y007026D01*
X016643Y006853D02*
X014862Y006853D01*
X014833Y006911D02*
X018465Y006911D01*
X018465Y006968D02*
X014833Y006968D01*
X014920Y006796D02*
X016618Y006796D01*
X016618Y006738D02*
X014977Y006738D01*
X017008Y007544D02*
X017067Y007544D01*
X017067Y007601D02*
X017008Y007601D01*
X017008Y007659D02*
X017067Y007659D01*
X017067Y007716D02*
X017008Y007716D01*
X017008Y007774D02*
X017067Y007774D01*
X017067Y007947D02*
X017008Y007947D01*
X017008Y008004D02*
X017067Y008004D01*
X017067Y008062D02*
X017008Y008062D01*
X016362Y008062D02*
X016303Y008062D01*
X016303Y008119D02*
X016362Y008119D01*
X016362Y008177D02*
X016303Y008177D01*
X016303Y008234D02*
X016362Y008234D01*
X016303Y008292D02*
X015992Y008292D01*
X015992Y008234D02*
X016043Y008234D01*
X016043Y008177D02*
X015992Y008177D01*
X015992Y008119D02*
X016043Y008119D01*
X016043Y008062D02*
X015992Y008062D01*
X015992Y008004D02*
X016043Y008004D01*
X016044Y007947D02*
X015992Y007947D01*
X015992Y007929D02*
X015992Y008663D01*
X015939Y008716D01*
X015545Y008716D01*
X015493Y008663D01*
X015493Y007929D01*
X015545Y007877D01*
X015939Y007877D01*
X015992Y007929D01*
X015951Y007889D02*
X016068Y007889D01*
X016303Y007889D02*
X016362Y007889D01*
X016362Y007947D02*
X016303Y007947D01*
X016303Y008004D02*
X016362Y008004D01*
X016043Y008350D02*
X015992Y008350D01*
X015992Y008407D02*
X016043Y008407D01*
X016043Y008465D02*
X015992Y008465D01*
X015992Y008522D02*
X016043Y008522D01*
X016043Y008580D02*
X015992Y008580D01*
X015992Y008637D02*
X016043Y008637D01*
X016063Y008695D02*
X015960Y008695D01*
X016143Y008752D02*
X015295Y008752D01*
X015295Y008716D02*
X015295Y008802D01*
X015317Y008824D01*
X015415Y008824D01*
X015537Y008946D01*
X015537Y009119D01*
X015415Y009241D01*
X015242Y009241D01*
X015120Y009119D01*
X015120Y009021D01*
X015098Y008999D01*
X015016Y008917D01*
X015016Y008716D01*
X014954Y008716D01*
X014902Y008663D01*
X014902Y007929D01*
X014954Y007877D01*
X015349Y007877D01*
X015401Y007929D01*
X015401Y008663D01*
X015349Y008716D01*
X015295Y008716D01*
X015370Y008695D02*
X015524Y008695D01*
X015493Y008637D02*
X015401Y008637D01*
X015401Y008580D02*
X015493Y008580D01*
X015493Y008522D02*
X015401Y008522D01*
X015401Y008465D02*
X015493Y008465D01*
X015493Y008407D02*
X015401Y008407D01*
X015401Y008350D02*
X015493Y008350D01*
X015493Y008292D02*
X015401Y008292D01*
X015401Y008234D02*
X015493Y008234D01*
X015493Y008177D02*
X015401Y008177D01*
X015401Y008119D02*
X015493Y008119D01*
X015493Y008062D02*
X015401Y008062D01*
X015401Y008004D02*
X015493Y008004D01*
X015493Y007947D02*
X015401Y007947D01*
X015361Y007889D02*
X015533Y007889D01*
X014942Y007889D02*
X014770Y007889D01*
X014758Y007877D02*
X014810Y007929D01*
X014810Y008663D01*
X014758Y008716D01*
X014364Y008716D01*
X014311Y008663D01*
X014311Y007929D01*
X014364Y007877D01*
X014758Y007877D01*
X014810Y007947D02*
X014902Y007947D01*
X014902Y008004D02*
X014810Y008004D01*
X014810Y008062D02*
X014902Y008062D01*
X014902Y008119D02*
X014810Y008119D01*
X014810Y008177D02*
X014902Y008177D01*
X014902Y008234D02*
X014810Y008234D01*
X014810Y008292D02*
X014902Y008292D01*
X014902Y008350D02*
X014810Y008350D01*
X014810Y008407D02*
X014902Y008407D01*
X014902Y008465D02*
X014810Y008465D01*
X014810Y008522D02*
X014902Y008522D01*
X014902Y008580D02*
X014810Y008580D01*
X014810Y008637D02*
X014902Y008637D01*
X014933Y008695D02*
X014779Y008695D01*
X015016Y008752D02*
X013376Y008752D01*
X013433Y008810D02*
X015016Y008810D01*
X015016Y008868D02*
X013491Y008868D01*
X013547Y008925D02*
X015024Y008925D01*
X015081Y008983D02*
X013547Y008983D01*
X013547Y009040D02*
X015120Y009040D01*
X015120Y009098D02*
X013547Y009098D01*
X013547Y009155D02*
X014123Y009155D01*
X014121Y009213D02*
X013547Y009213D01*
X013547Y009270D02*
X014121Y009270D01*
X014121Y009328D02*
X013547Y009328D01*
X013547Y009386D02*
X014121Y009386D01*
X014121Y009443D02*
X013547Y009443D01*
X013547Y009501D02*
X014121Y009501D01*
X014121Y009558D02*
X013547Y009558D01*
X013554Y009616D02*
X014117Y009616D01*
X014070Y009673D02*
X013655Y009673D01*
X013713Y009731D02*
X014046Y009731D01*
X014022Y009788D02*
X013751Y009788D01*
X013775Y009846D02*
X014018Y009846D01*
X014018Y009904D02*
X013797Y009904D01*
X013797Y009961D02*
X014018Y009961D01*
X014018Y010019D02*
X013797Y010019D01*
X013797Y010076D02*
X014018Y010076D01*
X014018Y010134D02*
X013797Y010134D01*
X013797Y010191D02*
X014018Y010191D01*
X014018Y010249D02*
X013797Y010249D01*
X013797Y010306D02*
X014018Y010306D01*
X014018Y010364D02*
X013797Y010364D01*
X013797Y010422D02*
X014018Y010422D01*
X014018Y010479D02*
X013797Y010479D01*
X013797Y010537D02*
X014018Y010537D01*
X014034Y010594D02*
X013797Y010594D01*
X013797Y010652D02*
X014058Y010652D01*
X014089Y010709D02*
X013774Y010709D01*
X013750Y010767D02*
X014147Y010767D01*
X014229Y010824D02*
X013710Y010824D01*
X013694Y010882D02*
X014566Y010882D01*
X014586Y010824D02*
X014616Y010824D01*
X014490Y010940D02*
X013694Y010940D01*
X013694Y010997D02*
X014394Y010997D01*
X014221Y011055D02*
X013694Y011055D01*
X013121Y011055D02*
X011694Y011055D01*
X011694Y011080D02*
X013121Y011078D01*
X013121Y010841D01*
X013077Y010797D01*
X013018Y010654D01*
X013018Y009899D01*
X013077Y009756D01*
X013187Y009646D01*
X013268Y009613D01*
X013268Y009039D01*
X012949Y008720D01*
X012949Y008716D01*
X012592Y008716D01*
X012540Y008663D01*
X012540Y007929D01*
X012553Y007916D01*
X012435Y007916D01*
X012448Y007929D01*
X012448Y008663D01*
X012396Y008716D01*
X012002Y008716D01*
X011949Y008663D01*
X011949Y007929D01*
X011962Y007916D01*
X011845Y007916D01*
X011858Y007929D01*
X011858Y008663D01*
X011805Y008716D01*
X011411Y008716D01*
X011359Y008663D01*
X011359Y007929D01*
X011372Y007916D01*
X011254Y007916D01*
X011267Y007929D01*
X011267Y008663D01*
X011215Y008716D01*
X010918Y008716D01*
X011060Y008858D01*
X012044Y008858D01*
X012291Y009104D01*
X012641Y009104D01*
X012694Y009157D01*
X012694Y009612D01*
X012738Y009656D01*
X012797Y009799D01*
X012797Y010554D01*
X012738Y010697D01*
X012628Y010807D01*
X012485Y010866D01*
X012330Y010866D01*
X012187Y010807D01*
X012077Y010697D01*
X012018Y010554D01*
X012018Y009799D01*
X012077Y009656D01*
X012121Y009612D01*
X012121Y009329D01*
X011928Y009137D01*
X011063Y009137D01*
X011465Y009539D01*
X011534Y009607D01*
X011628Y009646D01*
X011738Y009756D01*
X011797Y009899D01*
X011797Y010654D01*
X011738Y010797D01*
X011694Y010841D01*
X011694Y011080D01*
X011694Y010997D02*
X013121Y010997D01*
X013121Y010940D02*
X011694Y010940D01*
X011694Y010882D02*
X013121Y010882D01*
X013104Y010824D02*
X012586Y010824D01*
X012668Y010767D02*
X013065Y010767D01*
X013041Y010709D02*
X012726Y010709D01*
X012756Y010652D02*
X013018Y010652D01*
X013018Y010594D02*
X012780Y010594D01*
X012797Y010537D02*
X013018Y010537D01*
X013018Y010479D02*
X012797Y010479D01*
X012797Y010422D02*
X013018Y010422D01*
X013018Y010364D02*
X012797Y010364D01*
X012797Y010306D02*
X013018Y010306D01*
X013018Y010249D02*
X012797Y010249D01*
X012797Y010191D02*
X013018Y010191D01*
X013018Y010134D02*
X012797Y010134D01*
X012797Y010076D02*
X013018Y010076D01*
X013018Y010019D02*
X012797Y010019D01*
X012797Y009961D02*
X013018Y009961D01*
X013018Y009904D02*
X012797Y009904D01*
X012797Y009846D02*
X013040Y009846D01*
X013064Y009788D02*
X012792Y009788D01*
X012769Y009731D02*
X013102Y009731D01*
X013160Y009673D02*
X012745Y009673D01*
X012697Y009616D02*
X013261Y009616D01*
X013268Y009558D02*
X012694Y009558D01*
X012694Y009501D02*
X013268Y009501D01*
X013268Y009443D02*
X012694Y009443D01*
X012694Y009386D02*
X013268Y009386D01*
X013268Y009328D02*
X012694Y009328D01*
X012694Y009270D02*
X013268Y009270D01*
X013268Y009213D02*
X012694Y009213D01*
X012692Y009155D02*
X013268Y009155D01*
X013268Y009098D02*
X012284Y009098D01*
X012227Y009040D02*
X013268Y009040D01*
X013211Y008983D02*
X012169Y008983D01*
X012111Y008925D02*
X013154Y008925D01*
X013096Y008868D02*
X012054Y008868D01*
X011981Y008695D02*
X011826Y008695D01*
X011858Y008637D02*
X011949Y008637D01*
X011949Y008580D02*
X011858Y008580D01*
X011858Y008522D02*
X011949Y008522D01*
X011949Y008465D02*
X011858Y008465D01*
X011858Y008407D02*
X011949Y008407D01*
X011949Y008350D02*
X011858Y008350D01*
X011858Y008292D02*
X011949Y008292D01*
X011949Y008234D02*
X011858Y008234D01*
X011858Y008177D02*
X011949Y008177D01*
X011949Y008119D02*
X011858Y008119D01*
X011858Y008062D02*
X011949Y008062D01*
X011949Y008004D02*
X011858Y008004D01*
X011858Y007947D02*
X011949Y007947D01*
X012448Y007947D02*
X012540Y007947D01*
X012540Y008004D02*
X012448Y008004D01*
X012448Y008062D02*
X012540Y008062D01*
X012540Y008119D02*
X012448Y008119D01*
X012448Y008177D02*
X012540Y008177D01*
X012540Y008234D02*
X012448Y008234D01*
X012448Y008292D02*
X012540Y008292D01*
X012540Y008350D02*
X012448Y008350D01*
X012448Y008407D02*
X012540Y008407D01*
X012540Y008465D02*
X012448Y008465D01*
X012448Y008522D02*
X012540Y008522D01*
X012540Y008580D02*
X012448Y008580D01*
X012448Y008637D02*
X012540Y008637D01*
X012571Y008695D02*
X012417Y008695D01*
X012981Y008752D02*
X010955Y008752D01*
X011012Y008810D02*
X013039Y008810D01*
X013598Y008695D02*
X013752Y008695D01*
X013773Y008716D02*
X013721Y008663D01*
X013721Y007929D01*
X013773Y007877D01*
X014167Y007877D01*
X014220Y007929D01*
X014220Y008663D01*
X014167Y008716D01*
X013773Y008716D01*
X013721Y008637D02*
X013629Y008637D01*
X013629Y008580D02*
X013721Y008580D01*
X013721Y008522D02*
X013629Y008522D01*
X013629Y008465D02*
X013721Y008465D01*
X013721Y008407D02*
X013629Y008407D01*
X013629Y008350D02*
X013721Y008350D01*
X013721Y008292D02*
X013629Y008292D01*
X013629Y008234D02*
X013721Y008234D01*
X013721Y008177D02*
X013629Y008177D01*
X013629Y008119D02*
X013721Y008119D01*
X013721Y008062D02*
X013629Y008062D01*
X013629Y008004D02*
X013721Y008004D01*
X013721Y007947D02*
X013629Y007947D01*
X013589Y007889D02*
X013761Y007889D01*
X014180Y007889D02*
X014352Y007889D01*
X014311Y007947D02*
X014220Y007947D01*
X014220Y008004D02*
X014311Y008004D01*
X014311Y008062D02*
X014220Y008062D01*
X014220Y008119D02*
X014311Y008119D01*
X014311Y008177D02*
X014220Y008177D01*
X014220Y008234D02*
X014311Y008234D01*
X014311Y008292D02*
X014220Y008292D01*
X014220Y008350D02*
X014311Y008350D01*
X014311Y008407D02*
X014220Y008407D01*
X014220Y008465D02*
X014311Y008465D01*
X014311Y008522D02*
X014220Y008522D01*
X014220Y008580D02*
X014311Y008580D01*
X014311Y008637D02*
X014220Y008637D01*
X014188Y008695D02*
X014343Y008695D01*
X014692Y009155D02*
X015156Y009155D01*
X015214Y009213D02*
X014694Y009213D01*
X014694Y009270D02*
X020430Y009270D01*
X020408Y009213D02*
X018683Y009213D01*
X018773Y009155D02*
X020408Y009155D01*
X020408Y009098D02*
X018831Y009098D01*
X018876Y009040D02*
X020408Y009040D01*
X020426Y008983D02*
X018900Y008983D01*
X018924Y008925D02*
X020450Y008925D01*
X020474Y008868D02*
X018938Y008868D01*
X018938Y008810D02*
X020519Y008810D01*
X020577Y008752D02*
X018938Y008752D01*
X018932Y008695D02*
X020658Y008695D01*
X021125Y008695D02*
X021887Y008695D01*
X021905Y008637D02*
X018908Y008637D01*
X018884Y008580D02*
X021910Y008580D01*
X021914Y008522D02*
X018850Y008522D01*
X018793Y008465D02*
X021916Y008465D01*
X021916Y008407D02*
X018730Y008407D01*
X018591Y008350D02*
X021916Y008350D01*
X021868Y008752D02*
X021206Y008752D01*
X021264Y008810D02*
X021849Y008810D01*
X021831Y008868D02*
X021310Y008868D01*
X021333Y008925D02*
X021799Y008925D01*
X021757Y008983D02*
X021357Y008983D01*
X021375Y009040D02*
X021716Y009040D01*
X021674Y009098D02*
X021375Y009098D01*
X021375Y009155D02*
X021602Y009155D01*
X021523Y009213D02*
X021375Y009213D01*
X021353Y009270D02*
X021437Y009270D01*
X020454Y009328D02*
X014694Y009328D01*
X014694Y009386D02*
X014867Y009386D01*
X014810Y009443D02*
X014694Y009443D01*
X014697Y009616D02*
X014805Y009616D01*
X014805Y009673D02*
X014745Y009673D01*
X014769Y009731D02*
X014805Y009731D01*
X014805Y009788D02*
X014792Y009788D01*
X014797Y009846D02*
X014805Y009846D01*
X014797Y009904D02*
X014805Y009904D01*
X014797Y009961D02*
X014805Y009961D01*
X014797Y010019D02*
X014805Y010019D01*
X014797Y010076D02*
X014805Y010076D01*
X014797Y010134D02*
X014805Y010134D01*
X014797Y010191D02*
X014805Y010191D01*
X014797Y010249D02*
X014805Y010249D01*
X014797Y010306D02*
X014805Y010306D01*
X014797Y010364D02*
X014805Y010364D01*
X014797Y010422D02*
X014803Y010422D01*
X015443Y009213D02*
X018274Y009213D01*
X018183Y009155D02*
X015501Y009155D01*
X015537Y009098D02*
X018126Y009098D01*
X018080Y009040D02*
X015537Y009040D01*
X015537Y008983D02*
X018056Y008983D01*
X018033Y008925D02*
X015516Y008925D01*
X015459Y008868D02*
X018019Y008868D01*
X018019Y008810D02*
X015303Y008810D01*
X012120Y009328D02*
X011255Y009328D01*
X011312Y009386D02*
X012121Y009386D01*
X012121Y009443D02*
X011370Y009443D01*
X011427Y009501D02*
X012121Y009501D01*
X012121Y009558D02*
X011485Y009558D01*
X011554Y009616D02*
X012117Y009616D01*
X012070Y009673D02*
X011655Y009673D01*
X011713Y009731D02*
X012046Y009731D01*
X012022Y009788D02*
X011751Y009788D01*
X011775Y009846D02*
X012018Y009846D01*
X012018Y009904D02*
X011797Y009904D01*
X011797Y009961D02*
X012018Y009961D01*
X012018Y010019D02*
X011797Y010019D01*
X011797Y010076D02*
X012018Y010076D01*
X012018Y010134D02*
X011797Y010134D01*
X011797Y010191D02*
X012018Y010191D01*
X012018Y010249D02*
X011797Y010249D01*
X011797Y010306D02*
X012018Y010306D01*
X012018Y010364D02*
X011797Y010364D01*
X011797Y010422D02*
X012018Y010422D01*
X012018Y010479D02*
X011797Y010479D01*
X011797Y010537D02*
X012018Y010537D01*
X012034Y010594D02*
X011797Y010594D01*
X011797Y010652D02*
X012058Y010652D01*
X012089Y010709D02*
X011774Y010709D01*
X011750Y010767D02*
X012147Y010767D01*
X012229Y010824D02*
X011710Y010824D01*
X010121Y009507D02*
X009820Y009507D01*
X009527Y009215D01*
X009527Y007601D01*
X009445Y007519D01*
X009419Y007493D01*
X009419Y007395D01*
X009297Y007273D01*
X009258Y007273D01*
X009888Y006632D01*
X009888Y006721D01*
X009898Y006731D01*
X009898Y007795D01*
X009980Y007877D01*
X009639Y007877D01*
X009587Y007929D01*
X009587Y008663D01*
X009639Y008716D01*
X009996Y008716D01*
X009996Y008760D01*
X010213Y008976D01*
X010294Y009058D01*
X010590Y009058D01*
X010636Y009104D01*
X010173Y009104D01*
X010121Y009157D01*
X010121Y009507D01*
X010121Y009501D02*
X009813Y009501D01*
X009755Y009443D02*
X010121Y009443D01*
X010121Y009386D02*
X009698Y009386D01*
X009640Y009328D02*
X010121Y009328D01*
X010121Y009270D02*
X009583Y009270D01*
X009527Y009213D02*
X010121Y009213D01*
X010123Y009155D02*
X009527Y009155D01*
X009527Y009098D02*
X010630Y009098D01*
X010277Y009040D02*
X009527Y009040D01*
X009527Y008983D02*
X010219Y008983D01*
X010162Y008925D02*
X009527Y008925D01*
X009527Y008868D02*
X010104Y008868D01*
X010047Y008810D02*
X009527Y008810D01*
X009527Y008752D02*
X009996Y008752D01*
X009618Y008695D02*
X009527Y008695D01*
X009527Y008637D02*
X009587Y008637D01*
X009587Y008580D02*
X009527Y008580D01*
X009527Y008522D02*
X009587Y008522D01*
X009587Y008465D02*
X009527Y008465D01*
X009527Y008407D02*
X009587Y008407D01*
X009587Y008350D02*
X009527Y008350D01*
X009527Y008292D02*
X009587Y008292D01*
X009587Y008234D02*
X009527Y008234D01*
X009527Y008177D02*
X009587Y008177D01*
X009587Y008119D02*
X009527Y008119D01*
X009527Y008062D02*
X009587Y008062D01*
X009587Y008004D02*
X009527Y008004D01*
X009527Y007947D02*
X009587Y007947D01*
X009627Y007889D02*
X009527Y007889D01*
X009527Y007832D02*
X009934Y007832D01*
X009898Y007774D02*
X009527Y007774D01*
X009527Y007716D02*
X009898Y007716D01*
X009898Y007659D02*
X009527Y007659D01*
X009527Y007601D02*
X009898Y007601D01*
X009898Y007544D02*
X009470Y007544D01*
X009419Y007486D02*
X009898Y007486D01*
X009898Y007429D02*
X009419Y007429D01*
X009395Y007371D02*
X009898Y007371D01*
X009898Y007314D02*
X009338Y007314D01*
X009275Y007256D02*
X009898Y007256D01*
X009898Y007198D02*
X009331Y007198D01*
X009388Y007141D02*
X009898Y007141D01*
X009898Y007083D02*
X009444Y007083D01*
X009501Y007026D02*
X009898Y007026D01*
X009898Y006968D02*
X009557Y006968D01*
X009614Y006911D02*
X009898Y006911D01*
X009898Y006853D02*
X009671Y006853D01*
X009727Y006796D02*
X009898Y006796D01*
X009898Y006738D02*
X009784Y006738D01*
X009840Y006680D02*
X009888Y006680D01*
X011267Y007947D02*
X011359Y007947D01*
X011359Y008004D02*
X011267Y008004D01*
X011267Y008062D02*
X011359Y008062D01*
X011359Y008119D02*
X011267Y008119D01*
X011267Y008177D02*
X011359Y008177D01*
X011359Y008234D02*
X011267Y008234D01*
X011267Y008292D02*
X011359Y008292D01*
X011359Y008350D02*
X011267Y008350D01*
X011267Y008407D02*
X011359Y008407D01*
X011359Y008465D02*
X011267Y008465D01*
X011267Y008522D02*
X011359Y008522D01*
X011359Y008580D02*
X011267Y008580D01*
X011267Y008637D02*
X011359Y008637D01*
X011390Y008695D02*
X011236Y008695D01*
X011082Y009155D02*
X011947Y009155D01*
X012005Y009213D02*
X011139Y009213D01*
X011197Y009270D02*
X012062Y009270D01*
X017417Y006278D02*
X017922Y006278D01*
X017905Y006220D02*
X017457Y006220D01*
X017457Y006162D02*
X017895Y006162D01*
X017901Y006047D02*
X017457Y006047D01*
X017457Y005990D02*
X017915Y005990D01*
X017937Y005932D02*
X017649Y005932D01*
X017707Y005875D02*
X017969Y005875D01*
X018015Y005817D02*
X017764Y005817D01*
X017766Y005760D02*
X018080Y005760D01*
X018159Y005702D02*
X017766Y005702D01*
X017766Y005644D02*
X018074Y005644D01*
X018016Y005587D02*
X017709Y005587D01*
X017652Y005529D02*
X017981Y005529D01*
X017958Y005472D02*
X017457Y005472D01*
X017457Y005529D02*
X017462Y005529D01*
X017457Y005414D02*
X017935Y005414D01*
X017935Y005357D02*
X017457Y005357D01*
X017457Y005299D02*
X017935Y005299D01*
X017940Y005242D02*
X017446Y005242D01*
X017444Y005069D02*
X018032Y005069D01*
X018090Y005011D02*
X017783Y005011D01*
X017840Y004954D02*
X018196Y004954D01*
X018196Y004896D02*
X017884Y004896D01*
X017884Y004839D02*
X018196Y004839D01*
X018167Y004781D02*
X017884Y004781D01*
X017870Y004724D02*
X018107Y004724D01*
X018047Y004666D02*
X017812Y004666D01*
X017467Y004839D02*
X017457Y004839D01*
X017457Y004896D02*
X017467Y004896D01*
X017457Y004954D02*
X017510Y004954D01*
X017457Y005011D02*
X017568Y005011D01*
X017465Y005932D02*
X017457Y005932D01*
X017457Y006105D02*
X018315Y006105D01*
X018315Y006162D02*
X018374Y006162D01*
X018374Y006220D02*
X018315Y006220D01*
X018315Y006278D02*
X018374Y006278D01*
X018374Y006335D02*
X018315Y006335D01*
X018315Y006393D02*
X018374Y006393D01*
X018374Y006450D02*
X018315Y006450D01*
X018315Y006508D02*
X018374Y006508D01*
X021176Y005414D02*
X021380Y005414D01*
X021302Y005357D02*
X021234Y005357D01*
X021702Y005414D02*
X021916Y005414D01*
X021916Y005357D02*
X021781Y005357D01*
X021837Y005299D02*
X021916Y005299D01*
X021916Y005242D02*
X021860Y005242D01*
X021884Y005184D02*
X021916Y005184D01*
X021916Y005126D02*
X021888Y005126D01*
X021888Y005069D02*
X021916Y005069D01*
X021916Y005011D02*
X021878Y005011D01*
X021854Y004954D02*
X021916Y004954D01*
X021916Y004896D02*
X021823Y004896D01*
X021765Y004839D02*
X021916Y004839D01*
X021916Y004781D02*
X021681Y004781D01*
X021650Y004724D02*
X021916Y004724D01*
X021916Y004666D02*
X021593Y004666D01*
X021535Y004608D02*
X021916Y004608D01*
X021916Y004551D02*
X021477Y004551D01*
X021620Y004493D02*
X021916Y004493D01*
X021916Y004436D02*
X021759Y004436D01*
X021820Y004378D02*
X021916Y004378D01*
X021916Y004321D02*
X021878Y004321D01*
X021909Y004263D02*
X021916Y004263D01*
X021914Y003860D02*
X021916Y003860D01*
X021916Y003803D02*
X021889Y003803D01*
X021916Y003745D02*
X021831Y003745D01*
X021774Y003688D02*
X021916Y003688D01*
X021381Y003630D02*
X020866Y003630D01*
X020866Y003688D02*
X021254Y003688D01*
X021196Y003745D02*
X020866Y003745D01*
X020866Y003803D02*
X021139Y003803D01*
X021114Y003860D02*
X020866Y003860D01*
X020866Y003918D02*
X021090Y003918D01*
X021069Y003975D02*
X020902Y003975D01*
X020959Y004033D02*
X021069Y004033D01*
X021069Y004090D02*
X021017Y004090D01*
X020795Y004263D02*
X020197Y004263D01*
X020197Y004206D02*
X020737Y004206D01*
X020680Y004148D02*
X020197Y004148D01*
X020197Y004090D02*
X020622Y004090D01*
X020587Y004033D02*
X020197Y004033D01*
X020197Y003975D02*
X020587Y003975D01*
X020587Y003918D02*
X020197Y003918D01*
X020197Y003860D02*
X020587Y003860D01*
X020587Y003803D02*
X020197Y003803D01*
X020180Y003745D02*
X020587Y003745D01*
X020587Y003688D02*
X020122Y003688D01*
X020064Y003630D02*
X020587Y003630D01*
X020587Y003572D02*
X020007Y003572D01*
X019448Y003515D02*
X020587Y003515D01*
X020587Y003457D02*
X019448Y003457D01*
X019433Y003400D02*
X020587Y003400D01*
X020853Y004321D02*
X020197Y004321D01*
X020197Y004378D02*
X020910Y004378D01*
X020968Y004436D02*
X020197Y004436D01*
X020219Y004493D02*
X021025Y004493D01*
X021083Y004551D02*
X020277Y004551D01*
X020334Y004608D02*
X021140Y004608D01*
X021198Y004666D02*
X020374Y004666D01*
X020374Y004724D02*
X020717Y004724D01*
X020623Y004781D02*
X020374Y004781D01*
X020466Y004839D02*
X020565Y004839D01*
X020524Y004896D02*
X020524Y004896D01*
X021066Y004724D02*
X021255Y004724D01*
X021313Y004781D02*
X021161Y004781D01*
X021218Y004839D02*
X021317Y004839D01*
X021260Y004896D02*
X021259Y004896D01*
X018294Y003112D02*
X017907Y003112D01*
X017907Y003108D02*
X017907Y003108D01*
X017853Y003054D02*
X018213Y003054D01*
X018155Y002997D02*
X017796Y002997D01*
X017738Y002939D02*
X018113Y002939D01*
X018089Y002882D02*
X017710Y002882D01*
X017707Y002824D02*
X018065Y002824D01*
X018054Y002767D02*
X017649Y002767D01*
X017592Y002709D02*
X018054Y002709D01*
X018054Y002652D02*
X017107Y002652D01*
X017163Y002709D02*
X017412Y002709D01*
X017352Y002767D02*
X017218Y002767D01*
X017273Y002824D02*
X017297Y002824D01*
X017024Y003054D02*
X016622Y003054D01*
X016622Y002997D02*
X016969Y002997D01*
X016914Y002939D02*
X016622Y002939D01*
X016622Y002882D02*
X016858Y002882D01*
X016803Y002824D02*
X016620Y002824D01*
X016997Y002536D02*
X018086Y002536D01*
X018110Y002479D02*
X016942Y002479D01*
X017052Y002594D02*
X018063Y002594D01*
X018277Y002306D02*
X014693Y002306D01*
X014694Y002249D02*
X018416Y002249D01*
X019001Y002364D02*
X019066Y002364D01*
X016045Y002824D02*
X015992Y002824D01*
X015992Y002882D02*
X016043Y002882D01*
X016043Y002939D02*
X015992Y002939D01*
X015992Y002997D02*
X016043Y002997D01*
X016043Y003054D02*
X015992Y003054D01*
X015992Y003112D02*
X016043Y003112D01*
X015493Y003112D02*
X015401Y003112D01*
X015401Y003054D02*
X015493Y003054D01*
X015493Y002997D02*
X015401Y002997D01*
X015401Y002939D02*
X015493Y002939D01*
X015493Y002882D02*
X015401Y002882D01*
X015401Y002824D02*
X015493Y002824D01*
X015493Y003170D02*
X015401Y003170D01*
X015401Y003227D02*
X015493Y003227D01*
X015493Y003285D02*
X015401Y003285D01*
X015401Y003342D02*
X015493Y003342D01*
X015493Y003400D02*
X015401Y003400D01*
X015401Y003457D02*
X015493Y003457D01*
X015493Y003515D02*
X015401Y003515D01*
X015374Y003572D02*
X015520Y003572D01*
X014760Y003112D02*
X014220Y003112D01*
X014220Y003054D02*
X014818Y003054D01*
X014902Y002997D02*
X014220Y002997D01*
X014220Y002939D02*
X014902Y002939D01*
X014902Y002882D02*
X014220Y002882D01*
X014220Y002824D02*
X014862Y002824D01*
X014703Y003170D02*
X014220Y003170D01*
X014220Y003227D02*
X014645Y003227D01*
X014952Y002479D02*
X014140Y002479D01*
X014140Y002426D02*
X014115Y002402D01*
X014121Y002405D01*
X014154Y002414D01*
X014338Y002414D01*
X014338Y001920D01*
X014388Y001920D01*
X014388Y002020D01*
X014392Y002020D01*
X014398Y002019D01*
X014398Y002414D01*
X014582Y002414D01*
X014615Y002405D01*
X014644Y002388D01*
X014669Y002364D01*
X014398Y002364D02*
X014338Y002364D01*
X014338Y002306D02*
X014398Y002306D01*
X014398Y002249D02*
X014338Y002249D01*
X014338Y002191D02*
X014398Y002191D01*
X014398Y002134D02*
X014338Y002134D01*
X014338Y002076D02*
X014398Y002076D01*
X014388Y002019D02*
X014338Y002019D01*
X014338Y001961D02*
X014388Y001961D01*
X014388Y001846D02*
X014338Y001846D01*
X014338Y001788D02*
X014388Y001788D01*
X014388Y001731D02*
X014338Y001731D01*
X014338Y001673D02*
X014388Y001673D01*
X014388Y001616D02*
X014338Y001616D01*
X014338Y001558D02*
X014388Y001558D01*
X014388Y001501D02*
X014338Y001501D01*
X014338Y001443D02*
X014388Y001443D01*
X014388Y001385D02*
X014338Y001385D01*
X014329Y001328D02*
X014388Y001328D01*
X014388Y001155D02*
X014329Y001155D01*
X014329Y001098D02*
X014388Y001098D01*
X014388Y001040D02*
X014329Y001040D01*
X014329Y000983D02*
X014388Y000983D01*
X014388Y000925D02*
X014329Y000925D01*
X014329Y000867D02*
X014388Y000867D01*
X014388Y000810D02*
X014329Y000810D01*
X014329Y000752D02*
X014388Y000752D01*
X014388Y000695D02*
X014329Y000695D01*
X014329Y000637D02*
X014388Y000637D01*
X014388Y000580D02*
X014329Y000580D01*
X014233Y000580D02*
X013654Y000580D01*
X013656Y000637D02*
X014114Y000637D01*
X014046Y000695D02*
X013699Y000695D01*
X013723Y000752D02*
X014000Y000752D01*
X013968Y000810D02*
X013746Y000810D01*
X013748Y000867D02*
X013947Y000867D01*
X013934Y000925D02*
X013748Y000925D01*
X013748Y000983D02*
X013929Y000983D01*
X013929Y001040D02*
X013748Y001040D01*
X013748Y001098D02*
X013929Y001098D01*
X013929Y001155D02*
X013748Y001155D01*
X014484Y000580D02*
X014522Y000580D01*
X014443Y000522D02*
X013654Y000522D01*
X013654Y000465D02*
X014362Y000465D01*
X014184Y000407D02*
X013654Y000407D01*
X013932Y000375D02*
X013932Y000375D01*
X015562Y005133D02*
X015562Y005133D01*
D31*
X016002Y005296D03*
X015876Y005781D03*
X014655Y004792D03*
X013955Y005355D03*
X013344Y005355D03*
X013108Y005552D03*
X012577Y005533D03*
X012604Y005202D03*
X012360Y005001D03*
X012892Y004981D03*
X012301Y004253D03*
X011651Y004351D03*
X010726Y003938D03*
X010411Y003977D03*
X009525Y003800D03*
X008876Y003800D03*
X008896Y002895D03*
X008522Y002422D03*
X008226Y002344D03*
X005549Y003918D03*
X004250Y003485D03*
X004407Y002599D03*
X004033Y002383D03*
X009161Y005011D03*
X009151Y005316D03*
X009722Y004883D03*
X010057Y004863D03*
X010392Y004804D03*
X010510Y005178D03*
X011022Y005060D03*
X010726Y005651D03*
X010451Y005907D03*
X010136Y006281D03*
X010096Y006635D03*
X010797Y006705D03*
X011100Y006694D03*
X011474Y007029D03*
X012533Y006568D03*
X012565Y006025D03*
X011022Y005946D03*
X009132Y005788D03*
X008541Y006950D03*
X009211Y007481D03*
X009644Y007737D03*
X009880Y009401D03*
X012852Y008958D03*
X015329Y009033D03*
X017557Y005729D03*
X017675Y004824D03*
X017627Y004441D03*
X016396Y004631D03*
X016069Y004599D03*
X015419Y004265D03*
X015545Y003977D03*
X015431Y003682D03*
X014781Y003690D03*
X016297Y003564D03*
X016711Y003564D03*
X017222Y003584D03*
X017502Y002914D03*
X013522Y002659D03*
X013285Y001911D03*
X005274Y005355D03*
X005274Y005788D03*
X005569Y006714D03*
X003994Y007777D03*
X004289Y008603D03*
X005057Y008623D03*
X005687Y008308D03*
D32*
X005545Y008981D02*
X004963Y008981D01*
X004496Y008338D01*
X004447Y008190D01*
X004447Y007245D01*
X004486Y008328D02*
X003679Y008328D01*
X003655Y008312D01*
X004486Y008328D02*
X004496Y008338D01*
X005545Y008981D02*
X005545Y008993D01*
X006474Y009922D01*
X007872Y009922D01*
X014407Y010177D02*
X014407Y009588D01*
X014663Y007245D02*
X014663Y006812D01*
X014939Y006536D01*
X015667Y006536D01*
X016504Y005700D01*
X017541Y003958D02*
X017537Y003954D01*
X017537Y003328D01*
X017140Y002930D01*
X016864Y002643D01*
X015033Y002639D01*
X014919Y002655D01*
X014026Y002655D01*
X013911Y002521D01*
X013522Y002659D02*
X013522Y002166D01*
X013285Y001911D01*
X013289Y001867D01*
X013285Y001359D01*
X013358Y001286D01*
X013358Y001190D01*
X013368Y001122D01*
X013368Y000592D01*
X014358Y001290D02*
X014289Y001871D01*
X014289Y002048D01*
X014612Y002351D01*
X015448Y002351D01*
X014368Y001891D02*
X014289Y001871D01*
X016199Y003572D02*
X016297Y003572D01*
X016297Y003564D01*
X016297Y003572D02*
X016748Y003572D01*
X017087Y003572D01*
X017205Y003582D01*
X017205Y003584D01*
X017222Y003584D01*
X015431Y003682D02*
X014789Y003682D01*
X014781Y003690D01*
X008746Y000505D02*
X008744Y000503D01*
X007862Y000503D01*
X007852Y000493D01*
X007695Y000493D01*
X007203Y000946D01*
X007203Y001989D01*
X006707Y000584D02*
X006785Y000529D01*
X007124Y000533D01*
X007862Y000503D02*
X007888Y000517D01*
X007888Y000584D01*
X005116Y006084D02*
X004683Y006064D01*
X005116Y006084D02*
X005116Y006123D01*
X005175Y006162D01*
D33*
X013559Y004686D02*
X013943Y004686D01*
X014128Y004497D01*
X014888Y004497D01*
X015136Y004741D01*
X015368Y004741D01*
X015301Y004556D02*
X015053Y004312D01*
X013557Y004312D01*
X015301Y004556D02*
X015525Y004556D01*
X015529Y004556D01*
X017627Y004441D02*
X017907Y004677D01*
X017882Y006006D01*
D34*
X016748Y003589D02*
X016748Y003572D01*
X016748Y003589D02*
X016711Y003564D01*
D35*
X015448Y002351D03*
X013911Y002521D03*
X008746Y000505D03*
X007124Y000533D03*
X007203Y001989D03*
X005175Y006162D03*
X004447Y007245D03*
X014663Y007245D03*
D36*
X014663Y006812D02*
X012777Y006812D01*
X012533Y006568D01*
X012553Y006552D01*
X012124Y006515D02*
X011985Y006655D01*
X011809Y006832D01*
X011770Y006871D01*
X011770Y007147D01*
X011651Y007265D01*
X011226Y007265D01*
X011100Y007139D01*
X011100Y006694D01*
X010797Y006705D02*
X010797Y006505D01*
X011297Y006005D01*
X011297Y004942D01*
X010766Y004411D01*
X009388Y004411D01*
X009250Y004273D01*
X009250Y003485D01*
X009270Y003202D01*
X009246Y003178D01*
X008896Y002895D02*
X008896Y002777D01*
X009033Y002639D01*
X009427Y002639D01*
X009545Y002757D01*
X009545Y003781D01*
X009525Y003800D01*
X009860Y003761D02*
X010313Y004214D01*
X010844Y004214D01*
X011478Y004848D01*
X011474Y004851D01*
X011474Y007029D01*
X011238Y007777D02*
X010549Y007088D01*
X010549Y006182D01*
X010746Y005985D01*
X010746Y005670D01*
X010726Y005651D01*
X010451Y005907D02*
X010372Y005985D01*
X010372Y007718D01*
X010687Y007836D01*
X010726Y007875D01*
X010726Y008722D01*
X011002Y008997D01*
X011986Y008997D01*
X012407Y009418D01*
X012407Y009588D01*
X012407Y009785D01*
X012407Y010177D01*
X011407Y010277D02*
X011407Y009678D01*
X010648Y008918D01*
X010352Y008918D01*
X010136Y008702D01*
X010136Y007836D01*
X010037Y007737D01*
X010037Y006694D01*
X010096Y006635D01*
X009427Y006379D02*
X009171Y006655D01*
X008561Y007265D01*
X008561Y008761D01*
X008443Y008879D01*
X006218Y008879D01*
X005982Y008643D01*
X005136Y008643D01*
X005057Y008623D01*
X005545Y008312D02*
X005549Y008308D01*
X005687Y008308D01*
X006474Y009430D02*
X006829Y009076D01*
X008600Y009056D01*
X008758Y008899D01*
X008758Y007324D01*
X009368Y006714D01*
X009781Y006281D01*
X010195Y005887D01*
X010195Y005729D01*
X010234Y005690D01*
X010234Y005099D01*
X010392Y004863D01*
X010392Y004804D01*
X010057Y004863D02*
X010057Y005060D01*
X009998Y005119D01*
X009998Y005788D01*
X009427Y006379D01*
X010037Y006281D02*
X008955Y007383D01*
X008955Y009076D01*
X008955Y009824D01*
X009407Y010277D01*
X009407Y010887D01*
X010407Y010177D02*
X010407Y009647D01*
X010407Y009588D01*
X010407Y009647D02*
X009762Y009647D01*
X009388Y009273D01*
X009388Y007659D01*
X009211Y007481D01*
X009644Y007737D02*
X009644Y007777D01*
X009565Y007855D01*
X009565Y008781D01*
X009880Y009096D01*
X009880Y009401D01*
X008955Y009076D02*
X008600Y009450D01*
X007892Y009450D01*
X007872Y009430D01*
X006474Y010375D02*
X006474Y010414D01*
X007872Y010414D01*
X006474Y010375D02*
X005411Y009312D01*
X004585Y009312D01*
X004289Y009017D01*
X004289Y008603D01*
X003994Y007777D02*
X003848Y007639D01*
X003655Y007643D01*
X003364Y007351D01*
X003364Y005218D01*
X003541Y005040D01*
X004270Y005040D01*
X004250Y005021D01*
X004250Y003938D01*
X004151Y003840D01*
X003541Y003840D01*
X003403Y003702D01*
X003403Y003072D01*
X003581Y002895D01*
X003776Y002895D01*
X003833Y002838D01*
X003833Y002583D01*
X004033Y002383D01*
X004407Y002599D02*
X004407Y003151D01*
X004750Y003474D01*
X004250Y003485D02*
X004193Y003428D01*
X003833Y003428D01*
X004742Y002875D02*
X004750Y002883D01*
X004742Y002875D02*
X004742Y002442D01*
X004840Y002344D01*
X008226Y002344D01*
X008522Y002422D02*
X008600Y002442D01*
X008837Y002206D01*
X008837Y000596D01*
X008746Y000505D01*
X009368Y000592D02*
X009348Y001082D01*
X009358Y001190D01*
X009368Y001871D01*
X010136Y002639D01*
X010136Y003741D01*
X010431Y004036D01*
X010411Y003977D01*
X010726Y003938D02*
X010726Y002678D01*
X010392Y002344D01*
X010392Y001737D01*
X010407Y001615D01*
X010407Y001300D01*
X010358Y001290D01*
X010407Y001615D02*
X010368Y001891D01*
X011317Y002521D02*
X011348Y002474D01*
X011358Y001190D01*
X011368Y001181D01*
X011368Y000592D01*
X012358Y001290D02*
X012368Y001300D01*
X012368Y001891D01*
X012368Y002312D01*
X012498Y002462D01*
X012498Y003564D01*
X012419Y003643D01*
X012163Y003643D01*
X012025Y003781D01*
X012025Y004391D01*
X012124Y004489D01*
X012124Y006515D01*
X012655Y006025D02*
X012872Y006261D01*
X015435Y006265D01*
X015876Y005781D01*
X016435Y005533D02*
X016504Y005601D01*
X016632Y005729D01*
X017557Y005729D01*
X017882Y006006D02*
X017999Y006123D01*
X018344Y006123D01*
X018604Y006560D02*
X018777Y006399D01*
X018781Y004820D01*
X017750Y003848D01*
X018514Y003706D02*
X018829Y003706D01*
X018833Y003702D01*
X019233Y003702D02*
X019939Y003702D01*
X020057Y003820D01*
X020057Y004529D01*
X020234Y004706D01*
X020234Y005098D01*
X020242Y005105D01*
X020726Y003997D02*
X021541Y004812D01*
X021541Y005105D01*
X020726Y003997D02*
X020726Y002954D01*
X020470Y002698D01*
X019233Y002698D01*
X018833Y002698D02*
X018522Y002698D01*
X018514Y002706D01*
X018518Y003702D02*
X018514Y003706D01*
X017669Y004804D02*
X017416Y004571D01*
X017082Y004571D01*
X016966Y004568D01*
X016671Y004568D01*
X016592Y004489D01*
X016592Y004391D01*
X015844Y003643D01*
X015844Y003281D01*
X015742Y003178D01*
X015151Y003178D02*
X014892Y003178D01*
X014329Y003741D01*
X012813Y003741D01*
X012301Y004253D01*
X012360Y004529D02*
X012360Y005001D01*
X012604Y005202D02*
X012608Y004737D01*
X013238Y004096D01*
X015163Y004096D01*
X015396Y004288D01*
X015419Y004265D01*
X015525Y004556D02*
X015616Y004647D01*
X016022Y004647D01*
X016069Y004599D01*
X016396Y004631D02*
X016394Y004865D01*
X016272Y004995D01*
X015620Y004993D01*
X015368Y004741D01*
X014655Y004792D02*
X014124Y004792D01*
X013522Y005395D01*
X013403Y005395D01*
X013344Y005355D01*
X013108Y005552D02*
X013108Y005137D01*
X013559Y004686D01*
X013226Y004643D02*
X013226Y004647D01*
X012892Y004981D01*
X013226Y004643D02*
X013557Y004312D01*
X012970Y003918D02*
X014837Y003922D01*
X015482Y003922D01*
X015545Y003977D01*
X015151Y003178D02*
X015144Y003170D01*
X012970Y003918D02*
X012360Y004529D01*
X011651Y004351D02*
X011317Y003997D01*
X011317Y002521D01*
X009860Y003202D02*
X009860Y003761D01*
X009860Y003202D02*
X009837Y003178D01*
X008640Y002816D02*
X008403Y002619D01*
X005844Y002619D01*
X005333Y003131D01*
X005333Y003702D01*
X005274Y003761D01*
X005274Y004056D01*
X005569Y004351D01*
X005569Y006714D01*
X005274Y005788D02*
X004703Y005788D01*
X004683Y005808D01*
X004683Y005552D02*
X005116Y005552D01*
X005274Y005355D01*
X004683Y005040D02*
X004270Y005040D01*
X005549Y003918D02*
X005549Y003190D01*
X005943Y002796D01*
X008364Y002796D01*
X008463Y002895D01*
X008463Y005099D01*
X008699Y005336D01*
X009151Y005316D01*
X009407Y005395D02*
X009407Y004844D01*
X008876Y004450D01*
X008876Y003800D01*
X008640Y002816D02*
X008640Y004942D01*
X008738Y005040D01*
X009161Y005011D01*
X009722Y004883D02*
X009781Y004942D01*
X009781Y005690D01*
X008541Y006950D01*
X010037Y006281D02*
X010136Y006281D01*
X011022Y005946D02*
X011022Y005060D01*
X010628Y005060D01*
X010510Y005178D01*
X009407Y005395D02*
X009132Y005788D01*
X011238Y007777D02*
X013010Y007777D01*
X013088Y007855D01*
X013088Y008662D01*
X013407Y008981D01*
X013407Y010277D01*
X013407Y010887D01*
X011407Y010887D02*
X011407Y010277D01*
X012852Y008997D02*
X012852Y008958D01*
X014348Y009686D02*
X014407Y009588D01*
X015155Y008859D02*
X015329Y009033D01*
X015155Y008859D02*
X015155Y008300D01*
X015151Y008296D01*
X018478Y007800D02*
X018482Y007796D01*
X018478Y007800D02*
X018604Y007615D01*
X018604Y006560D01*
X018364Y005359D02*
X018344Y005336D01*
X017898Y005159D02*
X017907Y004677D01*
X017669Y004804D02*
X017675Y004824D01*
X017898Y005159D02*
X016592Y005159D01*
X016474Y005296D01*
X016002Y005296D01*
X016435Y005533D02*
X014857Y005533D01*
X014655Y005331D01*
X014655Y004792D01*
X013955Y005355D02*
X013541Y005788D01*
X012970Y005788D01*
X012734Y005533D01*
X012577Y005533D01*
X012565Y006025D02*
X012655Y006025D01*
X013856Y005454D02*
X013955Y005355D01*
D37*
X013088Y006025D03*
X012852Y006497D03*
X012793Y007304D03*
X012163Y007304D03*
X010785Y005316D03*
X010707Y004824D03*
X011711Y004036D03*
X012301Y003918D03*
X017577Y006143D03*
X018069Y007048D03*
X017577Y007501D03*
X017459Y008367D03*
X017459Y009115D03*
X016868Y009115D03*
X019683Y009174D03*
X020214Y009174D03*
X021573Y008938D03*
X021789Y008131D03*
X021002Y008111D03*
X020234Y008092D03*
X020234Y007521D03*
X021022Y007521D03*
X021809Y007540D03*
X021809Y006891D03*
X021041Y006871D03*
X020234Y006891D03*
X020234Y006123D03*
X021022Y006143D03*
X021789Y006143D03*
X020352Y004351D03*
X020352Y003702D03*
X020333Y003013D03*
X020313Y002324D03*
X020923Y002324D03*
X019722Y002324D03*
X021809Y003387D03*
D38*
X017762Y003505D02*
X017758Y003170D01*
X017502Y002914D01*
X017459Y002871D01*
X017762Y003505D02*
X017750Y003848D01*
X016504Y005601D02*
X016504Y005700D01*
D39*
X018364Y005359D02*
X018364Y004738D01*
X018049Y004434D01*
X017541Y003958D01*
M02*
